<?xml version="1.0" encoding="utf-8"?>
<!-- Generator: Adobe Illustrator 21.0.2, SVG Export Plug-In . SVG Version: 6.00 Build 0)  -->
<svg version="1.1" id="レイヤー_1" xmlns="http://www.w3.org/2000/svg" xmlns:xlink="http://www.w3.org/1999/xlink" x="0px"
	 y="0px" width="40px" height="40px" viewBox="0 0 40 40" enable-background="new 0 0 40 40" xml:space="preserve">
<rect fill="#727171" width="40" height="40"/>
<g>
	<path fill="#FFFFFF" d="M7.4,15.6c0-1.9,0.6-3.3,1.7-4.3c1.1-1,2.3-1.5,3.8-1.5c1.5,0,2.8,0.5,3.9,1.5c1.1,1,1.7,2.5,1.7,4.3v9
		c0,1.9-0.6,3.3-1.7,4.3c-1.1,1-2.4,1.5-3.9,1.5c-1.5,0-2.8-0.5-3.8-1.5c-1.1-1-1.7-2.4-1.7-4.3V15.6z M15.7,15.8
		c-0.1-2-1-3.1-2.8-3.1c-1.8,0-2.7,1.1-2.8,3.1v8.6c0,2.1,1,3.1,2.8,3.1c1.8,0,2.7-1.1,2.8-3.1V15.8z"/>
	<path fill="#FFFFFF" d="M20.6,24.3c0-2,0.8-3.5,2.4-4.6c-0.6-0.5-1.1-1.1-1.4-1.8c-0.4-0.6-0.6-1.4-0.6-2.3c0-1.7,0.6-3.1,1.7-4.2
		c1-1.1,2.3-1.7,4-1.7c1.6,0,3,0.6,4,1.7c1.1,1.1,1.6,2.5,1.6,4.2c0,0.9-0.2,1.6-0.5,2.3c-0.4,0.7-0.9,1.3-1.5,1.8
		c1.6,1.1,2.4,2.6,2.4,4.6c0,1.8-0.6,3.3-1.7,4.4c-1.2,1.1-2.6,1.7-4.3,1.7c-1.7,0-3.1-0.6-4.2-1.7C21.2,27.6,20.6,26.1,20.6,24.3z
		 M23.4,24.3c0,0.9,0.3,1.7,1,2.3c0.6,0.6,1.3,0.9,2.2,0.9c0.9,0,1.7-0.3,2.3-0.9c0.6-0.6,0.9-1.4,1-2.3c0-0.9-0.3-1.7-1-2.3
		c-0.6-0.6-1.4-0.9-2.3-0.9c-0.9,0-1.6,0.3-2.2,0.9C23.8,22.6,23.4,23.3,23.4,24.3z M23.8,15.6c0,0.9,0.3,1.7,0.9,2.2
		c0.6,0.5,1.2,0.8,1.9,0.8c0.8,0,1.4-0.3,2-0.8c0.6-0.5,0.8-1.2,0.9-2.2c0-1-0.3-1.7-0.9-2.2c-0.6-0.5-1.2-0.7-2-0.7
		c-0.7,0-1.4,0.2-1.9,0.7C24.1,13.9,23.8,14.6,23.8,15.6z"/>
</g>
</svg>
