<?xml version="1.0" encoding="utf-8"?>
<!-- Generator: Adobe Illustrator 21.0.2, SVG Export Plug-In . SVG Version: 6.00 Build 0)  -->
<svg version="1.1" id="レイヤー_1" xmlns="http://www.w3.org/2000/svg" xmlns:xlink="http://www.w3.org/1999/xlink" x="0px"
	 y="0px" width="300px" height="70px" viewBox="0 0 300 70" enable-background="new 0 0 300 70" xml:space="preserve">
<g>
	<path fill="#231F20" d="M265.3,10.5h-2.6v5H253V18h9.6c-0.4,3-2.3,8.7-9.4,11.9l1,2.3c5.7-2.5,8.5-6.4,9.8-9.8
		c1.4,3.4,4.1,7.3,9.8,9.8l1-2.3c-7.2-3.1-9-8.8-9.4-11.9h9.9v-2.6h-10V10.5"/>
	<path fill="#231F20" d="M300,23.4h-9c1.9-0.9,3.6-2.2,4.6-3.4l0.3-0.3v-1.9h-13.5v2.6c0,0,5.5,0,9,0c-0.8,0.5-1.6,0.9-2.5,1.2
		l-0.9,0.3c0,0,0,0.7,0,1.6h-9.7V26h9.7c0,2,0,3.7,0,3.7c0,0,0,0-0.1,0H284v2.6h3.8c1.5,0,2.7-1.2,2.7-2.6c0,0,0-1.9,0-3.7h9.5V23.4
		"/>
	<path fill="#231F20" d="M298.6,13.7h-2.1c0.5-1,0.9-1.9,1.2-2.7l-2.4-0.8c-0.4,1-1,2.4-1.7,3.6h-2.7c-0.3-1.2-0.9-2.7-1.5-3.8
		l-2.3,1.2c0.4,0.8,0.8,1.7,1.1,2.6h-3.7c-0.3-1.2-0.9-2.7-1.5-3.8l-2.3,1.2c0.4,0.8,0.8,1.7,1.1,2.6h-3.6v5h2.6c0,0,0-1.4,0-2.5
		c2.1,0,14.4,0,16.4,0c0,1.1,0,2.5,0,2.5h2.6v-5H298.6"/>
	<path fill="#231F20" d="M241.1,22.5h8.2v-2.6h-4.4c0.6-1.2,1-2.5,1.3-3.6l-2.5-0.6c-0.3,1.3-1.1,3.2-1.7,4.2h-2.1v-4.5h8.7v-2.6
		h-8.7v-2.5h-2.6v2.5h-8.7v2.6h8.7v4.5h-2.4c-0.5-1.6-1.2-3.2-1.8-4.4l-2.2,1.2c0.5,0.8,1,2,1.4,3.2h-4.6v2.6h8.3
		c-1.9,2.5-5.1,5.1-8.5,6.8l1.1,2.3c3.4-1.6,6.6-4.1,8.8-6.7v7.3h2.6V25c2.2,2.5,5.3,4.9,8.6,6.5l1.1-2.3
		C246.2,27.6,243,25,241.1,22.5"/>
	<path fill="#231F20" d="M215.7,22.1h7.7v-2.6H214v-4.2h8.3v-2.6H214v-2.5h-2.6v2.5h-8.3v2.6h8.3v4.2h-9.7v2.6h8
		c-1.7,2.6-4.7,5.4-8.2,7.1l1.1,2.3c2.9-1.4,6.5-4.2,8.8-7.4v7.9h2.6v-8c2.3,3.1,5.9,6,8.8,7.4l1.1-2.3
		C220.4,27.5,217.4,24.7,215.7,22.1"/>
	<path fill="#231F20" d="M125.2,23.5c0-0.1-0.1-5.9-0.1-6.1c0.2,0,4.3,0,4.3,0v-2.8c0,0-4.1,0-4.3,0c0-0.2-0.1-3.8-0.1-3.8l-0.1,0
		l-2.7,0c0,0,0.1,3.5,0.1,3.8c-0.2,0-7,0-7,0v2.8c0,0,6.8,0,7,0c0,0.2,0.1,4.9,0.1,5.2c-0.7-0.1-1.3-0.2-1.8-0.2
		c-3.8,0-5.5,2.4-5.5,4.7c0,2.1,1.7,4.2,5.5,4.2c1.5,0,2.7-0.4,3.6-1.3c0.8-0.8,1.2-1.9,1.2-3.2c0,0,0,0,0-0.1
		c0.9,0.6,1.8,1.4,2.8,2.4l0.1,0.1l2-1.8l-0.1-0.1C128.4,25.5,126.8,24.3,125.2,23.5 M117.7,27c0-1.3,1.1-2,2.8-2
		c0.6,0,1.2,0.1,1.9,0.3c0,0.2,0,1.3,0,1.3c0,0,0,0.1,0,0.1c0,0.6-0.1,1-0.4,1.3c-0.3,0.3-0.8,0.5-1.5,0.5
		C119.2,28.5,117.7,28.1,117.7,27z"/>
	<path fill="#231F20" d="M112.7,11.9l0-0.1l-2.8-0.5l0,0.1c-0.9,5.4-0.9,13.8,0,19.7l0,0.1l2.8-0.4l0-0.1
		C111.9,25.8,111.7,17.5,112.7,11.9"/>
	<path fill="#231F20" d="M140.8,16L140.8,16l1.6,2.2l0.1-0.1c1.6-1.4,6-2.9,7.9-3.1l0.1,0l0-0.1v-2.7h-15.4V15c0,0,6.4,0,7.2,0
		C141.8,15.3,141.2,15.7,140.8,16"/>
	<path fill="#231F20" d="M144.1,28.1c-4.9,0-6.9-0.6-7.4-2.4c-0.6-1.9,1.8-4.4,1.9-4.5l0.1-0.1l-1.9-1.9l-0.1,0.1
		c-0.1,0.1-2.7,2.8-2.7,5.8c0,0.5,0.1,0.9,0.2,1.4c1.2,4,5.6,4.3,10,4.3c3.7,0,6-0.2,6.8-0.2l0.1,0v-2.8l-0.1,0
		C150.9,27.9,148.5,28.1,144.1,28.1"/>
	<path fill="#231F20" d="M171.5,10.6H169v3.3c0,0-6.4,0-6.6,0c0.2-1.2,0.3-2.2,0.4-3.1l0-0.1l-2.8-0.2l0,0.1c-0.1,0.9-0.2,2-0.4,3.3
		c-0.2,0-3.9,0-3.9,0v2.8c0,0,3.1,0,3.4,0c-1,4.7-2.7,9.9-4.2,13.3l-0.1,0.1l2.6,1.1l0-0.1c1.7-3.7,3.5-9.4,4.5-14.5
		c0.2,0,9.6,0,9.6,0V10.6"/>
	<polyline fill="#231F20" points="165.1,20.9 174.7,20.9 174.7,18.1 165.1,18.1 165.1,20.9 	"/>
	<polyline fill="#231F20" points="172.7,10.6 172.7,16.7 175.1,16.7 175.1,10.6 172.7,10.6 	"/>
	<path fill="#231F20" d="M175.1,28.2l-4.4,0.1c-3.9,0-4.8-0.2-5.2-1.4c-0.3-0.9,0.7-2,1-2.3l0.1-0.1l-1.7-2.1l-0.1,0.1
		c-1.1,0.9-2.6,3.1-1.9,5.3l0,0c1,3.3,4.3,3.3,7.8,3.3l4.4-0.1l0-0.1V28.2"/>
	<path fill="#231F20" d="M198.5,12.7h-19.7v2.8c0,0,9.1,0,9.9,0c-2.9,1.6-5.6,5.2-5.6,8.6c0,0.4,0,0.9,0.1,1.3
		c0.5,2.1,2.8,5.7,12.5,5.7h0.1v-2.8h-0.1c-6.2,0-9.8-1.7-9.9-4.6c-0.1-3.5,5.4-8,11.8-8.2h1v-2.8H198.5"/>
	<path fill="#231F20" d="M104,13.5c0,0-8.5,0-8.7,0c0-0.2,0-3,0-3h-2.8c0,0,0,2.8,0,3c-0.2,0-8.7,0-8.7,0v2.8H104V13.5"/>
	<path fill="#231F20" d="M89.1,17.1l-0.1,0l-2.5,1l0,0.1c1.1,2.7,2,7.3,2.2,9.6l0,0.1l2.7-0.2l0-0.1c-0.2-2.8-1.3-7.7-2.4-10.5
		L89.1,17.1"/>
	<path fill="#231F20" d="M100.7,17.7l0-0.1L98,17l0,0.1c-1.3,6.2-2.6,9.8-3.3,11.5c-0.2,0-11.8,0-11.8,0v2.8h22.1v-2.8
		c0,0-7,0-7.3,0C98.4,26.5,99.6,23,100.7,17.7"/>
	<path fill="#231F20" d="M59.4,20.6c2.2-1.9,5.3-5.4,6.9-8.6l0.1-0.1l-2.5-1.3l-0.1,0.1c-1.4,2.7-4.2,6-6.3,7.8l-0.1,0.1L59.4,20.6
		L59.4,20.6"/>
	<path fill="#231F20" d="M73.4,10.7l-0.1-0.1l-0.1,0.1l-2.4,1.2l0.1,0.1c1.5,2.8,4.4,6.5,6.9,8.7l0.1,0.1l1.9-2.1l-0.1-0.1
		C77.4,16.6,74.7,13.2,73.4,10.7"/>
	<path fill="#231F20" d="M73.6,22.2L73.6,22.2l-2.3,1.6l0.4,0.5c0.7,1,1.5,1.9,2.2,3c-0.4,0-8,1-8.5,1c1.6-3.2,3.4-7.9,4-10.4l0-0.1
		l-2.8-0.6l0,0.1c-0.6,2.9-3.1,9.1-4.7,11.4c-0.1,0-2.8,0.3-2.8,0.3l0.3,2.8c0,0,15.8-1.9,15.9-1.9c0.1,0.1,1.2,2.2,1.2,2.2l0.1-0.1
		l2.4-1.2L79,30.7C77.5,27.8,75.6,24.8,73.6,22.2"/>
	<path fill="#B8282F" d="M21.3,20.2c0.9,0.8,1.5,2,1.5,3.3c0,2.4-1.9,4.3-4.3,4.3c-1.8,0-3.4-1.1-4-2.7c-0.3-0.7-0.4-1.3-0.6-2
		c-0.8-3-3.6-5.2-6.8-5.2c-3.9,0-7.1,3.2-7.1,7.1c0,3.7,2.9,6.8,6.6,7c0.9,0.1,1.5,0,2.2,0c2.1,0.1,3.8,1.8,3.8,4
		c0,0.9-0.3,1.7-0.8,2.4c-0.5,0.6-1.2,1.2-1.6,1.7c-0.8,1-1.3,2.2-1.3,3.6c0,3,2.4,5.5,5.5,5.5c1.8,0,3.5-0.9,4.4-2.3
		c0.2-0.3,0.9-1.4,1.1-1.7c0.8-1.2,2.1-2,3.7-2c1.4,0,2.5,0.7,3.4,1.6c0.3,0.4,0.7,1,1.2,1.9c1.6,2.6,4.5,4.5,7.8,4.5c5,0,9-4,9-9
		c0-2.1-0.7-4-1.9-5.5c-0.5-0.6-1.1-1.3-1.5-1.8c-0.5-0.7-0.8-1.5-0.8-2.3c0-1.8,1.2-3.3,2.8-3.8c0.6-0.2,1.2-0.2,2-0.4
		c3.2-0.6,5.6-3.5,5.6-6.9c0-3.9-3.1-7-7-7c-1.2,0-2.4,0.4-3.4,0.9c-0.5,0.3-1.4,0.9-1.7,1.1c-0.4,0.2-0.8,0.3-1.3,0.3
		c-1.6,0-2.8-1.3-2.8-2.8c0,0,0-0.1,0-0.1c0-0.7,0.1-1.4,0.2-1.7c0.1-0.6,0.2-1.3,0.2-1.9C35.3,4.6,30.7,0,25,0
		c-5.7,0-10.3,4.6-10.3,10.3c0,3.5,1.8,6.6,4.5,8.5C19.7,19,20.8,19.8,21.3,20.2"/>
	<path fill="#231F20" d="M59.4,37.5v8.8h1.7c0,0,0-3.5,0-3.8c0.2,0,2.7,0,2.7,0V41c0,0-2.5,0-2.7,0c0-0.2,0-1.7,0-1.9
		c0.2,0,2.7,0,2.7,0v-1.5H59.4"/>
	<path fill="#231F20" d="M72.5,37.5v6c0,1-0.3,1.3-1.3,1.3c-0.9,0-1.3-0.4-1.3-1.3v-6h-1.7v6.4c0,1.2,0.8,2.6,3,2.6
		c2.2,0,3-1.4,3-2.6v-6.4H72.5"/>
	<path fill="#231F20" d="M78.4,37.5v1.6c0,0,1.6,0,1.8,0c0,0.2,0,7.2,0,7.2h1.7c0,0,0-6.9,0-7.2c0.2,0,1.8,0,1.8,0v-1.6H78.4"/>
	<path fill="#231F20" d="M92.2,37.5v6c0,1-0.3,1.3-1.3,1.3c-0.9,0-1.3-0.4-1.3-1.3v-6h-1.7v6.4c0,1.2,0.8,2.6,3,2.6
		c2.2,0,3-1.4,3-2.6v-6.4H92.2"/>
	<path fill="#231F20" d="M104.2,40.3c0-1.3-0.7-2.8-2.8-2.8h-2.7v8.8h1.7c0,0,0-2.9,0-3.5c0.3,0.5,2.3,3.5,2.3,3.5h2
		c0,0-2.2-3.2-2.4-3.5C103.5,42.6,104.2,41.7,104.2,40.3 M100.4,39c0.2,0,0.6,0,0.6,0c1,0,1.4,0.4,1.4,1.3c0,0.8-0.4,1.1-1.3,1.1
		c0,0-0.5,0-0.7,0C100.4,41.3,100.4,39.3,100.4,39z"/>
	<path fill="#231F20" d="M110.5,42.5c0.2,0,3,0,3,0v-1.5c0,0-2.7,0-3,0c0-0.2,0-1.7,0-1.9c0.2,0,2.9,0,2.9,0v-1.5h-4.6v8.8h4.7v-1.5
		c0,0-2.8,0-3,0C110.5,44.5,110.5,42.7,110.5,42.5"/>
	<path fill="#231F20" d="M129.3,37.5v6c0,1-0.3,1.3-1.3,1.3c-0.9,0-1.3-0.4-1.3-1.3v-6h-1.7v6.4c0,1.2,0.8,2.6,3,2.6
		c2.2,0,3-1.4,3-2.6v-6.4H129.3"/>
	<path fill="#231F20" d="M140.1,37.5c0,0,0,4.4,0,5.2c-0.4-0.7-2.5-5.2-2.5-5.2h-1.8v8.8h1.5c0,0,0-4.8,0-5.6
		c0.4,0.7,2.8,5.6,2.8,5.6h1.5v-8.8H140.1"/>
	<rect x="146.9" y="37.5" fill="#231F20" width="1.7" height="8.8"/>
	<path fill="#231F20" d="M157.8,37.5c0,0-1.4,5.2-1.6,5.9c-0.2-0.7-1.6-5.9-1.6-5.9h-1.8l2.6,8.8h1.5l2.6-8.8H157.8"/>
	<path fill="#231F20" d="M165.3,42.5c0.2,0,3,0,3,0v-1.5c0,0-2.7,0-3,0c0-0.2,0-1.7,0-1.9c0.2,0,2.9,0,2.9,0v-1.5h-4.6v8.8h4.7v-1.5
		c0,0-2.8,0-3,0C165.3,44.5,165.3,42.7,165.3,42.5"/>
	<path fill="#231F20" d="M178.7,40.3c0-1.3-0.7-2.8-2.8-2.8h-2.7v8.8h1.7c0,0,0-2.9,0-3.5c0.3,0.5,2.3,3.5,2.3,3.5h2
		c0,0-2.2-3.2-2.4-3.5C178,42.6,178.7,41.7,178.7,40.3 M174.9,39c0.2,0,0.6,0,0.6,0c1,0,1.4,0.4,1.4,1.3c0,0.8-0.4,1.1-1.3,1.1
		c0,0-0.5,0-0.7,0C174.9,41.3,174.9,39.3,174.9,39z"/>
	<path fill="#231F20" d="M185.7,41c-0.8-0.3-1.3-0.5-1.3-1.1c0-0.5,0.2-1,0.9-1c0.8,0,1,0.8,1,1.1l0,0.1h1.6l0-0.1
		c-0.1-1.7-1-2.6-2.5-2.6c-1.5,0-2.6,1-2.6,2.4c0,1.9,1.2,2.4,2.2,2.7c0.8,0.3,1.4,0.5,1.4,1.3c0,0.6-0.4,1.1-1.1,1.1
		c-0.7,0-1-0.4-1.1-1.4l0-0.1h-1.6l0,0.1c0,1.8,1.1,2.9,2.7,2.9c1.6,0,2.7-1.1,2.7-2.7C188,41.8,186.7,41.3,185.7,41"/>
	<rect x="192.6" y="37.5" fill="#231F20" width="1.7" height="8.8"/>
	<path fill="#231F20" d="M198.5,37.5v1.6c0,0,1.6,0,1.8,0c0,0.2,0,7.2,0,7.2h1.7c0,0,0-6.9,0-7.2c0.2,0,1.8,0,1.8,0v-1.6H198.5"/>
	<path fill="#231F20" d="M211.2,37.5c0,0-1.1,2.9-1.3,3.3c-0.2-0.5-1.3-3.3-1.3-3.3h-1.8l2.3,5.3l0,3.5h1.7c0,0,0-3.6,0-3.6
		c0,0,2.3-5.2,2.3-5.2H211.2"/>
	<path fill="#231F20" d="M227.9,37.5c0,0,0,3.2,0,3.4c-0.2,0-2.3,0-2.5,0c0-0.2,0-3.4,0-3.4h-1.7v8.8h1.7c0,0,0-3.6,0-3.8
		c0.2,0,2.3,0,2.5,0c0,0.2,0,3.8,0,3.8h1.7v-8.8H227.9"/>
	<polyline fill="#231F20" points="251.2,37.5 249.2,37.5 247,40.9 247,37.5 245.3,37.5 245.3,46.3 247,46.3 247,43.3 247.7,42.3 
		249.6,46.3 251.4,46.3 248.8,41 251.2,37.5 	"/>
	<path fill="#231F20" d="M258.6,37.4c-2,0-3.3,1.8-3.3,4.5c0,2.8,1.3,4.5,3.3,4.5c2,0,3.3-1.8,3.3-4.5
		C261.9,39.1,260.6,37.4,258.6,37.4 M258.6,44.9c-1,0-1.6-1.1-1.6-3c0-1.9,0.6-3,1.6-3c1,0,1.6,1.1,1.6,3
		C260.2,43.8,259.6,44.9,258.6,44.9z"/>
	<path fill="#231F20" d="M269.6,37.5h-3v8.8h2.6c2.2,0,3.6-1.7,3.6-4.4C272.8,39.2,271.5,37.5,269.6,37.5 M268.3,39c0.2,0,1,0,1,0
		c1.2,0,1.8,1,1.8,2.9c0,1.8-0.7,2.8-1.8,2.8c0,0-0.8,0-1,0C268.3,44.5,268.3,39.3,268.3,39z"/>
	<path fill="#231F20" d="M286.1,37.5v1.6c0,0,1.6,0,1.8,0c0,0.2,0,7.2,0,7.2h1.7c0,0,0-6.9,0-7.2c0.2,0,1.8,0,1.8,0v-1.6H286.1"/>
	<path fill="#231F20" d="M297,44.7c0-0.2,0-2,0-2.3c0.2,0,3,0,3,0v-1.5c0,0-2.7,0-3,0c0-0.2,0-1.7,0-1.9c0.2,0,2.9,0,2.9,0v-1.5
		h-4.6v8.8h4.7v-1.5C300,44.7,297.2,44.7,297,44.7"/>
	<path fill="#231F20" d="M281.3,46.3h1.8l-2.7-8.8h-1.5l-2.7,8.8h1.8l0.4-1.5c0.8,0,1.8,0,2.5,0L281.3,46.3 M278.8,43.3l0.8-3l0.9,3
		C279.9,43.3,279.4,43.3,278.8,43.3z"/>
	<path fill="#231F20" d="M239.2,46.3h1.8l-2.7-8.8h-1.5l-2.7,8.8h1.8l0.4-1.5c0.8,0,1.8,0,2.5,0L239.2,46.3 M236.6,43.3l0.8-3l0.9,3
		C237.7,43.3,237.2,43.3,236.6,43.3z"/>
</g>
<g>
	<path fill="#231F20" d="M11.1,64.3v1.1H6.3v4.1H5.1v-4.1H0.4v-1.1h4.8v-3.9H1v-1.1h9.4v1.1H6.3v3.9H11.1z M2.8,63.8
		c-0.1-0.7-0.6-1.8-1-2.6l1-0.3c0.5,0.8,0.9,1.9,1.1,2.6L2.8,63.8z M10,61.2c0,0.1-0.1,0.1-0.3,0.1c-0.3,0.8-0.9,1.8-1.3,2.5
		c0,0-1-0.4-1-0.4c0.4-0.7,0.9-1.9,1.2-2.7L10,61.2z"/>
	<path fill="#231F20" d="M19.9,61.6c0.1,1.4,0.3,2.7,0.6,3.9c0.6-0.9,1-1.9,1.4-3l1.3,0.4c0,0.1-0.1,0.1-0.3,0.1
		c-0.5,1.4-1.1,2.7-1.9,3.8c0.4,1,0.9,1.7,1.4,1.7c0.3,0,0.5-0.6,0.6-2.2c0.2,0.2,0.6,0.5,0.9,0.6c-0.2,2.1-0.6,2.7-1.5,2.7
		c-0.9,0-1.6-0.6-2.2-1.8c-0.7,0.7-1.5,1.4-2.3,1.9c-0.2-0.2-0.5-0.7-0.7-0.9c1-0.5,1.9-1.3,2.6-2.1c-0.4-1.4-0.7-3.1-0.9-5h-3.9V63
		h2.3l0.2,0l0.6,0c0,0.1,0,0.2,0,0.4c0,2.7-0.1,3.8-0.4,4.1c-0.2,0.3-0.5,0.4-1.5,0.4c-0.2,0-0.4,0-0.7,0c0-0.3-0.1-0.8-0.3-1
		c0.5,0,1,0.1,1.2,0.1c0.2,0,0.3,0,0.4-0.1c0.1-0.2,0.2-0.9,0.2-2.7h-2.1c0,1.7-0.2,4.1-1.4,5.6c-0.2-0.2-0.6-0.6-0.9-0.7
		c1-1.4,1.1-3.5,1.1-5v-3.3h5c0-0.7-0.1-1.3-0.1-2l1.4,0.1c0,0.1-0.1,0.2-0.3,0.2c0,0.6,0,1.1,0,1.7h2.5c-0.4-0.4-1.2-0.9-1.8-1.3
		l0.7-0.7c0.7,0.4,1.5,0.9,2,1.3l-0.6,0.6h1v1.1H19.9z"/>
	<path fill="#231F20" d="M34.3,68.5h-5.4v-0.8l0.9-1c1.9-1.9,2.9-3.1,2.9-4.5c0-0.9-0.4-1.6-1.5-1.6c-0.7,0-1.3,0.4-1.7,0.7l-0.4-1
		c0.5-0.4,1.4-0.8,2.4-0.8c1.8,0,2.6,1.2,2.6,2.6c0,1.6-1.1,3-2.7,4.5l-0.7,0.7v0h3.6V68.5z"/>
	<path fill="#231F20" d="M40.7,64.5c-0.4,0.5-1,0.8-1.8,0.8c-1.4,0-2.5-1.1-2.5-2.7c0-1.7,1.1-3.1,2.9-3.1c1.8,0,2.8,1.5,2.8,3.7
		c0,2.8-1.4,5.1-4,5.4c-0.4,0.1-0.7,0.1-1,0.1v-1.1c0.3,0,0.5,0,0.9,0C39.9,67.2,40.5,65.6,40.7,64.5L40.7,64.5z M37.8,62.5
		c0,1,0.5,1.8,1.4,1.8c0.6,0,1.2-0.4,1.4-0.8c0.1-0.1,0.1-0.3,0.1-0.5c0-1.5-0.5-2.5-1.5-2.5C38.3,60.5,37.8,61.3,37.8,62.5z"/>
	<path fill="#231F20" d="M58,65.9v1.1h-4.2v2.6h-1.2v-2.6h-5.5v-1.1h1.9v-3.2h3.5V61h-2.8c-0.5,0.9-1.2,1.7-1.8,2.3
		c-0.2-0.2-0.6-0.6-0.9-0.8c1.1-0.9,2.1-2.5,2.6-4.1l1.4,0.4c0,0.1-0.1,0.2-0.3,0.1c-0.1,0.3-0.3,0.6-0.4,0.9h7V61h-3.6v1.7h3.3v1
		h-3.3v2.1H58z M50.2,65.9h2.4v-2.1h-2.4V65.9z"/>
	<path fill="#231F20" d="M61.8,60.7v2.4c0,1.9-0.2,4.7-1.2,6.5c-0.2-0.2-0.7-0.5-0.9-0.6c1-1.7,1.1-4.1,1.1-5.9v-3.4h4.3v-1.2
		l1.4,0.1c0,0.1-0.1,0.2-0.3,0.2v0.9h4.5v1H61.8z M69.1,65.3l0.7,0.3c0,0.1-0.1,0.1-0.1,0.1c-0.5,0.9-1.2,1.7-2.2,2.2
		c1,0.3,2.1,0.5,3.3,0.6c-0.2,0.2-0.5,0.7-0.6,1c-1.4-0.2-2.7-0.5-3.8-1c-1.2,0.5-2.6,0.8-4.1,1c-0.1-0.3-0.3-0.7-0.5-0.9
		c1.2-0.1,2.4-0.3,3.5-0.7c-0.7-0.4-1.2-0.9-1.7-1.5l0.6-0.2h-1.9v-0.9h6.6L69.1,65.3z M68.7,64.6H64v-1.9h-1.8v-0.9H64v-1l1.3,0.1
		c0,0.1-0.1,0.2-0.3,0.2v0.7h2.5v-1l1.4,0.1c0,0.1-0.1,0.2-0.3,0.2v0.7h2v0.9h-2V64.6z M64.7,66.2c0.4,0.5,1,0.9,1.7,1.3
		c0.7-0.3,1.3-0.8,1.8-1.3H64.7z M67.6,62.7h-2.5v1h2.5V62.7z"/>
	<path fill="#231F20" d="M87.4,59.2h7.9v10.1h-1.2v-0.7h-5.5v0.8h-1.1V59.2z M94.1,60.4h-5.5v3h5.5V60.4z M88.6,67.5h5.5v-3h-5.5
		V67.5z"/>
	<path fill="#231F20" d="M108.9,62.1h-4c1,1.9,2.6,3.7,4.4,4.6c-0.3,0.2-0.7,0.7-0.8,1c-1.7-1-3.2-2.7-4.3-4.6v3.2h2.2v1.1h-2.2v2.1
		H103v-2.1h-2.2v-1.1h2.2v-3.2c-1.1,2-2.5,3.6-4.2,4.7c-0.2-0.3-0.6-0.7-0.8-0.9c1.8-0.9,3.4-2.8,4.4-4.7h-3.9v-1.1h4.6v-2.4
		l1.5,0.1c0,0.1-0.1,0.2-0.3,0.2v2.1h4.6V62.1z"/>
	<path fill="#231F20" d="M111.4,63.7v-1.1h9.3v1.1h-3.7l0.2,0.1c0,0.1-0.1,0.1-0.3,0.2c-0.3,2-1.2,4.1-3.6,5.3
		c-0.2-0.2-0.6-0.6-0.9-0.8c2.3-1.2,3-2.8,3.3-4.7H111.4z M119.7,60.7c-0.2-0.4-0.5-0.8-0.8-1.2v1.1h-6.5v-1.1h6.5
		c-0.2-0.2-0.3-0.4-0.5-0.5l0.6-0.4c0.5,0.5,1,1.3,1.3,1.8L119.7,60.7z M121.2,60.3c-0.2-0.5-0.8-1.3-1.3-1.7l0.5-0.4
		c0.5,0.5,1,1.2,1.3,1.7L121.2,60.3z"/>
	<path fill="#231F20" d="M133.5,62.6h-2.4v0.6c0,2.4-0.8,4.6-3.7,6c-0.2-0.2-0.6-0.6-0.9-0.8c2.8-1.2,3.4-3.2,3.4-5.1v-0.6h-3.3v2.7
		h-1.2v-2.7h-2.2v-1.1h2.2V59l1.5,0.1c0,0.1-0.1,0.2-0.3,0.3v2.1h3.3v-2.6l1.5,0.1c0,0.1-0.1,0.2-0.3,0.2v2.3h2.4V62.6z M131.8,59.3
		c0.5,0.4,1,1,1.3,1.5l-0.5,0.4c-0.3-0.5-0.8-1.2-1.3-1.6L131.8,59.3z M133,58.3c0.5,0.5,1,1,1.3,1.6l-0.5,0.4
		c-0.3-0.5-0.8-1.1-1.3-1.6L133,58.3z"/>
	<path fill="#231F20" d="M144.8,59.8c-0.1,0.1-0.1,0.1-0.3,0.1c0,0-0.1,0-0.1,0c-0.9,0.9-2.1,1.9-3.3,2.7c0.1,0,0.2,0.1,0.3,0.1
		c0,0.1-0.1,0.2-0.3,0.2v6.2h-1.2v-5.8c-1.2,0.8-2.7,1.7-4.2,2.4c-0.2-0.3-0.5-0.7-0.7-0.9c3.1-1.4,6.7-3.9,8.5-6L144.8,59.8z"/>
	<path fill="#231F20" d="M148.1,59.7c1.2,0.4,2.6,1,3.5,1.6l-0.6,1.1c-0.8-0.6-2.3-1.2-3.4-1.6L148.1,59.7z M147.8,67.8
		c4.1-1.2,6.8-3.6,8.2-6.8c0.3,0.3,0.7,0.5,1.1,0.7c-1.5,3.2-4.3,5.7-8.3,7.1c0,0.1-0.1,0.2-0.2,0.3L147.8,67.8z"/>
	<path fill="#231F20" d="M170,65.4v1h-4.7v1.9c0,1.2-0.6,1.3-2.9,1.3c-0.1-0.3-0.3-0.8-0.5-1.1c0.5,0,1,0,1.4,0c0.8,0,0.8,0,0.8-0.2
		v-1.9h-4.7v-1h4.7v-0.9l0.6,0c0.4-0.3,0.9-0.6,1.2-0.9h-4.5v-1h5.6l0.2,0l0.9,0.5c0,0.1-0.1,0.1-0.2,0.1c-0.6,0.6-1.7,1.5-2.7,2
		v0.2H170z M160.7,61.4v1.8h-1v-2.8h1.7c-0.2-0.4-0.6-1-0.9-1.4l1-0.4c0.4,0.5,0.9,1.2,1.1,1.7l-0.3,0.2h2.1
		c-0.2-0.5-0.5-1.1-0.8-1.6l1-0.4c0.4,0.6,0.8,1.3,1,1.8l-0.4,0.2h1.8c0.4-0.6,0.9-1.3,1.2-1.9c1.2,0.4,1.2,0.5,1.3,0.5
		c0,0.1-0.1,0.1-0.3,0.1c-0.2,0.4-0.6,0.8-1,1.3h1.8v2.8h-1.1v-1.8H160.7z"/>
	<path fill="#231F20" d="M174.8,63.2v-0.9c-0.6,0.5-1.4,0.9-2.1,1.3c-0.1-0.3-0.4-0.7-0.7-0.9c2.1-0.9,4-2.7,5-4.2l1.5,0.1
		c0,0.1-0.1,0.2-0.3,0.2c1.1,1.5,3.2,3,5,3.7c-0.3,0.3-0.5,0.7-0.7,1c-0.7-0.3-1.4-0.8-2.1-1.3v0.9H174.8z M172.7,65.5v-1h9.9v1H177
		l0.3,0.1c0,0.1-0.2,0.1-0.3,0.1c-0.3,0.7-0.7,1.5-1.2,2.3c1.4,0,2.9-0.1,4.4-0.1c-0.5-0.5-1-1.1-1.5-1.5l1-0.5
		c1.1,0.9,2.2,2.2,2.8,3.1l-1,0.6c-0.1-0.2-0.3-0.5-0.5-0.8c-2.8,0.2-5.7,0.3-7.5,0.4c0,0.1-0.1,0.2-0.2,0.2l-0.4-1.3
		c0.5,0,1.1,0,1.7,0c0.4-0.8,0.9-1.7,1.2-2.5H172.7z M180.3,62.1c-1.1-0.8-2.1-1.7-2.7-2.5c-0.6,0.8-1.5,1.7-2.5,2.5H180.3z"/>
	<path fill="#231F20" d="M188.4,63.6c0.4,0.4,1.5,1.5,1.7,1.8l-0.6,0.9c-0.2-0.4-0.7-1-1.1-1.6v4.8h-1.1v-4.9
		c-0.5,1.1-1.1,2.2-1.7,2.9c-0.1-0.3-0.4-0.8-0.6-1.1c0.8-0.8,1.5-2.2,2-3.5h-1.9v-1h2.1v-1.7c-0.6,0.1-1.2,0.3-1.8,0.4
		c0-0.2-0.2-0.6-0.3-0.8c1.5-0.3,3.1-0.8,4-1.3l0.9,0.8c0,0-0.1,0-0.3,0c-0.4,0.2-0.9,0.4-1.5,0.6v2h1.6v1h-1.6V63.6z M193.7,58.6
		c0,0.1-0.1,0.2-0.3,0.3V63c0,1.2,0.5,4,2.9,5.5c-0.2,0.2-0.5,0.7-0.7,1c-1.8-1.2-2.6-3.4-2.7-4.4h0c-0.2,1-0.9,3.2-2.8,4.4
		c-0.1-0.3-0.5-0.8-0.7-1c2.4-1.5,3-4.4,3-5.6v-4.5L193.7,58.6z M191.5,61.3c-0.1,1.3-0.3,2.6-1.1,3.4l-0.8-0.6
		c0.6-0.6,0.9-1.7,0.9-2.9L191.5,61.3z M196.2,61.6c0,0.1-0.2,0.1-0.3,0.1c-0.3,0.9-0.8,2.1-1.3,2.8c0,0-0.8-0.4-0.8-0.4
		c0.4-0.8,0.9-2.1,1.2-3.1L196.2,61.6z"/>
	<path fill="#231F20" d="M204.2,63.9h-1.1v-1.8c-0.7,0.7-1.6,1.4-2.6,2h5.4c0.2-0.1,0.2-0.1,0.2-0.1c0,0,0.1,0.1,0.8,0.5
		c0,0.1-0.1,0.1-0.2,0.1c-0.6,0.5-1.6,1.1-2.5,1.5v0h4.8v1h-4.8v1.3c0,1.1-0.6,1.2-2.8,1.2c-0.1-0.3-0.2-0.7-0.4-1
		c0.4,0,0.8,0,1.1,0c0.9,0,1,0,1-0.2v-1.2h-4.7v-1h4.7v-0.7l0.5,0c0.4-0.2,0.7-0.4,1.1-0.6h-4.3v-0.8c-0.6,0.3-1.1,0.6-1.7,0.8
		c-0.2-0.3-0.5-0.6-0.7-0.9c1.4-0.4,2.9-1.2,3.9-2.1h-3.6v-0.9h4.7v-1c-1.2,0.1-2.5,0.2-3.7,0.2c0-0.2-0.2-0.7-0.3-0.9
		c2.7-0.1,6-0.3,7.7-0.7l1,0.8c0,0-0.1,0-0.2,0c0,0-0.1,0-0.1,0c-0.9,0.2-2.1,0.4-3.3,0.5v1.1h4.8v0.9h-3.6c1,0.9,2.5,1.6,3.9,2
		c-0.2,0.2-0.5,0.6-0.7,0.9c-1.5-0.5-3.2-1.6-4.3-2.7V63.9z"/>
	<path fill="#231F20" d="M217.4,58.5c0,0.1-0.1,0.2-0.3,0.2c1.1,1.6,3.2,3.4,5.1,4.2c-0.3,0.3-0.5,0.7-0.7,1c-1.9-1.1-3.9-2.8-5-4.4
		c-1,1.5-2.9,3.3-4.9,4.4c-0.2-0.2-0.5-0.6-0.7-0.9c2.1-1.1,4.1-3.1,5-4.7L217.4,58.5z M217.2,65.5v2.7h4.4v1h-10.2v-1h1.4v-4.3
		l1.4,0.1c0,0.1-0.1,0.2-0.3,0.2v4h2v-6.4l1.5,0.1c0,0.1-0.1,0.2-0.3,0.2v2.4h3.3v1H217.2z"/>
	<path fill="#231F20" d="M224.1,59.2h10.6v1h-4.8v1.2h2.3v5.4h-5.7v-5.4h2.3v-1.2h-4.7V59.2z M233.3,67.8v-6.4l1.4,0.1
		c0,0.1-0.1,0.2-0.3,0.2v7.9h-1.1v-0.7h-7.7v0.7h-1.1v-8.2l1.4,0.1c0,0.1-0.1,0.2-0.3,0.2v6.2H233.3z M227.5,62.4v1.3h1.4v-1.3
		H227.5z M227.5,64.6v1.3h1.4v-1.3H227.5z M231.3,63.7v-1.3h-1.4v1.3H231.3z M231.3,65.9v-1.3h-1.4v1.3H231.3z"/>
	<path fill="#231F20" d="M247.4,63H243c0.7,2.6,2.2,4.6,4.6,5.5c-0.3,0.2-0.6,0.7-0.8,1.1c-2.4-1-3.8-2.8-4.6-5.3
		c-0.6,2.1-1.9,4.1-4.7,5.3c-0.2-0.3-0.5-0.7-0.8-1c3-1.2,4.1-3.3,4.6-5.6h-4.4v-1.2h4.5c0.1-1.1,0.1-2.3,0.1-3.3l1.5,0.1
		c0,0.1-0.1,0.2-0.3,0.2c0,0.9,0,2-0.1,3h4.8V63z"/>
	<path fill="#231F20" d="M252.3,63.2v-0.9c-0.6,0.5-1.4,0.9-2.1,1.3c-0.1-0.3-0.4-0.7-0.7-0.9c2.1-0.9,4-2.7,5-4.2l1.5,0.1
		c0,0.1-0.1,0.2-0.3,0.2c1.1,1.5,3.2,3,5,3.7c-0.3,0.3-0.5,0.7-0.7,1c-0.7-0.3-1.4-0.8-2.1-1.3v0.9H252.3z M250.3,65.5v-1h9.9v1
		h-5.6l0.3,0.1c0,0.1-0.2,0.1-0.3,0.1c-0.3,0.7-0.7,1.5-1.2,2.3c1.4,0,2.9-0.1,4.4-0.1c-0.5-0.5-1-1.1-1.5-1.5l1-0.5
		c1.1,0.9,2.2,2.2,2.8,3.1l-1,0.6c-0.1-0.2-0.3-0.5-0.5-0.8c-2.8,0.2-5.7,0.3-7.5,0.4c0,0.1-0.1,0.2-0.2,0.2l-0.4-1.3
		c0.5,0,1.1,0,1.7,0c0.4-0.8,0.9-1.7,1.2-2.5H250.3z M257.8,62.1c-1.1-0.8-2.1-1.7-2.7-2.5c-0.6,0.8-1.5,1.7-2.5,2.5H257.8z"/>
	<path fill="#231F20" d="M265.7,65.6v0.9h2.1v1h-2.1v2.1h-1.1v-2.1h-2.1v-1h2.1v-0.9H263v-4.1h1.6v-0.9h-2v-1h2v-1.2l1.4,0.1
		c0,0.1-0.1,0.2-0.3,0.2v0.9h2v1h-2v0.9h1.7v4.1H265.7z M264,62.4v0.7h2.3v-0.7H264z M264,64v0.8h2.3V64H264z M271.1,63.4V65h2.3v1
		h-2.3v3.5H270V66h-2.2v-1h2.2v-1.6h-1.3v-0.9c-0.2,0.2-0.4,0.4-0.7,0.6c-0.1-0.3-0.4-0.7-0.6-0.9c1.1-0.9,2.1-2.4,2.6-3.7l1.3,0.1
		c0,0.1-0.1,0.2-0.2,0.2c0.6,1.1,1.7,2.5,2.6,3.2c-0.2,0.3-0.5,0.7-0.6,1c-0.2-0.2-0.4-0.3-0.6-0.5v1H271.1z M272.5,62.3
		c-0.8-0.8-1.5-1.8-1.9-2.7c-0.4,0.8-1,1.9-1.8,2.7H272.5z"/>
	<path fill="#231F20" d="M286.5,65.3v0.9h-1.2v2.1h-1.1v-0.5h-2.6v0.6c0,1.1-0.6,1.2-2.6,1.2c-0.1-0.3-0.2-0.7-0.4-0.9
		c0.3,0,0.7,0,1,0c0.8,0,0.9,0,0.9-0.3v-0.6h-3.8V67h3.8v-0.7h-4.8v-0.9h4.8v-0.7h-3.7v-0.8h3.7v-0.6h-3.3v-2.4h3.3v-0.6h-4.6v-0.9
		h4.6v-0.9l1.4,0.1c0,0.1-0.1,0.2-0.3,0.2v0.6h4.7v0.9h-4.7v0.6h3.5v2.4h-3.5v0.6h3.7v1.5H286.5z M278.1,62.5h2.3v-0.9h-2.3V62.5z
		 M283.9,61.6h-2.4v0.9h2.4V61.6z M281.5,64.7v0.7h2.6v-0.7H281.5z M284.1,67v-0.7h-2.6V67H284.1z"/>
	<path fill="#231F20" d="M291.4,62.8c0.3,0.4,1.3,1.9,1.5,2.2l-0.6,0.8c-0.2-0.4-0.6-1.1-0.9-1.7v5.4h-1v-5.1
		c-0.4,1.2-0.9,2.3-1.4,3c-0.1-0.3-0.4-0.7-0.5-1c0.7-1,1.5-2.8,1.8-4.3h-1.6v-1h1.7v-2.5l1.3,0.1c0,0.1-0.1,0.2-0.3,0.2V61h1.4v1
		h-1.4V62.8z M297.8,61.5c0.8,0.8,1.6,1.8,1.9,2.5l-0.9,0.5c-0.1-0.2-0.2-0.4-0.3-0.6c0,0.1-0.1,0.1-0.3,0.1
		c-0.3,0.9-0.7,1.8-1.3,2.6c0.8,0.8,1.8,1.5,2.9,1.9c-0.3,0.2-0.6,0.7-0.8,1c-1.1-0.5-2-1.1-2.8-2c-0.8,0.8-1.8,1.5-3.1,2
		c-0.1-0.3-0.4-0.7-0.6-0.9c1.3-0.4,2.3-1.1,3-2c-0.6-0.8-1-1.7-1.4-2.8l1-0.3c0.3,0.8,0.7,1.5,1.1,2.2c0.4-0.7,0.8-1.4,1-2.2
		l1.3,0.3c-0.4-0.6-1-1.4-1.5-2L297.8,61.5z M295.6,62c0,0.1-0.1,0.1-0.3,0.1c-0.4,0.8-1.2,1.9-2,2.5c-0.2-0.2-0.5-0.5-0.8-0.7
		c0.7-0.6,1.4-1.6,1.8-2.4L295.6,62z M299.6,60.2v1h-6.6v-1h2.7v-1.7l1.4,0.1c0,0.1-0.1,0.2-0.3,0.2v1.4H299.6z"/>
</g>
</svg>
