<?xml version="1.0" encoding="utf-8"?>
<!-- Generator: Adobe Illustrator 21.0.2, SVG Export Plug-In . SVG Version: 6.00 Build 0)  -->
<svg version="1.1" id="レイヤー_1" xmlns="http://www.w3.org/2000/svg" xmlns:xlink="http://www.w3.org/1999/xlink" x="0px"
	 y="0px" width="30px" height="37px" viewBox="0 0 30 37" enable-background="new 0 0 30 37" xml:space="preserve">
<path fill="#727171" d="M24.5,26.6C27.9,23.8,30,19.7,30,15c0-8.3-6.7-15-15-15S0,6.7,0,15c0,4.7,2.1,8.8,5.5,11.6
	C6,27,6,27,5.5,26.6c-0.4-0.3-0.7-0.6-1.1-1L15,36.2l10.6-10.6C25.3,25.9,24.9,26.3,24.5,26.6C24,27,24,27,24.5,26.6z"/>
<g>
	<path fill="#FFFFFF" d="M7.7,12.3c0-1.1,0.4-2,1-2.6c0.6-0.6,1.4-0.9,2.3-0.9c0.9,0,1.7,0.3,2.3,0.9c0.7,0.6,1,1.5,1,2.6v5.4
		c0,1.1-0.4,2-1,2.6c-0.6,0.6-1.4,0.9-2.3,0.9c-0.9,0-1.7-0.3-2.3-0.9c-0.7-0.6-1-1.5-1-2.6V12.3z M12.7,12.4c0-1.2-0.6-1.8-1.7-1.9
		c-1.1,0-1.6,0.6-1.7,1.9v5.2c0,1.2,0.6,1.9,1.7,1.9c1.1,0,1.6-0.6,1.7-1.9V12.4z"/>
	<path fill="#FFFFFF" d="M15.9,12.3c0-1.1,0.4-2,1-2.6c0.6-0.6,1.4-0.9,2.3-0.9c0.8,0,1.5,0.2,2.1,0.7c0.6,0.5,1,1.2,1.2,2.1h-1.7
		c-0.3-0.7-0.8-1-1.5-1c-1.1,0-1.6,0.6-1.7,1.9v1.1c0.8-0.3,1.6-0.4,2.3-0.4c0.8,0,1.4,0.3,2,0.8c0.5,0.5,0.8,1.4,0.8,2.6v1.1
		c0,1.1-0.4,2-1,2.6c-0.6,0.6-1.4,0.9-2.3,0.9c-0.9,0-1.7-0.3-2.3-0.9c-0.7-0.6-1-1.5-1-2.6V12.3z M17.6,17.5c0,1.2,0.6,1.9,1.7,1.9
		c1.1,0,1.6-0.6,1.7-1.9v-1c0-1.2-0.6-1.8-1.7-1.9c-1.1,0-1.6,0.6-1.7,1.9V17.5z"/>
</g>
</svg>
