<?xml version="1.0" encoding="utf-8"?>
<!-- Generator: Adobe Illustrator 21.0.2, SVG Export Plug-In . SVG Version: 6.00 Build 0)  -->
<svg version="1.1" id="レイヤー_1" xmlns="http://www.w3.org/2000/svg" xmlns:xlink="http://www.w3.org/1999/xlink" x="0px"
	 y="0px" width="1191px" height="842px" viewBox="0 0 1191 842" enable-background="new 0 0 1191 842" xml:space="preserve">
<rect x="82" y="210.7" fill="#424142" width="42.7" height="42.7"/>
<circle fill="#424142" cx="103.8" cy="131.8" r="25"/>
<text transform="matrix(1 0 0 1 90.062 141.8281)" fill="#FFFFFF" font-family="'DINAlternate-Bold'" font-size="28.5182px">01</text>
<text transform="matrix(1 0 0 1 90.062 242.7448)" fill="#FFFFFF" font-family="'DINAlternate-Bold'" font-size="28.5182px">01</text>
<rect x="127.6" y="210.7" fill="#424142" width="42.7" height="42.7"/>
<text transform="matrix(1 0 0 1 135.6453 242.7448)" fill="#FFFFFF" font-family="'DINAlternate-Bold'" font-size="28.5182px">02</text>
<rect x="173.2" y="210.7" fill="#424142" width="42.7" height="42.7"/>
<text transform="matrix(1 0 0 1 181.2287 242.7448)" fill="#FFFFFF" font-family="'DINAlternate-Bold'" font-size="28.5182px">03</text>
<rect x="218.8" y="210.7" fill="#424142" width="42.7" height="42.7"/>
<text transform="matrix(1 0 0 1 226.812 242.7448)" fill="#FFFFFF" font-family="'DINAlternate-Bold'" font-size="28.5182px">04</text>
<rect x="264.3" y="210.7" fill="#424142" width="42.7" height="42.7"/>
<text transform="matrix(1 0 0 1 272.3953 242.7448)" fill="#FFFFFF" font-family="'DINAlternate-Bold'" font-size="28.5182px">05</text>
<rect x="309.9" y="210.7" fill="#424142" width="42.7" height="42.7"/>
<text transform="matrix(1 0 0 1 317.9787 242.7448)" fill="#FFFFFF" font-family="'DINAlternate-Bold'" font-size="28.5182px">06</text>
<rect x="355.5" y="210.7" fill="#424142" width="42.7" height="42.7"/>
<text transform="matrix(1 0 0 1 363.562 242.7448)" fill="#FFFFFF" font-family="'DINAlternate-Bold'" font-size="28.5182px">07</text>
<rect x="401.1" y="210.7" fill="#424142" width="42.7" height="42.7"/>
<text transform="matrix(1 0 0 1 409.1454 242.7448)" fill="#FFFFFF" font-family="'DINAlternate-Bold'" font-size="28.5182px">08</text>
<rect x="449" y="210.7" fill="#424142" width="42.7" height="42.7"/>
<text transform="matrix(1 0 0 1 457.0589 242.7448)" fill="#FFFFFF" font-family="'DINAlternate-Bold'" font-size="28.5182px">09</text>
<polygon fill="#424142" points="115.8,151.1 103.8,169.8 91.7,151.1 "/>
<circle fill="#424142" cx="162.2" cy="131.8" r="25"/>
<text transform="matrix(1 0 0 1 148.562 141.8281)" fill="#FFFFFF" font-family="'DINAlternate-Bold'" font-size="28.5182px">02</text>
<polygon fill="#424142" points="174.3,151.1 162.2,169.8 150.2,151.1 "/>
<circle fill="#424142" cx="224.7" cy="131.8" r="25"/>
<text transform="matrix(1 0 0 1 210.9756 141.8281)" fill="#FFFFFF" font-family="'DINAlternate-Bold'" font-size="28.5182px">03</text>
<polygon fill="#424142" points="236.8,151.1 224.7,169.8 212.6,151.1 "/>
<circle fill="#424142" cx="303.2" cy="131.8" r="25"/>
<text transform="matrix(1 0 0 1 289.562 141.8281)" fill="#FFFFFF" font-family="'DINAlternate-Bold'" font-size="28.5182px">04</text>
<polygon fill="#424142" points="315.3,151.1 303.2,169.8 291.2,151.1 "/>
<circle fill="#424142" cx="369.8" cy="131.8" r="25"/>
<text transform="matrix(1 0 0 1 356.062 141.8281)" fill="#FFFFFF" font-family="'DINAlternate-Bold'" font-size="28.5182px">05</text>
<polygon fill="#424142" points="381.8,151.1 369.8,169.8 357.7,151.1 "/>
<circle fill="#424142" cx="426.1" cy="131.8" r="25"/>
<text transform="matrix(1 0 0 1 412.3954 141.8281)" fill="#FFFFFF" font-family="'DINAlternate-Bold'" font-size="28.5182px">06</text>
<polygon fill="#424142" points="438.2,151.1 426.1,169.8 414,151.1 "/>
<circle fill="#424142" cx="482.4" cy="131.8" r="25"/>
<text transform="matrix(1 0 0 1 468.7287 141.8281)" fill="#FFFFFF" font-family="'DINAlternate-Bold'" font-size="28.5182px">07</text>
<polygon fill="#424142" points="494.5,151.1 482.4,169.8 470.3,151.1 "/>
<circle fill="#424142" cx="538.8" cy="131.8" r="25"/>
<text transform="matrix(1 0 0 1 525.062 141.8281)" fill="#FFFFFF" font-family="'DINAlternate-Bold'" font-size="28.5182px">08</text>
<polygon fill="#424142" points="550.8,151.1 538.8,169.8 526.7,151.1 "/>
<circle fill="#424142" cx="595.5" cy="131.8" r="25"/>
<text transform="matrix(1 0 0 1 581.812 141.8281)" fill="#FFFFFF" font-family="'DINAlternate-Bold'" font-size="28.5182px">09</text>
<polygon fill="#424142" points="607.6,151.1 595.5,169.8 583.4,151.1 "/>
<g>
	<path fill="#231F20" d="M935.6,216.6H933v5h-9.7v2.6h9.6c-0.4,3-2.3,8.7-9.4,11.9l1,2.3c5.7-2.5,8.5-6.4,9.8-9.8
		c1.4,3.4,4.1,7.3,9.8,9.8l1-2.3c-7.2-3.1-9-8.8-9.4-11.9h9.9v-2.6h-10V216.6"/>
	<path fill="#231F20" d="M970.3,229.6h-9c1.9-0.9,3.6-2.2,4.6-3.4l0.3-0.3v-1.9h-13.5v2.6c0,0,5.5,0,9,0c-0.8,0.5-1.6,0.9-2.5,1.2
		l-0.9,0.3c0,0,0,0.7,0,1.6h-9.7v2.6h9.7c0,2,0,3.7,0,3.7c0,0,0,0-0.1,0h-3.8v2.6h3.8c1.5,0,2.7-1.2,2.7-2.6c0,0,0-1.9,0-3.7h9.5
		V229.6"/>
	<path fill="#231F20" d="M968.9,219.8h-2.1c0.5-1,0.9-1.9,1.2-2.7l-2.4-0.8c-0.4,1-1,2.4-1.7,3.6h-2.7c-0.3-1.2-0.9-2.7-1.5-3.8
		l-2.3,1.2c0.4,0.8,0.8,1.7,1.1,2.6h-3.7c-0.3-1.2-0.9-2.7-1.5-3.8l-2.3,1.2c0.4,0.8,0.8,1.7,1.1,2.6h-3.6v5h2.6c0,0,0-1.4,0-2.5
		c2.1,0,14.4,0,16.4,0c0,1.1,0,2.5,0,2.5h2.6v-5H968.9"/>
	<path fill="#231F20" d="M911.4,228.6h8.2v-2.6h-4.4c0.6-1.2,1-2.5,1.3-3.6l-2.5-0.6c-0.3,1.3-1.1,3.2-1.7,4.2h-2.1v-4.5h8.7V219
		h-8.7v-2.5h-2.6v2.5h-8.7v2.6h8.7v4.5h-2.4c-0.5-1.6-1.2-3.2-1.8-4.4l-2.2,1.2c0.5,0.8,1,2,1.4,3.2H898v2.6h8.3
		c-1.9,2.5-5.1,5.1-8.5,6.8l1.1,2.3c3.4-1.6,6.6-4.1,8.8-6.7v7.3h2.6v-7.1c2.2,2.5,5.3,4.9,8.6,6.5l1.1-2.3
		C916.5,233.7,913.3,231.2,911.4,228.6"/>
	<path fill="#231F20" d="M886,228.3h7.7v-2.6h-9.4v-4.2h8.3V219h-8.3v-2.5h-2.6v2.5h-8.3v2.6h8.3v4.2h-9.7v2.6h8
		c-1.7,2.6-4.7,5.4-8.2,7.1l1.1,2.3c2.9-1.4,6.5-4.2,8.8-7.4v7.9h2.6v-8c2.3,3.1,5.9,6,8.8,7.4l1.1-2.3
		C890.7,233.7,887.8,230.9,886,228.3"/>
	<path fill="#231F20" d="M795.5,229.7c0-0.1-0.1-5.9-0.1-6.1c0.2,0,4.3,0,4.3,0v-2.8c0,0-4.1,0-4.3,0c0-0.2-0.1-3.8-0.1-3.8l-0.1,0
		l-2.7,0c0,0,0.1,3.5,0.1,3.8c-0.2,0-7,0-7,0v2.8c0,0,6.8,0,7,0c0,0.2,0.1,4.9,0.1,5.2c-0.7-0.1-1.3-0.2-1.8-0.2
		c-3.8,0-5.5,2.4-5.5,4.7c0,2.1,1.7,4.2,5.5,4.2c1.5,0,2.7-0.4,3.6-1.3c0.8-0.8,1.2-1.9,1.2-3.2c0,0,0,0,0-0.1
		c0.9,0.6,1.8,1.4,2.8,2.4l0.1,0.1l2-1.8l-0.1-0.1C798.7,231.7,797.1,230.5,795.5,229.7 M788,233.2c0-1.3,1.1-2,2.8-2
		c0.6,0,1.2,0.1,1.9,0.3c0,0.2,0,1.3,0,1.3c0,0,0,0.1,0,0.1c0,0.6-0.1,1-0.4,1.3c-0.3,0.3-0.8,0.5-1.5,0.5
		C789.6,234.7,788,234.3,788,233.2z"/>
	<path fill="#231F20" d="M783,218l0-0.1l-2.8-0.5l0,0.1c-0.9,5.4-0.9,13.8,0,19.7l0,0.1l2.8-0.4l0-0.1C782.2,232,782,223.7,783,218"
		/>
	<path fill="#231F20" d="M811.2,222.2L811.2,222.2l1.6,2.2l0.1-0.1c1.6-1.4,6-2.9,7.9-3.1l0.1,0l0-0.1v-2.7h-15.4v2.8
		c0,0,6.4,0,7.2,0C812.1,221.5,811.6,221.8,811.2,222.2"/>
	<path fill="#231F20" d="M814.5,234.3c-4.9,0-6.9-0.6-7.4-2.4c-0.6-1.9,1.8-4.4,1.9-4.5l0.1-0.1l-1.9-1.9l-0.1,0.1
		c-0.1,0.1-2.7,2.8-2.7,5.8c0,0.5,0.1,0.9,0.2,1.4c1.2,4,5.6,4.3,10,4.3c3.7,0,6-0.2,6.8-0.2l0.1,0V234l-0.1,0
		C821.2,234,818.8,234.3,814.5,234.3"/>
	<path fill="#231F20" d="M841.8,216.8h-2.4v3.3c0,0-6.4,0-6.6,0c0.2-1.2,0.3-2.2,0.4-3.1l0-0.1l-2.8-0.2l0,0.1
		c-0.1,0.9-0.2,2-0.4,3.3c-0.2,0-3.9,0-3.9,0v2.8c0,0,3.1,0,3.4,0c-1,4.7-2.7,9.9-4.2,13.3l-0.1,0.1l2.6,1.1l0-0.1
		c1.7-3.7,3.5-9.4,4.5-14.5c0.2,0,9.6,0,9.6,0V216.8"/>
	<polyline fill="#231F20" points="835.4,227.1 845,227.1 845,224.2 835.4,224.2 835.4,227.1 	"/>
	<polyline fill="#231F20" points="843,216.8 843,222.9 845.5,222.9 845.5,216.8 843,216.8 	"/>
	<path fill="#231F20" d="M845.4,234.3l-4.4,0.1c-3.9,0-4.8-0.2-5.2-1.4c-0.3-0.9,0.7-2,1-2.3l0.1-0.1l-1.7-2.1l-0.1,0.1
		c-1.1,0.9-2.6,3.1-1.9,5.3l0,0c1,3.3,4.3,3.3,7.8,3.3l4.4-0.1l0-0.1V234.3"/>
	<path fill="#231F20" d="M868.8,218.9h-19.7v2.8c0,0,9.1,0,9.9,0c-2.9,1.6-5.6,5.2-5.6,8.6c0,0.4,0,0.9,0.1,1.3
		c0.5,2.1,2.8,5.7,12.5,5.7h0.1v-2.8h-0.1c-6.2,0-9.8-1.7-9.9-4.6c-0.1-3.5,5.4-8,11.8-8.2h1v-2.8H868.8"/>
	<path fill="#231F20" d="M774.3,219.7c0,0-8.5,0-8.7,0c0-0.2,0-3,0-3h-2.8c0,0,0,2.8,0,3c-0.2,0-8.7,0-8.7,0v2.8h20.2V219.7"/>
	<path fill="#231F20" d="M759.5,223.3l-0.1,0l-2.5,1l0,0.1c1.1,2.7,2,7.3,2.2,9.6l0,0.1l2.7-0.2l0-0.1c-0.2-2.8-1.3-7.7-2.4-10.5
		L759.5,223.3"/>
	<path fill="#231F20" d="M771,223.8l0-0.1l-2.7-0.5l0,0.1c-1.3,6.2-2.6,9.8-3.3,11.5c-0.2,0-11.8,0-11.8,0v2.8h22.1v-2.8
		c0,0-7,0-7.3,0C768.8,232.7,769.9,229.2,771,223.8"/>
	<path fill="#231F20" d="M729.7,226.8c2.2-1.9,5.3-5.4,6.9-8.6l0.1-0.1l-2.5-1.3l-0.1,0.1c-1.4,2.7-4.2,6-6.3,7.8l-0.1,0.1
		L729.7,226.8L729.7,226.8"/>
	<path fill="#231F20" d="M743.7,216.9l-0.1-0.1l-0.1,0.1l-2.4,1.2l0.1,0.1c1.5,2.8,4.4,6.5,6.9,8.7l0.1,0.1l1.9-2.1l-0.1-0.1
		C747.7,222.8,745,219.4,743.7,216.9"/>
	<path fill="#231F20" d="M744,228.4L744,228.4l-2.3,1.6l0.4,0.5c0.7,1,1.5,1.9,2.2,3c-0.4,0-8,1-8.5,1c1.6-3.2,3.4-7.9,4-10.4l0-0.1
		l-2.8-0.6l0,0.1c-0.6,2.9-3.1,9.1-4.7,11.4c-0.1,0-2.8,0.3-2.8,0.3l0.3,2.8c0,0,15.8-1.9,15.9-1.9c0.1,0.1,1.2,2.2,1.2,2.2l0.1-0.1
		l2.4-1.2l-0.1-0.1C747.9,234,745.9,231,744,228.4"/>
	<path fill="#B8282F" d="M691.6,226.4c0.9,0.8,1.5,2,1.5,3.3c0,2.4-1.9,4.3-4.3,4.3c-1.8,0-3.4-1.1-4-2.7c-0.3-0.7-0.4-1.3-0.6-2
		c-0.8-3-3.6-5.2-6.8-5.2c-3.9,0-7.1,3.2-7.1,7.1c0,3.7,2.9,6.8,6.6,7c0.9,0.1,1.5,0,2.2,0c2.1,0.1,3.8,1.8,3.8,4
		c0,0.9-0.3,1.7-0.8,2.4c-0.5,0.6-1.2,1.2-1.6,1.7c-0.8,1-1.3,2.2-1.3,3.6c0,3,2.4,5.5,5.5,5.5c1.8,0,3.5-0.9,4.4-2.3
		c0.2-0.3,0.9-1.4,1.1-1.7c0.8-1.2,2.1-2,3.7-2c1.4,0,2.5,0.7,3.4,1.6c0.3,0.4,0.7,1,1.2,1.9c1.6,2.6,4.5,4.5,7.8,4.5c5,0,9-4,9-9
		c0-2.1-0.7-4-1.9-5.5c-0.5-0.6-1.1-1.3-1.5-1.8c-0.5-0.7-0.8-1.5-0.8-2.3c0-1.8,1.2-3.3,2.8-3.8c0.6-0.2,1.2-0.2,2-0.4
		c3.2-0.6,5.6-3.5,5.6-6.9c0-3.9-3.1-7-7-7c-1.2,0-2.4,0.4-3.4,0.9c-0.5,0.3-1.4,0.9-1.7,1.1c-0.4,0.2-0.8,0.3-1.3,0.3
		c-1.6,0-2.8-1.3-2.8-2.8c0,0,0-0.1,0-0.1c0-0.7,0.1-1.4,0.2-1.7c0.1-0.6,0.2-1.3,0.2-1.9c0-5.7-4.6-10.3-10.3-10.3
		c-5.7,0-10.3,4.6-10.3,10.3c0,3.5,1.8,6.6,4.5,8.5C690,225.2,691.2,226,691.6,226.4"/>
	<path fill="#231F20" d="M729.8,243.7v8.8h1.7c0,0,0-3.5,0-3.8c0.2,0,2.7,0,2.7,0v-1.5c0,0-2.5,0-2.7,0c0-0.2,0-1.7,0-1.9
		c0.2,0,2.7,0,2.7,0v-1.5H729.8"/>
	<path fill="#231F20" d="M742.8,243.7v6c0,1-0.3,1.3-1.3,1.3c-0.9,0-1.3-0.4-1.3-1.3v-6h-1.7v6.4c0,1.2,0.8,2.6,3,2.6
		c2.2,0,3-1.4,3-2.6v-6.4H742.8"/>
	<path fill="#231F20" d="M748.7,243.7v1.6c0,0,1.6,0,1.8,0c0,0.2,0,7.2,0,7.2h1.7c0,0,0-6.9,0-7.2c0.2,0,1.8,0,1.8,0v-1.6H748.7"/>
	<path fill="#231F20" d="M762.5,243.7v6c0,1-0.3,1.3-1.3,1.3c-0.9,0-1.3-0.4-1.3-1.3v-6h-1.7v6.4c0,1.2,0.8,2.6,3,2.6
		c2.2,0,3-1.4,3-2.6v-6.4H762.5"/>
	<path fill="#231F20" d="M774.5,246.5c0-1.3-0.7-2.8-2.8-2.8H769v8.8h1.7c0,0,0-2.9,0-3.5c0.3,0.5,2.3,3.5,2.3,3.5h2
		c0,0-2.2-3.2-2.4-3.5C773.8,248.8,774.5,247.9,774.5,246.5 M770.7,245.2c0.2,0,0.6,0,0.6,0c1,0,1.4,0.4,1.4,1.3
		c0,0.8-0.4,1.1-1.3,1.1c0,0-0.5,0-0.7,0C770.7,247.5,770.7,245.4,770.7,245.2z"/>
	<path fill="#231F20" d="M780.8,248.7c0.2,0,3,0,3,0v-1.5c0,0-2.7,0-3,0c0-0.2,0-1.7,0-1.9c0.2,0,2.9,0,2.9,0v-1.5h-4.6v8.8h4.7
		v-1.5c0,0-2.8,0-3,0C780.8,250.7,780.8,248.9,780.8,248.7"/>
	<path fill="#231F20" d="M799.6,243.7v6c0,1-0.3,1.3-1.3,1.3c-0.9,0-1.3-0.4-1.3-1.3v-6h-1.7v6.4c0,1.2,0.8,2.6,3,2.6
		c2.2,0,3-1.4,3-2.6v-6.4H799.6"/>
	<path fill="#231F20" d="M810.4,243.7c0,0,0,4.4,0,5.2c-0.4-0.7-2.5-5.2-2.5-5.2h-1.8v8.8h1.5c0,0,0-4.8,0-5.6
		c0.4,0.7,2.8,5.6,2.8,5.6h1.5v-8.8H810.4"/>
	<rect x="817.2" y="243.7" fill="#231F20" width="1.7" height="8.8"/>
	<path fill="#231F20" d="M828.1,243.7c0,0-1.4,5.2-1.6,5.9c-0.2-0.7-1.6-5.9-1.6-5.9h-1.8l2.6,8.8h1.5l2.6-8.8H828.1"/>
	<path fill="#231F20" d="M835.6,248.7c0.2,0,3,0,3,0v-1.5c0,0-2.7,0-3,0c0-0.2,0-1.7,0-1.9c0.2,0,2.9,0,2.9,0v-1.5h-4.6v8.8h4.7
		v-1.5c0,0-2.8,0-3,0C835.6,250.7,835.6,248.9,835.6,248.7"/>
	<path fill="#231F20" d="M849,246.5c0-1.3-0.7-2.8-2.8-2.8h-2.7v8.8h1.7c0,0,0-2.9,0-3.5c0.3,0.5,2.3,3.5,2.3,3.5h2
		c0,0-2.2-3.2-2.4-3.5C848.3,248.8,849,247.9,849,246.5 M845.3,245.2c0.2,0,0.6,0,0.6,0c1,0,1.4,0.4,1.4,1.3c0,0.8-0.4,1.1-1.3,1.1
		c0,0-0.5,0-0.7,0C845.3,247.5,845.3,245.4,845.3,245.2z"/>
	<path fill="#231F20" d="M856,247.2c-0.8-0.3-1.3-0.5-1.3-1.1c0-0.5,0.2-1,0.9-1c0.8,0,1,0.8,1,1.1l0,0.1h1.6l0-0.1
		c-0.1-1.7-1-2.6-2.5-2.6c-1.5,0-2.6,1-2.6,2.4c0,1.9,1.2,2.4,2.2,2.7c0.8,0.3,1.4,0.5,1.4,1.3c0,0.6-0.4,1.1-1.1,1.1
		c-0.7,0-1-0.4-1.1-1.4l0-0.1h-1.6l0,0.1c0,1.8,1.1,2.9,2.7,2.9c1.6,0,2.7-1.1,2.7-2.7C858.3,247.9,857,247.5,856,247.2"/>
	<rect x="862.9" y="243.7" fill="#231F20" width="1.7" height="8.8"/>
	<path fill="#231F20" d="M868.8,243.7v1.6c0,0,1.6,0,1.8,0c0,0.2,0,7.2,0,7.2h1.7c0,0,0-6.9,0-7.2c0.2,0,1.8,0,1.8,0v-1.6H868.8"/>
	<path fill="#231F20" d="M881.6,243.7c0,0-1.1,2.9-1.3,3.3c-0.2-0.5-1.3-3.3-1.3-3.3h-1.8l2.3,5.3l0,3.5h1.7c0,0,0-3.6,0-3.6
		c0,0,2.3-5.2,2.3-5.2H881.6"/>
	<path fill="#231F20" d="M898.2,243.7c0,0,0,3.2,0,3.4c-0.2,0-2.3,0-2.5,0c0-0.2,0-3.4,0-3.4H894v8.8h1.7c0,0,0-3.6,0-3.8
		c0.2,0,2.3,0,2.5,0c0,0.2,0,3.8,0,3.8h1.7v-8.8H898.2"/>
	<polyline fill="#231F20" points="921.6,243.7 919.5,243.7 917.4,247.1 917.4,243.7 915.7,243.7 915.7,252.5 917.4,252.5 
		917.4,249.5 918,248.5 919.9,252.5 921.8,252.5 919.2,247.1 921.6,243.7 	"/>
	<path fill="#231F20" d="M929,243.5c-2,0-3.3,1.8-3.3,4.5s1.3,4.5,3.3,4.5c2,0,3.3-1.8,3.3-4.5S931,243.5,929,243.5 M929,251.1
		c-1,0-1.6-1.1-1.6-3c0-1.9,0.6-3,1.6-3c1,0,1.6,1.1,1.6,3C930.5,249.9,929.9,251.1,929,251.1z"/>
	<path fill="#231F20" d="M939.9,243.7h-3v8.8h2.6c2.2,0,3.6-1.7,3.6-4.4C943.1,245.4,941.9,243.7,939.9,243.7 M938.6,245.2
		c0.2,0,1,0,1,0c1.2,0,1.8,1,1.8,2.9c0,1.8-0.7,2.8-1.8,2.8c0,0-0.8,0-1,0C938.6,250.7,938.6,245.4,938.6,245.2z"/>
	<path fill="#231F20" d="M956.4,243.7v1.6c0,0,1.6,0,1.8,0c0,0.2,0,7.2,0,7.2h1.7c0,0,0-6.9,0-7.2c0.2,0,1.8,0,1.8,0v-1.6H956.4"/>
	<path fill="#231F20" d="M967.3,250.9c0-0.2,0-2,0-2.3c0.2,0,3,0,3,0v-1.5c0,0-2.7,0-3,0c0-0.2,0-1.7,0-1.9c0.2,0,2.9,0,2.9,0v-1.5
		h-4.6v8.8h4.7v-1.5C970.3,250.9,967.6,250.9,967.3,250.9"/>
	<path fill="#231F20" d="M951.6,252.5h1.8l-2.7-8.8h-1.5l-2.7,8.8h1.8l0.4-1.5c0.8,0,1.8,0,2.5,0L951.6,252.5 M949.1,249.4l0.8-3
		l0.9,3C950.2,249.4,949.7,249.4,949.1,249.4z"/>
	<path fill="#231F20" d="M909.5,252.5h1.8l-2.7-8.8H907l-2.7,8.8h1.8l0.4-1.5c0.8,0,1.8,0,2.5,0L909.5,252.5 M906.9,249.4l0.8-3
		l0.9,3C908,249.4,907.5,249.4,906.9,249.4z"/>
</g>
<text transform="matrix(1 0 0 1 670.3252 278.478)"><tspan x="0" y="0" fill="#231F20" font-family="'KozGoPr6N-Medium-83pv-RKSJ-H'" font-size="11.7955px">平</tspan><tspan x="12.5" y="0" fill="#231F20" font-family="'KozGoPr6N-Medium-83pv-RKSJ-H'" font-size="11.7955px" letter-spacing="4">成</tspan><tspan x="28.5" y="0" fill="#231F20" font-family="'KozGoPr6N-Medium-83pv-RKSJ-H'" font-size="11.7955px">2</tspan><tspan x="36.1" y="0" fill="#231F20" font-family="'KozGoPr6N-Medium-83pv-RKSJ-H'" font-size="11.7955px" letter-spacing="4">9</tspan><tspan x="46.9" y="0" fill="#231F20" font-family="'KozGoPr6N-Medium-83pv-RKSJ-H'" font-size="11.7955px">年</tspan><tspan x="59.6" y="0" fill="#231F20" font-family="'KozGoPr6N-Medium-83pv-RKSJ-H'" font-size="11.7955px" letter-spacing="1">度　</tspan><tspan x="85.6" y="0" fill="#231F20" font-family="'KozGoPr6N-Medium-83pv-RKSJ-H'" font-size="11.7955px">日</tspan><tspan x="97.9" y="0" fill="#231F20" font-family="'KozGoPr6N-Medium-83pv-RKSJ-H'" font-size="11.7955px">本</tspan><tspan x="110.3" y="0" fill="#231F20" font-family="'KozGoPr6N-Medium-83pv-RKSJ-H'" font-size="11.7955px">デ</tspan><tspan x="122.7" y="0" fill="#231F20" font-family="'KozGoPr6N-Medium-83pv-RKSJ-H'" font-size="11.7955px">ザ</tspan><tspan x="134.4" y="0" fill="#231F20" font-family="'KozGoPr6N-Medium-83pv-RKSJ-H'" font-size="11.7955px">イ</tspan><tspan x="146.3" y="0" fill="#231F20" font-family="'KozGoPr6N-Medium-83pv-RKSJ-H'" font-size="11.7955px">ン</tspan><tspan x="159" y="0" fill="#231F20" font-family="'KozGoPr6N-Medium-83pv-RKSJ-H'" font-size="11.7955px" letter-spacing="1">学</tspan><tspan x="171.9" y="0" fill="#231F20" font-family="'KozGoPr6N-Medium-83pv-RKSJ-H'" font-size="11.7955px" letter-spacing="1">会</tspan><tspan x="185" y="0" fill="#231F20" font-family="'KozGoPr6N-Medium-83pv-RKSJ-H'" font-size="11.7955px" letter-spacing="1">秋</tspan><tspan x="197.9" y="0" fill="#231F20" font-family="'KozGoPr6N-Medium-83pv-RKSJ-H'" font-size="11.7955px" letter-spacing="1">季</tspan><tspan x="210.8" y="0" fill="#231F20" font-family="'KozGoPr6N-Medium-83pv-RKSJ-H'" font-size="11.7955px" letter-spacing="1">企</tspan><tspan x="223.7" y="0" fill="#231F20" font-family="'KozGoPr6N-Medium-83pv-RKSJ-H'" font-size="11.7955px">画</tspan><tspan x="236.5" y="0" fill="#231F20" font-family="'KozGoPr6N-Medium-83pv-RKSJ-H'" font-size="11.7955px" letter-spacing="1">大</tspan><tspan x="249.4" y="0" fill="#231F20" font-family="'KozGoPr6N-Medium-83pv-RKSJ-H'" font-size="11.7955px" letter-spacing="1">会</tspan><tspan x="262.3" y="0" fill="#231F20" font-family="'KozGoPr6N-Medium-83pv-RKSJ-H'" font-size="11.7955px" letter-spacing="1">幹</tspan><tspan x="275.3" y="0" fill="#231F20" font-family="'KozGoPr6N-Medium-83pv-RKSJ-H'" font-size="11.7955px" letter-spacing="1">事</tspan><tspan x="288.4" y="0" fill="#231F20" font-family="'KozGoPr6N-Medium-83pv-RKSJ-H'" font-size="11.7955px" letter-spacing="1">校</tspan></text>
</svg>
