<?xml version="1.0" encoding="utf-8"?>
<!-- Generator: Adobe Illustrator 21.0.2, SVG Export Plug-In . SVG Version: 6.00 Build 0)  -->
<svg version="1.1" id="レイヤー_1" xmlns="http://www.w3.org/2000/svg" xmlns:xlink="http://www.w3.org/1999/xlink" x="0px"
	 y="0px" width="40px" height="40px" viewBox="0 0 40 40" enable-background="new 0 0 40 40" xml:space="preserve">
<rect fill="#727171" width="40" height="40"/>
<g>
	<path fill="#FFFFFF" d="M7.6,15.5c0-1.9,0.6-3.3,1.7-4.3c1.1-1,2.3-1.5,3.8-1.5c1.5,0,2.8,0.5,3.9,1.5c1.1,1,1.7,2.5,1.7,4.3v9
		c0,1.9-0.6,3.3-1.7,4.3c-1.1,1-2.4,1.5-3.9,1.5c-1.5,0-2.8-0.5-3.8-1.5c-1.1-1-1.7-2.4-1.7-4.3V15.5z M15.9,15.7
		c-0.1-2-1-3.1-2.8-3.1c-1.8,0-2.7,1.1-2.8,3.1v8.6c0,2.1,1,3.1,2.8,3.1c1.8,0,2.7-1.1,2.8-3.1V15.7z"/>
	<path fill="#FFFFFF" d="M21.6,9.8h10.5v2.9h-7.8v4.6c0.9-0.7,2-1.1,3.2-1.1c0.8,0,1.5,0.2,2.1,0.4c0.6,0.3,1.1,0.6,1.4,1.1
		c0.5,0.6,0.9,1.2,1.2,1.9c0.1,0.4,0.2,0.9,0.3,1.5c0.1,0.6,0.1,1.3,0.1,2.2c0,1.3-0.1,2.3-0.3,3c-0.2,0.7-0.5,1.3-0.9,1.9
		c-0.4,0.5-0.9,1-1.7,1.4c-0.7,0.5-1.6,0.7-2.6,0.7c-1.3,0-2.5-0.4-3.7-1.2c-1.1-0.8-1.8-2.2-2.1-4h2.8c0.3,1.6,1.2,2.4,2.8,2.4
		c0.7,0,1.2-0.1,1.6-0.4c0.4-0.3,0.7-0.6,0.8-1.1c0.2-0.4,0.3-0.9,0.3-1.4c0-0.5,0-1,0-1.5c0-1.2-0.2-2.1-0.5-2.8
		c-0.2-0.3-0.5-0.6-0.9-0.8c-0.4-0.2-0.9-0.3-1.4-0.3c-0.5,0-1,0.1-1.4,0.4c-0.4,0.3-0.8,0.7-1.1,1.3h-2.6V9.8z"/>
</g>
</svg>
