<?xml version="1.0" encoding="utf-8"?>
<!-- Generator: Adobe Illustrator 21.0.2, SVG Export Plug-In . SVG Version: 6.00 Build 0)  -->
<svg version="1.1" id="レイヤー_1" xmlns="http://www.w3.org/2000/svg" xmlns:xlink="http://www.w3.org/1999/xlink" x="0px"
	 y="0px" width="30px" height="37px" viewBox="0 0 30 37" enable-background="new 0 0 30 37" xml:space="preserve">
<path fill="#727171" d="M24.5,26.6C27.9,23.8,30,19.7,30,15c0-8.3-6.7-15-15-15S0,6.7,0,15c0,4.7,2.1,8.8,5.5,11.6
	C6,27,6,27,5.5,26.6c-0.4-0.3-0.7-0.6-1.1-1L15,36.2l10.6-10.6C25.3,25.9,24.9,26.3,24.5,26.6C24,27,24,27,24.5,26.6z"/>
<g>
	<path fill="#FFFFFF" d="M7.4,12.3c0-1.1,0.4-2,1-2.6c0.6-0.6,1.4-0.9,2.3-0.9c0.9,0,1.7,0.3,2.3,0.9c0.7,0.6,1,1.5,1,2.6v5.4
		c0,1.1-0.4,2-1,2.6c-0.6,0.6-1.4,0.9-2.3,0.9c-0.9,0-1.7-0.3-2.3-0.9c-0.7-0.6-1-1.5-1-2.6V12.3z M12.4,12.4c0-1.2-0.6-1.8-1.7-1.9
		c-1.1,0-1.6,0.6-1.7,1.9v5.2c0,1.2,0.6,1.9,1.7,1.9c1.1,0,1.6-0.6,1.7-1.9V12.4z"/>
	<path fill="#FFFFFF" d="M17.9,14h0.6c0.6,0,1-0.2,1.3-0.5c0.3-0.3,0.5-0.7,0.5-1.2c0-0.5-0.2-0.9-0.5-1.3c-0.3-0.3-0.7-0.5-1.2-0.5
		c-0.4,0-0.7,0.1-1,0.4c-0.3,0.2-0.5,0.6-0.6,1.1h-1.7c0.1-0.9,0.4-1.7,1.1-2.3c0.6-0.6,1.3-0.9,2.2-0.9c1.1,0,1.9,0.4,2.6,1.1
		c0.6,0.7,0.9,1.5,0.9,2.4c0,0.5-0.1,0.9-0.3,1.4c-0.2,0.4-0.5,0.8-1,1.2c0.5,0.3,0.9,0.7,1.1,1.2c0.2,0.5,0.3,1,0.3,1.5
		c0,1.1-0.4,2-1,2.7c-0.7,0.7-1.5,1-2.6,1c-0.8,0-1.5-0.3-2.1-0.8c-0.6-0.5-1-1.3-1.2-2.3h1.7c0.2,0.4,0.4,0.7,0.6,1
		c0.3,0.3,0.7,0.4,1.1,0.4c0.5,0,0.9-0.2,1.3-0.5c0.3-0.3,0.5-0.8,0.5-1.4c0-0.6-0.2-1.1-0.5-1.4c-0.3-0.3-0.8-0.5-1.3-0.5h-0.7V14z
		"/>
</g>
</svg>
