<?xml version="1.0" encoding="utf-8"?>
<!-- Generator: Adobe Illustrator 21.0.2, SVG Export Plug-In . SVG Version: 6.00 Build 0)  -->
<svg version="1.1" id="レイヤー_1" xmlns="http://www.w3.org/2000/svg" xmlns:xlink="http://www.w3.org/1999/xlink" x="0px"
	 y="0px" width="357.9px" height="82.1px" viewBox="0 0 357.9 82.1" enable-background="new 0 0 357.9 82.1" xml:space="preserve">
<g>
	<g>
		<path d="M16.4,65.4v1.5H9.3v7h7.8v1.5H9.3v6.6H7.7v-6.6H0v-1.5h7.7v-7h-7v-1.5H16.4z M3.6,73c-0.6-2.2-1.6-4.2-2-4.8l1.4-0.5
			c1.3,2.2,1.8,4,2,4.8L3.6,73z M11.6,72.7c0.6-0.9,1.3-2.2,2.1-5l1.5,0.4c-1.1,3.2-1.9,4.5-2.3,5.1L11.6,72.7z"/>
		<path d="M31.3,64.8c1.2,0.7,2,1.2,2.8,1.9l-0.9,1.1h1.7v1.4h-5.8c0.1,2,0.4,4.8,1,6.8c1.2-1.8,1.8-3.3,2.4-5.5l1.5,0.5
			c-0.4,1.3-1.3,4.1-3.3,6.7c0.5,1.2,1.4,2.7,2.1,2.7c0.7,0,1.1-2.1,1.2-3.1l1.3,0.6c-0.6,3.7-1.6,4.1-2.4,4.1c-1.6,0-3-2.7-3.2-3.2
			c-1.5,1.4-2.8,2.3-4.9,3.2l-0.9-1.4c0.9-0.4,3.2-1.3,5.2-3.4c-0.9-2.7-1.2-5.7-1.3-8.1h-6.8v2.5H26c0,0.1,0,5.3-0.4,6.6
			c-0.1,0.4-0.5,1.3-2,1.3h-1.9L21.4,78l1.8,0c0.6,0,0.8-0.4,0.9-0.7c0.2-0.8,0.3-3.7,0.3-4.3h-3.8v1.3c0,2.5-0.5,5.6-1.8,7.7
			l-1.3-1.1c0.4-0.6,0.8-1.4,1.1-2.9c0.3-1.4,0.4-3.4,0.4-3.6v-6.6h8.3c0-1.4-0.1-2-0.1-2.9H29c0,0.8,0,1.6,0,2.9h4
			c-1.1-0.9-1.5-1.2-2.6-1.8L31.3,64.8z"/>
		<path d="M47.7,78.8v1.6H37.3c1.2-1.1,3.1-3.1,5.1-5.3c2.2-2.6,2.9-3.8,2.9-5.3c0-1.8-1.3-2.7-2.7-2.7c-2.3,0-3.4,1.9-3.7,2.5
			l-0.7-1.8c1.1-1.4,2.6-2.2,4.4-2.2c1.8,0,4.5,1,4.5,4.2c0,1.4-0.4,2.6-1.9,4.5c-0.8,1-2,2.4-4,4.6H47.7z"/>
		<path d="M50.6,78.7c0.2,0.1,0.8,0.4,1.9,0.4c3.3,0,4.8-2.6,5.2-5.9c-1,1.3-2.3,1.9-3.9,1.9c-2.5,0-4.7-1.8-4.7-4.6
			c0-2.8,2.1-4.9,5-4.9c2,0,5.3,1,5.3,6.6c0,5.1-2.6,8.6-6.7,8.6c-1.1,0-1.7-0.3-2-0.4V78.7z M50.8,70.4c0,1.8,1.3,3.1,3.2,3.1
			c1.9,0,3.5-1.3,3.5-3.2c0-1.5-1-3.2-3.4-3.2C52,67.1,50.8,68.7,50.8,70.4z"/>
		<path d="M78,66.6v1.4h-6V71h5.4v1.4H72v3.8h6.8v1.4H72v4.3h-1.5v-4.3h-8.8v-1.4h2.6V71h6.2v-2.9h-4.5c-1.2,1.8-2,2.8-3.5,4l-1-1.3
			c2.2-1.7,3.6-3.9,4.3-6l1.7,0.4c-0.2,0.5-0.3,0.8-0.7,1.6H78z M70.4,72.4h-4.6v3.8h4.6V72.4z"/>
		<path d="M87.7,66.3v-1.5h1.5v1.5h7.5v1.4h-3.1v1.6h3.2v1.3h-3.2v2.9h-8.2v-2.9h-2.9v3.2c0,1.1,0,5.3-1.8,8.1l-1.3-1.1
			c1.3-2,1.5-4.4,1.5-7v-7.4H87.7z M96.3,81.9c-0.9-0.1-3.8-0.6-6.6-1.7c-3.1,1.3-5.6,1.6-6.7,1.7l-0.6-1.4c1-0.1,2.8-0.3,5.6-1.2
			c-2-1.1-2.7-2-3-2.4l1.2-0.8c0.5,0.5,1.5,1.6,3.5,2.5c2.2-1.1,3-2.2,3.3-2.7h-9.8v-1.3h11.7V76c-0.3,0.6-1.2,2-3.5,3.3
			c2.5,0.8,4.6,1,5.6,1.1L96.3,81.9z M85.4,67.6h-2.9v1.6h2.9V67.6z M92.2,67.6h-5.3v1.6h5.3V67.6z M92.2,70.5h-5.3v1.7h5.3V70.5z"
			/>
		<path d="M119.8,65.7v15.8h-14V65.7H119.8z M107.4,72.7h10.8v-5.6h-10.8V72.7z M107.4,74.2V80h10.8v-5.8H107.4z"/>
		<path d="M129.9,68.1v-3.3h1.5v3.3h7.8v1.5h-7c1.8,3.8,4.5,6.2,7.2,7.8l-0.9,1.5c-4-2.9-5.7-5.3-7.1-8.3v6.6h3.9v1.4h-3.9v3.3h-1.5
			v-3.3h-3.9v-1.4h3.9v-6.5c-0.7,1.3-2.4,4.9-7.1,8.2l-0.9-1.5c3.4-2.1,5.5-4.5,7.2-7.9h-6.9v-1.5H129.9z"/>
		<path d="M142.6,80c4.7-1.7,5.2-4.4,5.3-7.4h-7.3V71H156v1.6h-6.4c-0.1,2.8-0.4,6.7-5.8,8.7L142.6,80z M152.4,66.4V68h-9.9v-1.6
			H152.4z M153.8,64.6c0.7,1.2,0.9,2.1,1.4,3.7l-1.3,0.5c-0.3-1.5-0.6-2.4-1.3-3.7L153.8,64.6z M156.4,64c0.6,1.1,1,2.2,1.3,3.7
			l-1.3,0.5c-0.4-1.6-0.6-2.4-1.3-3.8L156.4,64z"/>
		<path d="M161.6,66h1.7v3.7h5.7v-3.9h1.5l0.1,3.9h3.3v1.6h-3.3v1.4c0,2.7-0.3,6.4-5.2,8.6l-1.2-1.3c4.3-1.7,4.7-4.5,4.7-7.3v-1.4
			h-5.7v4.8h-1.7v-4.8h-3.3v-1.6h3.3V66z M172.1,64.3c0.5,1.2,0.7,2.3,0.9,3.8l-1.4,0.3c-0.2-1.6-0.3-2.3-0.8-3.8L172.1,64.3z
			 M174.7,64c0.5,1.4,0.7,2.3,1,3.8l-1.4,0.3c-0.2-1.6-0.4-2.4-0.9-3.8L174.7,64z"/>
		<path d="M184.5,81.2h-1.7v-9.5c-2.9,1.6-5.5,2.5-6.5,2.9l-0.8-1.5c7.5-2.5,11.9-6.4,13.3-7.6l1.3,1.1c-2.2,1.9-3.4,2.8-5.5,4.2
			V81.2z"/>
		<path d="M198.2,70.8c-1.7-1.1-3.3-1.9-5.4-2.7l0.8-1.5c2.1,0.7,3.7,1.5,5.5,2.7L198.2,70.8z M207.2,71.1c-3.7,5.9-9,8.8-13.9,9.8
			l-0.6-1.7c5.8-1.2,10.4-4.5,13.4-9.6L207.2,71.1z"/>
		<path d="M222.9,72c-1.5,1.3-3.2,2.2-4.7,3v0.4h7.7v1.4h-7.7v3.6c0,1.2-1,1.4-1.5,1.4h-3.4l-0.3-1.6l3,0c0.6,0,0.6-0.1,0.6-0.6
			v-2.9h-7.9v-1.4h7.9v-1.5h0.8c0.4-0.2,1.9-0.8,3-1.8h-8.7v-1.4h11.1V72z M221.1,67.8c0.6-1,1.2-2.7,1.4-3l1.6,0.5
			c-0.4,0.9-0.8,1.7-1.3,2.5h2.7v4.1H224v-2.7h-13.2v2.7h-1.5v-4.1h2.7c-0.4-1.1-1-2-1.3-2.4l1.4-0.5c0.7,1,1.2,1.9,1.4,2.6
			l-0.9,0.3H221.1z M217.1,67.7c-0.3-0.8-0.8-1.8-1.4-2.6l1.4-0.6c0.8,1.1,1.3,2.4,1.4,2.7L217.1,67.7z"/>
		<path d="M240.8,71.3H231v-1c-1.6,1-2.7,1.5-3.3,1.7l-0.8-1.5c5.5-2.2,7.6-5.1,8.1-5.9h1.6c1.9,2.6,4.8,4.8,8.1,5.9l-0.8,1.5
			c-0.8-0.4-1.8-0.8-3.2-1.7V71.3z M239.1,75.7c2,1.9,3.1,3.2,4.5,5.5l-1.3,0.9c-0.3-0.5-0.5-0.8-0.9-1.4
			c-3.1,0.4-10.6,0.8-13.4,0.8l-0.2-1.5h2.5c1.2-2,1.9-3.7,2.3-4.8h-5.1v-1.4H244v1.4h-9.6c-0.4,1-1.2,2.6-2.4,4.7
			c0.5,0,2.5-0.1,2.9-0.1c2.2-0.1,4.1-0.3,5.5-0.4c-0.2-0.2-1.1-1.4-2.5-2.9L239.1,75.7z M240.2,69.9c-2.6-1.8-3.7-3.2-4.3-4
			c-1.2,1.6-2.7,2.9-4.3,4H240.2z"/>
		<path d="M250.5,69.7h2.5v1.4h-2.5v0.4c0.4,0.7,1.3,2.3,2.6,3.6l-1,1.3c-0.9-1.1-1.3-1.8-1.6-2.6v8.2H249v-8.1
			c-0.7,1.8-1.6,3.1-2.6,4.4l-0.7-1.6c1.5-1.6,2.7-4.1,3.2-5.4h-2.9v-1.4h3V67c-1.4,0.2-2.1,0.2-2.7,0.2l-0.3-1.3
			c2.4-0.1,4.2-0.4,6.3-1l0.6,1.3c-0.6,0.2-1.3,0.4-2.4,0.6V69.7z M258.7,71.2c0,2.6,0.9,6.8,4.6,9.5l-1,1.3
			c-0.9-0.6-3.4-2.5-4.3-6.7c-0.4,1.4-1.4,4.6-5.4,6.6l-1-1.3c0.8-0.4,2.8-1.4,3.8-3.1c0.7-1.1,1.7-3.3,1.7-6.3v-6.5h1.5V71.2z
			 M254.2,73.4c-0.1-1.8-0.8-4.2-1.1-5.5l1.4-0.4c0.3,0.9,1.1,3.3,1.2,5.6L254.2,73.4z M260.2,73c1-2.4,1.3-5,1.3-5.7l1.5,0.4
			c-0.1,0.8-0.5,3.2-1.4,5.8L260.2,73z"/>
		<path d="M278.2,73.9c-1.2,0.9-3.2,1.9-4.4,2.4v0.2h7.8v1.4h-7.8v2.5c0,1.1-0.5,1.5-1.6,1.5h-2.8l-0.3-1.6l2.6,0
			c0.5,0,0.6-0.2,0.6-0.5v-2h-7.7v-1.4h7.7v-1.2h0.8c1.1-0.4,2.2-1.1,2.6-1.3h-8v-1.2c-1.2,0.6-2.1,0.9-2.7,1.2l-0.6-1.5
			c3.1-0.9,5.2-2.2,6.4-3.2h-6.1v-1.3h7.7v-1.2c-1,0-5.4,0.1-6.3,0.1l-0.3-1.4c9.1,0.2,12.3-0.6,13.6-0.9l0.7,1.3
			c-0.9,0.2-2.8,0.6-6.2,0.8v1.2h7.7v1.3h-6.2c2,1.7,3.7,2.6,6.5,3.3l-0.7,1.4c-0.8-0.3-1.7-0.6-2.9-1.2V73.9z M272.3,72.6v-3.2
			c-1.4,1.4-2.8,2.3-4.3,3.2H272.3z M277.9,72.6c-1.2-0.6-2.8-1.7-4.1-3.1v3.1H277.9z"/>
		<path d="M282.5,70.7c4-1.5,6.8-4,8.1-5.9h1.7c2.8,3.8,6.9,5.4,8.1,5.9l-0.8,1.5c-2.4-1.1-5.3-2.7-8.1-6.1c-1.8,2.2-4.7,4.7-8.2,6
			L282.5,70.7z M298.4,75h-6v5h7.2v1.5h-16.5v-1.5h2.5v-7.6h1.6v7.6h3.7V69.7h1.6v3.8h6V75z"/>
		<path d="M318.4,66.8h-7.9v1.9h4.2v9.6h-9.7v-9.6h4.1v-1.9h-7.9v-1.4h17.2V66.8z M303.4,68.4v11.7h12.8V68.4h1.5v13.1h-15.8V68.4
			H303.4z M309.1,70h-2.7v2.8h2.7V70z M309.1,74h-2.7v3h2.7V74z M313.2,70h-2.7v2.8h2.7V70z M313.2,74h-2.7v3h2.7V74z"/>
		<path d="M327.2,64.8h1.6v4.5h7.9v1.5h-7.6c1.1,4.8,3.3,7.5,7.9,9.4l-1,1.5c-3.8-1.8-6.5-4.4-7.7-8.8c-1.7,5.7-5.9,7.9-7.9,8.8
			l-0.9-1.6c2.7-1.1,6.7-3.3,7.6-9.3h-7.5v-1.5h7.6V64.8z"/>
		<path d="M351.7,71.3H342v-1c-1.6,1-2.7,1.5-3.3,1.7l-0.8-1.5c5.5-2.2,7.6-5.1,8.1-5.9h1.6c1.9,2.6,4.8,4.8,8.1,5.9l-0.8,1.5
			c-0.8-0.4-1.8-0.8-3.2-1.7V71.3z M350.1,75.7c2,1.9,3.1,3.2,4.5,5.5l-1.3,0.9c-0.3-0.5-0.5-0.8-0.9-1.4
			c-3.1,0.4-10.6,0.8-13.4,0.8l-0.2-1.5h2.5c1.2-2,1.9-3.7,2.3-4.8h-5v-1.4H355v1.4h-9.6c-0.4,1-1.2,2.6-2.4,4.7
			c0.5,0,2.5-0.1,2.9-0.1c2.2-0.1,4.1-0.3,5.5-0.4c-0.2-0.2-1.1-1.4-2.5-2.9L350.1,75.7z M351.1,69.9c-2.6-1.8-3.7-3.2-4.3-4
			c-1.2,1.6-2.7,2.9-4.3,4H351.1z"/>
	</g>
	<g>
		<path fill="#928178" d="M32.3,23.8V2.3h6.7v53.4h-6.7V30H6.8v25.7H0.2V2.3h6.7v21.5H32.3z"/>
		<path fill="#928178" d="M54.5,42.3l-6.1,13.4h-7.2L66.8,0l25.5,55.7h-7.2l-6.1-13.4H54.5z M66.8,14.6l-9.5,21.6h19L66.8,14.6z"/>
		<path fill="#928178" d="M212.7,2.3h11.1c16.4,0,30,8.6,30,26.4c0,18.2-13.3,27-30.2,27h-10.8V2.3z M219.4,49.6h2.3
			c13.6,0,25.4-5.1,25.4-20.6c0-15.6-11.8-20.6-25.4-20.6h-2.3V49.6z"/>
		<path fill="#928178" d="M263.3,42.3l-6.1,13.4H250L275.5,0L301,55.7h-7.2l-6.1-13.4H263.3z M275.5,14.6L266,36.2h19L275.5,14.6z"
			/>
		<path fill="#928178" d="M313.7,55.7H307V8.4h-12.7V2.3h32v6.1h-12.7V55.7z"/>
		<path fill="#928178" d="M329.2,2.3h28.7v6.1h-22v15h21.4v6.1h-21.4v20.2h22v6.1h-28.7V2.3z"/>
	</g>
	<g>
		<path fill="#F39800" d="M189.5,32.7c-0.2,1.4-0.4,2.9-0.8,4.3h18.4v-4.3H189.5z"/>
		<path fill="#8FC31F" d="M127.9,35c-2.1,4.1-6.4,6.9-11.3,6.9c-7,0-12.8-5.7-12.8-12.8c0-7,5.7-12.8,12.8-12.8
			c4.9,0,9.2,2.8,11.3,6.9c0.3-1.8,0.9-3.6,1.5-5.3c-3.1-3.6-7.7-5.9-12.8-5.9c-9.4,0-17,7.6-17,17c0,9.4,7.6,17,17,17
			c5.1,0,9.7-2.3,12.8-5.9C128.8,38.6,128.2,36.9,127.9,35z"/>
		<path fill="#F39800" d="M130,41.8c-3.4,3.6-8.1,5.8-13.4,5.8c-10.2,0-18.4-8.2-18.4-18.4c0-10.2,8.2-18.4,18.4-18.4
			c5.3,0,10.1,2.2,13.4,5.8c0.6-1.4,1.3-2.7,2.1-3.9c-4.1-3.8-9.5-6.1-15.5-6.1c-12.5,0-22.7,10.2-22.7,22.7
			c0,12.5,10.2,22.7,22.7,22.7c6,0,11.5-2.3,15.5-6.1C131.3,44.5,130.6,43.1,130,41.8z"/>
		<path fill="#B08BBE" d="M132.9,46.9c-4.3,3.9-10,6.4-16.3,6.4c-13.3,0-24.1-10.8-24.1-24.1c0-13.3,10.8-24.1,24.1-24.1
			c6.3,0,12,2.4,16.3,6.4c0.8-1.2,1.7-2.3,2.7-3.3c-5-4.5-11.7-7.3-19-7.3c-15.7,0-28.3,12.7-28.3,28.3c0,15.7,12.7,28.3,28.3,28.3
			c7.3,0,13.9-2.8,19-7.3C134.6,49.2,133.7,48.1,132.9,46.9z"/>
		<path fill="#B08BBE" d="M186.7,15.7c0.7,1.4,1.2,2.8,1.7,4.3h18.8v-4.3H186.7z"/>
		<path fill="#F39800" d="M188.7,21.4c0.4,1.4,0.6,2.8,0.8,4.3h17.6v-4.3H188.7z"/>
		<path fill="#8FC31F" d="M189.6,27c0,0.7,0.1,1.4,0.1,2.1c0,0.7,0,1.4-0.1,2.1h17.4V27H189.6z"/>
		<path fill="#B08BBE" d="M158.5,0.8c-15.7,0-28.3,12.7-28.3,28.3c0,15.7,12.7,28.3,28.3,28.3c15.7,0,28.3-12.7,28.3-28.3
			C186.9,13.5,174.2,0.8,158.5,0.8z M158.5,53.3c-13.3,0-24.1-10.8-24.1-24.1c0-13.3,10.8-24.1,24.1-24.1
			c13.3,0,24.1,10.8,24.1,24.1C182.6,42.5,171.8,53.3,158.5,53.3z"/>
		<path fill="#F39800" d="M158.5,6.5c-12.5,0-22.7,10.2-22.7,22.7c0,12.5,10.2,22.7,22.7,22.7c12.5,0,22.7-10.2,22.7-22.7
			C181.2,16.6,171,6.5,158.5,6.5z M158.5,47.6c-10.2,0-18.4-8.2-18.4-18.4c0-10.2,8.2-18.4,18.4-18.4c10.2,0,18.4,8.2,18.4,18.4
			C176.9,39.3,168.7,47.6,158.5,47.6z"/>
		<path fill="#8FC31F" d="M158.5,12.2c-9.4,0-17,7.6-17,17c0,9.4,7.6,17,17,17s17-7.6,17-17C175.5,19.8,167.9,12.2,158.5,12.2z
			 M158.5,41.9c-7,0-12.8-5.7-12.8-12.8c0-7,5.7-12.8,12.8-12.8s12.8,5.7,12.8,12.8C171.3,36.2,165.6,41.9,158.5,41.9z"/>
		<path fill="#B08BBE" d="M188.3,38.4c-0.5,1.5-1,2.9-1.7,4.3h20.4v-4.3H188.3z"/>
	</g>
</g>
</svg>
