<?xml version="1.0" encoding="utf-8"?>
<!-- Generator: Adobe Illustrator 21.0.2, SVG Export Plug-In . SVG Version: 6.00 Build 0)  -->
<svg version="1.1" id="レイヤー_1" xmlns="http://www.w3.org/2000/svg" xmlns:xlink="http://www.w3.org/1999/xlink" x="0px"
	 y="0px" width="360px" height="70px" viewBox="0 0 360 70" enable-background="new 0 0 360 70" xml:space="preserve">
<g>
	<path d="M33.6,11.8h-7.2v9.9h8.5v3H0v-3h8.6v-9.9H1.4V8.8h7.3V2h3.1v6.8h11.5V2h3.1v6.8h7.2V11.8z M13.7,28.1
		c-3.5,4.1-5.8,6.1-10.9,8.9l-2.3-2.6c4.8-2,8.1-5.1,10.5-8L13.7,28.1z M23.3,11.8H11.8v9.9h11.5V11.8z M32.2,37
		c-4.6-2.9-7.3-5-10.6-9l2.5-1.7c2,2.2,5.8,5.8,10.5,7.9L32.2,37z"/>
	<path d="M57.3,13.6v11H42.9c-0.1,2.3-0.5,7.9-3.5,12.2l-2.2-2.2c0.8-1.2,3-4.4,3-10.6V13.6H57.3z M55.3,11.7H43.6V10
		c-2.3,1.8-3.3,2.4-4.8,3.1l-1.4-2.9c4.3-1.7,8.2-4.9,10.3-8.1h3.1C54,6,58,7.8,60.1,8.7l-1.5,2.7c-1.3-0.7-2-1-3.3-1.8V11.7z
		 M42.9,15.9V18h11.7v-2.2H42.9z M42.9,20v2.4h11.7V20H42.9z M58.3,26.7v9.6H43.7v-9.6H58.3z M54.9,9.2c-2.2-1.6-3.7-2.8-5.5-4.9
		c-1.1,1.4-2.1,2.6-4.7,4.9H54.9z M46.5,29v4.7h9.1V29H46.5z M63.7,4.2v24.2h-3V4.2H63.7z M71.1,2.1v31.9c0,1.9-0.6,2.9-3.1,2.9
		h-4.9l-0.6-3.1l4.6,0c0.5,0,0.9,0,0.9-0.7V2.1H71.1z"/>
	<path d="M96.5,19.5c0,2.1-1.7,3.9-3.9,3.9c-2.2,0-3.9-1.8-3.9-3.9c0-2.2,1.8-3.9,3.9-3.9C94.7,15.6,96.5,17.4,96.5,19.5z"/>
	<path d="M131.7,2v12.1h13.9v21.6h-32.5v-3h29.3v-6.5h-27.8v-2.9h27.8v-6.3h-28.6v-2.9h14.6V2H131.7z M120.7,12.8
		c-1.1-2.1-3.3-5.8-5.6-8.4l2.6-1.7c2.7,2.8,4.5,6,5.8,8.4L120.7,12.8z M136.6,11.1c2.1-2.4,4.4-5.9,5.5-8.5l3.1,1.6
		c-1.3,2.7-3.6,6.1-6,8.7L136.6,11.1z"/>
	<path d="M183.9,7.3h-15.7v2.1h12.5v7.2h-12.5v1.9h13.4v4.6h2.6v2.5h-2.6v4.8h-13.4v3c0,1.2-0.3,3.3-3.3,3.3h-6.1l-0.4-3l5.5,0
		c1,0,1.2-0.4,1.2-1.2v-2.1h-13.6v-2.4h13.6v-2.5h-15.9v-2.4h15.9v-2.4h-13.5v-2.3h13.5v-1.9h-12.4V9.4h12.4V7.3h-15.5V4.7h15.5V2.1
		h3v2.7h15.7V7.3z M165.1,11.6h-9.4v2.8h9.4V11.6z M177.6,11.6h-9.4v2.8h9.4V11.6z M178.4,20.9h-10.3v2.4h10.3V20.9z M178.5,25.8
		h-10.3v2.5h10.3V25.8z"/>
	<path d="M219.9,3.6c-3,3.9-5.6,6.4-9.2,9.5H222v2.7h-15c-2.4,1.6-4.1,2.6-6,3.7h17v16.7h-24.6V23c-2.6,1-3.7,1.3-5.5,1.9l-1.4-2.8
		c8.1-2.1,12.3-4.4,15.6-6.3h-15V13h13.2V8.3h-10.5V5.7h10.5V2h3.1v3.7h8.5v2.5c1.5-1.4,2.9-2.9,5.3-6.2L219.9,3.6z M215,22.1h-18.6
		v4.3H215V22.1z M215,28.9h-18.6v4.6H215V28.9z M206.2,13c1.9-1.3,3.2-2.4,5.6-4.7h-8.5V13H206.2z"/>
	<path d="M229.5,32.9c9.6-3.4,10.5-8.9,10.8-15h-14.9v-3.3h31.4v3.3h-13.1c-0.2,5.7-0.9,13.7-11.9,17.7L229.5,32.9z M249.5,5.3v3.3
		h-20.1V5.3H249.5z M252.2,1.6c1.3,2.5,1.9,4.3,2.8,7.5l-2.7,1.1c-0.7-3-1.3-4.9-2.6-7.6L252.2,1.6z M257.6,0.4
		c1.2,2.3,1.9,4.5,2.7,7.5L257.6,9c-0.7-3.2-1.2-4.8-2.5-7.6L257.6,0.4z"/>
	<path d="M267.8,4.5h3.4V12h11.6V4.2h3.1l0.1,7.9h6.7v3.2h-6.6v2.9c0,5.5-0.6,13-10.6,17.4l-2.4-2.6c8.8-3.5,9.6-9.1,9.6-14.8v-2.9
		h-11.6v9.8h-3.4v-9.8h-6.7V12h6.7V4.5z M289.3,1.1c1,2.5,1.4,4.6,1.9,7.8l-2.9,0.6c-0.3-3.2-0.7-4.7-1.6-7.8L289.3,1.1z M294.5,0.4
		c1.1,2.8,1.5,4.7,1.9,7.8l-2.8,0.6c-0.4-3.2-0.7-4.9-1.8-7.7L294.5,0.4z"/>
	<path d="M314.2,35.5h-3.4V16.2c-5.8,3.3-11.2,5.1-13.3,5.8l-1.7-3.1c15.3-5,24.2-13,27.1-15.6l2.7,2.2c-4.4,3.9-6.8,5.7-11.3,8.5
		V35.5z"/>
	<path d="M341.7,14.2c-3.5-2.2-6.6-3.9-11-5.5l1.5-3c4.3,1.5,7.6,3.1,11.3,5.4L341.7,14.2z M360,15c-7.6,11.9-18.3,17.8-28.2,19.9
		l-1.2-3.5c11.8-2.4,21.1-9.1,27.2-19.6L360,15z"/>
</g>
<g>
	<path d="M12.2,46.6v7.2h8.3v12.9H1.1V65h17.5v-3.9H2v-1.7h16.7v-3.7H1.5v-1.7h8.7v-7.2H12.2z M5.6,53c-0.6-1.3-2-3.5-3.3-5l1.5-1
		c1.6,1.7,2.7,3.6,3.5,5L5.6,53z M15.1,52.1c1.3-1.5,2.6-3.5,3.3-5.1l1.8,0.9c-0.8,1.6-2.1,3.6-3.6,5.2L15.1,52.1z"/>
	<path d="M43.9,49.8h-9.4V51H42v4.3h-7.5v1.2h8v2.8H44v1.5h-1.5v2.9h-8v1.8c0,0.7-0.2,2-2,2h-3.7l-0.3-1.8l3.3,0
		c0.6,0,0.7-0.2,0.7-0.7v-1.2h-8.2v-1.4h8.2v-1.5h-9.5v-1.5h9.5v-1.5h-8.1v-1.4h8.1v-1.2h-7.4V51h7.4v-1.3h-9.3v-1.5h9.3v-1.6h1.8
		v1.6h9.4V49.8z M32.7,52.4h-5.6V54h5.6V52.4z M40.1,52.4h-5.6V54h5.6V52.4z M40.6,57.9h-6.1v1.5h6.1V57.9z M40.6,60.8h-6.2v1.5h6.2
		V60.8z"/>
	<path d="M65.3,47.5c-1.8,2.3-3.4,3.9-5.5,5.7h6.8v1.6h-8.9c-1.4,1-2.5,1.6-3.6,2.2h10.2v10H49.4v-7.9c-1.6,0.6-2.2,0.8-3.3,1.2
		l-0.9-1.7c4.8-1.2,7.4-2.6,9.3-3.8h-9v-1.6h7.9v-2.8h-6.3v-1.6h6.3v-2.2h1.9v2.2h5.1v1.5c0.9-0.9,1.7-1.7,3.2-3.7L65.3,47.5z
		 M62.3,58.6H51.2v2.6h11.1V58.6z M62.3,62.7H51.2v2.8h11.1V62.7z M57,53.2c1.1-0.8,1.9-1.4,3.4-2.8h-5.1v2.8H57z"/>
	<path d="M84.6,54.2c-4.8,1.1-14,3.1-14,7c0,2.1,2.5,2.9,7,2.9c3.2,0,6.1-0.5,7.4-0.7l0.2,2.1C81.3,66,78.4,66,77.8,66
		c-3.5,0-9.2-0.4-9.2-4.7c0-3,2.6-4.8,5.4-6c-0.2-0.9-0.4-1.7-0.6-2.6l-1-4.9l2.1-0.4l0.9,4.8c0,0.1,0.2,1.2,0.5,2.3
		c3.1-1.1,7.3-2.2,8-2.4L84.6,54.2z"/>
	<path d="M107.2,52.4H103v5.9h5.1v1.8H87.2v-1.8h5.2v-5.9H88v-1.7h4.3v-4.1h1.9v4.1h6.9v-4.1h1.9v4.1h4.3V52.4z M95.3,62.2
		c-2.1,2.4-3.5,3.7-6.5,5.3l-1.4-1.6c2.9-1.2,4.9-3,6.3-4.8L95.3,62.2z M101.1,52.4h-6.9v5.9h6.9V52.4z M106.4,67.5
		c-2.7-1.7-4.4-3-6.3-5.4l1.5-1c1.2,1.3,3.5,3.5,6.3,4.8L106.4,67.5z"/>
	<path d="M113.9,48.5c-0.4,1.5-1.3,5.6-1.3,10.4c0,3.4,0.5,5.7,0.8,6.9l-1.9,0.3c-0.6-2.4-0.8-4.8-0.8-7.2c0-4.9,0.8-8.9,1.2-10.6
		L113.9,48.5z M128.1,64.6c-0.9,0.1-2.7,0.4-4.9,0.4c-3.2,0-6.7-0.4-6.7-3.7c0-1.2,0.4-2.1,1.1-3.1l1.7,0.4c-0.3,0.4-1,1.3-1,2.4
		c0,1.5,1.6,2,4.6,2c2.6,0,4.4-0.4,5.3-0.5L128.1,64.6z M117.4,50.2c1.1-0.1,3.4-0.4,6.3-0.4c1.7,0,2.8,0.1,3.6,0.2l0,2
		c-0.5,0-1.8-0.2-3.8-0.2c-2.8,0-4.9,0.2-6.1,0.4L117.4,50.2z"/>
	<path d="M133.3,65.1c5.7-2,6.3-5.3,6.5-9h-8.9v-1.9h18.8v1.9h-7.8c-0.1,3.4-0.5,8.2-7.1,10.6L133.3,65.1z M145.3,48.6v2h-12v-2
		H145.3z M146.9,46.3c0.8,1.5,1.1,2.6,1.7,4.5l-1.6,0.6c-0.4-1.8-0.8-2.9-1.6-4.6L146.9,46.3z M150.1,45.7c0.7,1.4,1.2,2.7,1.6,4.5
		l-1.6,0.7c-0.4-1.9-0.7-2.9-1.5-4.6L150.1,45.7z"/>
	<path d="M156.9,48.1h2v4.5h6.9v-4.7h1.9l0.1,4.7h4v1.9h-4v1.7c0,3.3-0.3,7.8-6.3,10.4l-1.5-1.5c5.3-2.1,5.8-5.4,5.8-8.9v-1.7h-6.9
		v5.9h-2v-5.9h-4v-1.9h4V48.1z M169.7,46.1c0.6,1.5,0.8,2.8,1.1,4.7l-1.7,0.4c-0.2-1.9-0.4-2.8-1-4.6L169.7,46.1z M172.8,45.7
		c0.7,1.7,0.9,2.8,1.2,4.7l-1.7,0.4c-0.2-1.9-0.4-2.9-1.1-4.6L172.8,45.7z"/>
	<path d="M185.6,66.6h-2.1V55.1c-3.5,2-6.7,3.1-7.9,3.5l-1-1.8c9.1-3,14.5-7.8,16.2-9.3l1.6,1.3c-2.6,2.3-4.1,3.4-6.7,5.1V66.6z"/>
	<path d="M202,53.9c-2.1-1.3-4-2.3-6.6-3.3l0.9-1.8c2.6,0.9,4.5,1.8,6.7,3.2L202,53.9z M212.9,54.3c-4.6,7.1-10.9,10.6-16.9,11.9
		l-0.7-2.1c7.1-1.4,12.6-5.4,16.3-11.7L212.9,54.3z"/>
	<path d="M227.7,59.2c0,1.8-0.2,5.9-6,8.1l-1.3-1.6c4.1-1.5,4.7-3.4,5.1-4.7c-0.5,0.6-1.3,1.3-2.8,1.3c-2.4,0-4.1-1.8-4.1-4.3
		c0-2.7,2-4.4,4.3-4.4c1.7,0,2.5,0.9,2.8,1.3l0-2.8l-6.9,0.2c-2,0-2.7,0.1-4.1,0.2l0-2c1.2,0.1,2.8,0,4,0l6.9-0.1l-0.1-3h2l0,3
		l2.3,0c2.3,0,3.3-0.1,3.9-0.2l0,2c-1-0.1-2.8-0.1-3.9,0l-2.2,0.1L227.7,59.2z M223.1,55.2c-1.4,0-2.5,1-2.5,2.7
		c0,1.7,1.2,2.6,2.5,2.6c1.5,0,2.6-1.2,2.6-2.7C225.7,56.4,224.6,55.2,223.1,55.2z"/>
	<path d="M235.7,59.4l11.3-9.5c-3.3,0.4-5.6,0.5-8.6,0.6l-0.2-1.9c2.1,0,6.5,0,11.3-0.6l0.9,1.5c-2.3,1.6-4.4,3.4-7.4,5.8
		c0.9-0.4,2.1-0.9,4-0.9c3.8,0,6.3,2.2,6.3,5.6c0,4.2-3.6,6.5-7.8,6.5c-2.7,0-5.8-1.1-5.8-3.6c0-2,1.8-3.1,3.7-3.1
		c2.1,0,4.5,1.4,5.4,4.2c1.6-0.9,2.6-2.1,2.6-3.9c0-2.3-1.7-3.9-5-3.9c-4.1,0-6.6,2.2-9.4,4.8L235.7,59.4z M243.4,61.5
		c-1.2,0-1.9,0.6-1.9,1.4c0,1.3,2,2,3.8,2c0.8,0,1.4-0.1,1.7-0.2C246.4,62.5,244.9,61.5,243.4,61.5z"/>
	<path d="M261,57.9c-0.5,0.3-2.9,1.8-2.9,3.2c0,2.2,4.9,2.4,7.5,2.4c3.7,0,6.4-0.6,7.3-0.8l0.1,2.2c-2.4,0.4-4.9,0.6-7.3,0.6
		c-2.3,0-9.6,0-9.6-4.3c0-1.8,1.5-3.3,3.6-4.7L261,57.9z M270.8,51.8c-1.4-0.2-3.9-0.7-7.5-0.7c-2.5,0-4.2,0.2-5.3,0.3l0.1-2.1
		c1.6-0.1,3.1-0.2,5-0.2c3.9,0,6.6,0.4,8,0.6L270.8,51.8z"/>
	<path d="M291.6,54.2c-4.8,1.1-14,3.1-14,7c0,2.1,2.5,2.9,7,2.9c3.2,0,6.1-0.5,7.4-0.7l0.2,2.1c-3.9,0.5-6.7,0.5-7.3,0.5
		c-3.5,0-9.2-0.4-9.2-4.7c0-3,2.6-4.8,5.4-6c-0.2-0.9-0.4-1.7-0.6-2.6l-1-4.9l2.1-0.4l0.9,4.8c0,0.1,0.2,1.2,0.5,2.3
		c3.1-1.1,7.3-2.2,8-2.4L291.6,54.2z"/>
	<path d="M305.5,64.7c4.8-1.5,6.3-4.9,6.3-7.7c0-1.6-0.6-6.2-6.3-6.8c-0.3,2.5-1,7.8-3,11.9c-1.4,3-2.7,3.1-3.2,3.1
		c-2.1,0-4.4-3.1-4.4-7.2c0-5.6,4.2-9.7,9.8-9.7c5.3,0,9,3.6,9,8.7c0,2.6-1,7.2-7.2,9.3L305.5,64.7z M296.8,58c0,3,1.5,5,2.4,5
		c0.7,0,1.3-1.4,1.8-2.5c0.7-1.7,1.8-4.7,2.5-10.4C299,50.9,296.8,54.5,296.8,58z"/>
	<path d="M315.9,65.9c1.3-1.2,2-2.3,2.5-3.9l1.7,0.4c-0.4,1.3-1,3-2.9,4.9L315.9,65.9z M336.7,53.1H316v-1.5h5.4
		c-0.3-1.1-0.4-1.7-0.6-2.1h-3.6v-1.5h8.2v-1.4h1.9v1.4h8.2v1.5h-3.4c-0.1,0.5-0.2,0.9-0.6,2.1h5.2V53.1z M334.4,61.1h-16v-6.8h16
		V61.1z M332.6,55.7h-12.4V57h12.4V55.7z M332.6,58.3h-12.4v1.4h12.4V58.3z M323.1,62.5v2.6c0,0.4,0.1,0.6,0.5,0.6h5
		c0.6,0,0.8-0.1,1.1-2.1l1.7,0.5c-0.4,2.7-0.9,3.2-2.1,3.2h-6.2c-1.2,0-1.8-0.4-1.8-1.5v-3.2H323.1z M329.8,51.6
		c0.3-0.9,0.5-1.8,0.5-2.1h-7.7c0.3,0.8,0.4,1.3,0.6,2.1H329.8z M327.3,64.5c-0.4-0.3-1.7-1.3-3.5-2.1l0.9-1.2
		c1.3,0.5,2.4,1.1,3.5,1.9L327.3,64.5z M335.3,67.2c-1.2-2-2.1-3.2-3.4-4.6l1.4-0.9c1,1,2.6,2.8,3.6,4.5L335.3,67.2z"/>
	<path d="M345.3,48.2v16.1H339V48.2H345.3z M343.6,49.9h-2.8v12.8h2.8V49.9z M358.4,66.4c-1.2-1-3.5-3.2-5.2-6.5v7.5h-1.8v-7.4
		c-0.4,0.8-2.2,3.9-5.6,6.4l-1.2-1.6c2.8-1.7,5.1-4.5,6.6-7.6h-5.2v-1.7h5.5v-3.7h-5v-1.7h5v-3.5h1.8v3.5h5.5v1.7h-5.5v3.7h6.1v1.7
		h-5.8c0.8,1.7,2.4,4.7,6.1,7.4L358.4,66.4z"/>
</g>
</svg>
