<?xml version="1.0" encoding="utf-8"?>
<!-- Generator: Adobe Illustrator 21.0.2, SVG Export Plug-In . SVG Version: 6.00 Build 0)  -->
<svg version="1.1" id="レイヤー_1" xmlns="http://www.w3.org/2000/svg" xmlns:xlink="http://www.w3.org/1999/xlink" x="0px"
	 y="0px" width="30px" height="37px" viewBox="0 0 30 37" enable-background="new 0 0 30 37" xml:space="preserve">
<rect x="783.2" fill="#898989" width="40" height="40"/>
<rect x="860.2" fill="#898989" width="40" height="40"/>
<rect x="937.2" fill="#898989" width="40" height="40"/>
<rect x="1014.2" fill="#898989" width="40" height="40"/>
<rect x="1091.2" fill="#898989" width="40" height="40"/>
<rect x="1168.2" fill="#898989" width="40" height="40"/>
<rect x="1245.3" fill="#898989" width="40" height="40"/>
<rect x="1322.3" fill="#898989" width="40" height="40"/>
<rect x="1399.3" fill="#898989" width="40" height="40"/>
<rect x="-1155.8" y="210.7" fill="#424142" width="42.7" height="42.7"/>
<circle fill="#424142" cx="-1134" cy="131.8" r="25"/>
<text transform="matrix(1 0 0 1 -1147.688 141.8281)" fill="#FFFFFF" font-family="'DINAlternate-Bold'" font-size="28.5182px">01</text>
<text transform="matrix(1 0 0 1 -1147.688 242.7448)" fill="#FFFFFF" font-family="'DINAlternate-Bold'" font-size="28.5182px">01</text>
<rect x="-1110.2" y="210.7" fill="#424142" width="42.7" height="42.7"/>
<text transform="matrix(1 0 0 1 -1102.1046 242.7448)" fill="#FFFFFF" font-family="'DINAlternate-Bold'" font-size="28.5182px">02</text>
<rect x="-1064.6" y="210.7" fill="#424142" width="42.7" height="42.7"/>
<text transform="matrix(1 0 0 1 -1056.5214 242.7448)" fill="#FFFFFF" font-family="'DINAlternate-Bold'" font-size="28.5182px">03</text>
<rect x="-1019" y="210.7" fill="#424142" width="42.7" height="42.7"/>
<text transform="matrix(1 0 0 1 -1010.938 242.7448)" fill="#FFFFFF" font-family="'DINAlternate-Bold'" font-size="28.5182px">04</text>
<rect x="-973.4" y="210.7" fill="#424142" width="42.7" height="42.7"/>
<text transform="matrix(1 0 0 1 -965.3547 242.7448)" fill="#FFFFFF" font-family="'DINAlternate-Bold'" font-size="28.5182px">05</text>
<rect x="-927.8" y="210.7" fill="#424142" width="42.7" height="42.7"/>
<text transform="matrix(1 0 0 1 -919.7714 242.7448)" fill="#FFFFFF" font-family="'DINAlternate-Bold'" font-size="28.5182px">06</text>
<rect x="-882.2" y="210.7" fill="#424142" width="42.7" height="42.7"/>
<text transform="matrix(1 0 0 1 -874.188 242.7448)" fill="#FFFFFF" font-family="'DINAlternate-Bold'" font-size="28.5182px">07</text>
<rect x="-836.7" y="210.7" fill="#424142" width="42.7" height="42.7"/>
<text transform="matrix(1 0 0 1 -828.6047 242.7448)" fill="#FFFFFF" font-family="'DINAlternate-Bold'" font-size="28.5182px">08</text>
<rect x="-788.8" y="210.7" fill="#424142" width="42.7" height="42.7"/>
<text transform="matrix(1 0 0 1 -780.6911 242.7448)" fill="#FFFFFF" font-family="'DINAlternate-Bold'" font-size="28.5182px">09</text>
<polygon fill="#424142" points="-1121.9,151.1 -1134,169.8 -1146.1,151.1 "/>
<circle fill="#424142" cx="-1075.5" cy="131.8" r="25"/>
<text transform="matrix(1 0 0 1 -1089.188 141.8281)" fill="#FFFFFF" font-family="'DINAlternate-Bold'" font-size="28.5182px">02</text>
<polygon fill="#424142" points="-1063.4,151.1 -1075.5,169.8 -1087.6,151.1 "/>
<circle fill="#424142" cx="-1013.1" cy="131.8" r="25"/>
<text transform="matrix(1 0 0 1 -1026.7744 141.8281)" fill="#FFFFFF" font-family="'DINAlternate-Bold'" font-size="28.5182px">03</text>
<polygon fill="#424142" points="-1001,151.1 -1013.1,169.8 -1025.2,151.1 "/>
<circle fill="#424142" cx="-934.5" cy="131.8" r="25"/>
<text transform="matrix(1 0 0 1 -948.188 141.8281)" fill="#FFFFFF" font-family="'DINAlternate-Bold'" font-size="28.5182px">04</text>
<polygon fill="#424142" points="-922.4,151.1 -934.5,169.8 -946.6,151.1 "/>
<circle fill="#424142" cx="-868" cy="131.8" r="25"/>
<text transform="matrix(1 0 0 1 -881.688 141.8281)" fill="#FFFFFF" font-family="'DINAlternate-Bold'" font-size="28.5182px">05</text>
<polygon fill="#424142" points="-855.9,151.1 -868,169.8 -880.1,151.1 "/>
<circle fill="#424142" cx="-811.7" cy="131.8" r="25"/>
<text transform="matrix(1 0 0 1 -825.3547 141.8281)" fill="#FFFFFF" font-family="'DINAlternate-Bold'" font-size="28.5182px">06</text>
<polygon fill="#424142" points="-799.6,151.1 -811.7,169.8 -823.8,151.1 "/>
<circle fill="#424142" cx="-755.3" cy="131.8" r="25"/>
<text transform="matrix(1 0 0 1 -769.0213 141.8281)" fill="#FFFFFF" font-family="'DINAlternate-Bold'" font-size="28.5182px">07</text>
<polygon fill="#424142" points="-743.2,151.1 -755.3,169.8 -767.4,151.1 "/>
<circle fill="#424142" cx="-699" cy="131.8" r="25"/>
<text transform="matrix(1 0 0 1 -712.688 141.8281)" fill="#FFFFFF" font-family="'DINAlternate-Bold'" font-size="28.5182px">08</text>
<polygon fill="#424142" points="-686.9,151.1 -699,169.8 -711.1,151.1 "/>
<circle fill="#424142" cx="-642.2" cy="131.8" r="25"/>
<text transform="matrix(1 0 0 1 -655.938 141.8281)" fill="#FFFFFF" font-family="'DINAlternate-Bold'" font-size="28.5182px">09</text>
<polygon fill="#424142" points="-630.2,151.1 -642.2,169.8 -654.3,151.1 "/>
<path fill="#898989" d="M24.5,26.6C27.9,23.8,30,19.7,30,15c0-8.3-6.7-15-15-15S0,6.7,0,15c0,4.7,2.1,8.8,5.5,11.6
	C6,27,6,27,5.5,26.6c-0.4-0.3-0.7-0.6-1.1-1L15,36.2l10.6-10.6C25.3,25.9,24.9,26.3,24.5,26.6C24,27,24,27,24.5,26.6z"/>
<g>
	<path fill="#FFFFFF" d="M7.4,12.3c0-1.1,0.4-2,1-2.6c0.6-0.6,1.4-0.9,2.3-0.9c0.9,0,1.7,0.3,2.3,0.9c0.7,0.6,1,1.5,1,2.6v5.4
		c0,1.1-0.4,2-1,2.6c-0.6,0.6-1.4,0.9-2.3,0.9c-0.9,0-1.7-0.3-2.3-0.9c-0.7-0.6-1-1.5-1-2.6V12.3z M12.4,12.4c0-1.2-0.6-1.8-1.7-1.9
		c-1.1,0-1.6,0.6-1.7,1.9v5.2c0,1.2,0.6,1.9,1.7,1.9c1.1,0,1.6-0.6,1.7-1.9V12.4z"/>
	<path fill="#FFFFFF" d="M18.2,10.7L16.5,12v-1.9l1.7-1.3h1.7V21h-1.7V10.7z"/>
</g>
<g>
	<path fill="#FFFFFF" d="M790.9,16.1c0-1.9,0.6-3.3,1.7-4.3c1.1-1,2.3-1.5,3.8-1.5c1.5,0,2.8,0.5,3.9,1.5c1.1,1,1.7,2.5,1.7,4.3v9
		c0,1.9-0.6,3.3-1.7,4.3c-1.1,1-2.4,1.5-3.9,1.5c-1.5,0-2.8-0.5-3.8-1.5c-1.1-1-1.7-2.4-1.7-4.3V16.1z M799.3,16.3
		c-0.1-2-1-3.1-2.8-3.1c-1.8,0-2.7,1.1-2.8,3.1v8.6c0,2.1,1,3.1,2.8,3.1c1.8,0,2.7-1.1,2.8-3.1V16.3z"/>
	<path fill="#FFFFFF" d="M808.9,13.5l-2.8,2.1v-3.1l2.8-2.1h2.8v20.3h-2.8V13.5z"/>
</g>
<path fill="#898989" d="M111.6,26.6c3.3-2.8,5.5-6.9,5.5-11.6c0-8.3-6.7-15-15-15S87,6.7,87,15c0,4.7,2.1,8.8,5.5,11.6
	c0.6,0.5,0.6,0.5,0,0c-0.4-0.3-0.7-0.6-1.1-1L102,36.2l10.6-10.6C112.3,25.9,111.9,26.3,111.6,26.6C111,27,111,27,111.6,26.6z"/>
<g>
	<path fill="#FFFFFF" d="M94.4,12.3c0-1.1,0.4-2,1-2.6c0.6-0.6,1.4-0.9,2.3-0.9c0.9,0,1.7,0.3,2.3,0.9c0.7,0.6,1,1.5,1,2.6v5.4
		c0,1.1-0.4,2-1,2.6c-0.6,0.6-1.4,0.9-2.3,0.9c-0.9,0-1.7-0.3-2.3-0.9c-0.7-0.6-1-1.5-1-2.6V12.3z M99.4,12.4c0-1.2-0.6-1.8-1.7-1.9
		c-1.1,0-1.6,0.6-1.7,1.9v5.2c0,1.2,0.6,1.9,1.7,1.9c1.1,0,1.6-0.6,1.7-1.9V12.4z"/>
	<path fill="#FFFFFF" d="M102.5,19.4l4.6-6c0.2-0.2,0.3-0.5,0.4-0.7c0-0.2,0.1-0.4,0.1-0.6c0-0.5-0.1-0.9-0.4-1.2
		c-0.3-0.3-0.7-0.5-1.2-0.5c-0.5,0-0.9,0.2-1.2,0.5c-0.3,0.3-0.5,0.7-0.6,1.3h-1.7c0-1,0.4-1.8,1-2.5c0.6-0.6,1.4-1,2.3-1
		c1,0,1.8,0.3,2.5,1c0.6,0.7,1,1.5,1,2.5c0,0.8-0.2,1.5-0.7,2.1l-3.8,4.9h4.5V21h-6.7V19.4z"/>
</g>
<path fill="#898989" d="M198.6,26.6c3.3-2.8,5.5-6.9,5.5-11.6c0-8.3-6.7-15-15-15c-8.3,0-15,6.7-15,15c0,4.7,2.1,8.8,5.5,11.6
	c0.6,0.5,0.6,0.5,0,0c-0.4-0.3-0.7-0.6-1.1-1L189,36.2l10.6-10.6C199.3,25.9,198.9,26.3,198.6,26.6C198,27,198,27,198.6,26.6z"/>
<g>
	<path fill="#FFFFFF" d="M181.5,12.3c0-1.1,0.4-2,1-2.6c0.6-0.6,1.4-0.9,2.3-0.9c0.9,0,1.7,0.3,2.3,0.9c0.7,0.6,1,1.5,1,2.6v5.4
		c0,1.1-0.4,2-1,2.6c-0.6,0.6-1.4,0.9-2.3,0.9c-0.9,0-1.7-0.3-2.3-0.9c-0.7-0.6-1-1.5-1-2.6V12.3z M186.5,12.4
		c0-1.2-0.6-1.8-1.7-1.9c-1.1,0-1.6,0.6-1.7,1.9v5.2c0,1.2,0.6,1.9,1.7,1.9c1.1,0,1.6-0.6,1.7-1.9V12.4z"/>
	<path fill="#FFFFFF" d="M191.9,14h0.6c0.6,0,1-0.2,1.3-0.5c0.3-0.3,0.5-0.7,0.5-1.2c0-0.5-0.2-0.9-0.5-1.3
		c-0.3-0.3-0.7-0.5-1.2-0.5c-0.4,0-0.7,0.1-1,0.4c-0.3,0.2-0.5,0.6-0.6,1.1h-1.7c0.1-0.9,0.4-1.7,1.1-2.3c0.6-0.6,1.3-0.9,2.2-0.9
		c1.1,0,1.9,0.4,2.6,1.1c0.6,0.7,0.9,1.5,0.9,2.4c0,0.5-0.1,0.9-0.3,1.4c-0.2,0.4-0.5,0.8-1,1.2c0.5,0.3,0.9,0.7,1.1,1.2
		c0.2,0.5,0.3,1,0.3,1.5c0,1.1-0.4,2-1,2.7c-0.7,0.7-1.5,1-2.6,1c-0.8,0-1.5-0.3-2.1-0.8c-0.6-0.5-1-1.3-1.2-2.3h1.7
		c0.2,0.4,0.4,0.7,0.6,1c0.3,0.3,0.7,0.4,1.1,0.4c0.5,0,0.9-0.2,1.3-0.5c0.3-0.3,0.5-0.8,0.5-1.4c0-0.6-0.2-1.1-0.5-1.4
		c-0.3-0.3-0.8-0.5-1.3-0.5h-0.7V14z"/>
</g>
<path fill="#898989" d="M285.6,26.6c3.3-2.8,5.5-6.9,5.5-11.6c0-8.3-6.7-15-15-15c-8.3,0-15,6.7-15,15c0,4.7,2.1,8.8,5.5,11.6
	c0.6,0.5,0.6,0.5,0,0c-0.4-0.3-0.7-0.6-1.1-1l10.6,10.6l10.6-10.6C286.3,25.9,286,26.3,285.6,26.6C285,27,285,27,285.6,26.6z"/>
<g>
	<path fill="#FFFFFF" d="M268.5,12.3c0-1.1,0.4-2,1-2.6c0.6-0.6,1.4-0.9,2.3-0.9c0.9,0,1.7,0.3,2.3,0.9c0.7,0.6,1,1.5,1,2.6v5.4
		c0,1.1-0.4,2-1,2.6c-0.6,0.6-1.4,0.9-2.3,0.9c-0.9,0-1.7-0.3-2.3-0.9c-0.7-0.6-1-1.5-1-2.6V12.3z M273.5,12.4
		c0-1.2-0.6-1.8-1.7-1.9c-1.1,0-1.6,0.6-1.7,1.9v5.2c0,1.2,0.6,1.9,1.7,1.9c1.1,0,1.6-0.6,1.7-1.9V12.4z"/>
	<path fill="#FFFFFF" d="M276.3,17.6l3.9-8.7h1.9l-4,8.7h3.1v-3.5h1.7v3.5h0.9v1.6h-0.9V21h-1.7v-1.8l-4.9,0V17.6z"/>
</g>
<path fill="#898989" d="M372.6,26.6c3.3-2.8,5.5-6.9,5.5-11.6c0-8.3-6.7-15-15-15c-8.3,0-15,6.7-15,15c0,4.7,2.1,8.8,5.5,11.6
	c0.6,0.5,0.6,0.5,0,0c-0.4-0.3-0.7-0.6-1.1-1l10.6,10.6l10.6-10.6C373.3,25.9,373,26.3,372.6,26.6C372.1,27,372.1,27,372.6,26.6z"/>
<g>
	<path fill="#FFFFFF" d="M355,12.3c0-1.1,0.4-2,1-2.6c0.6-0.6,1.4-0.9,2.3-0.9c0.9,0,1.7,0.3,2.3,0.9c0.7,0.6,1,1.5,1,2.6v5.4
		c0,1.1-0.4,2-1,2.6c-0.6,0.6-1.4,0.9-2.3,0.9c-0.9,0-1.7-0.3-2.3-0.9c-0.7-0.6-1-1.5-1-2.6V12.3z M360.1,12.4
		c0-1.2-0.6-1.8-1.7-1.9c-1.1,0-1.6,0.6-1.7,1.9v5.2c0,1.2,0.6,1.9,1.7,1.9c1.1,0,1.6-0.6,1.7-1.9V12.4z"/>
	<path fill="#FFFFFF" d="M363.5,8.9h6.3v1.7H365v2.8c0.6-0.4,1.2-0.7,1.9-0.7c0.5,0,0.9,0.1,1.2,0.3c0.4,0.2,0.6,0.4,0.9,0.6
		c0.3,0.3,0.6,0.7,0.7,1.2c0.1,0.2,0.1,0.5,0.2,0.9c0,0.4,0,0.8,0,1.3c0,0.8-0.1,1.4-0.2,1.8c-0.1,0.4-0.3,0.8-0.6,1.1
		c-0.2,0.3-0.6,0.6-1,0.9c-0.4,0.3-0.9,0.4-1.5,0.4c-0.8,0-1.5-0.2-2.2-0.7c-0.7-0.5-1.1-1.3-1.3-2.4h1.7c0.2,0.9,0.7,1.4,1.7,1.4
		c0.4,0,0.7-0.1,1-0.3c0.2-0.2,0.4-0.4,0.5-0.6c0.1-0.3,0.2-0.5,0.2-0.9c0-0.3,0-0.6,0-0.9c0-0.7-0.1-1.3-0.3-1.7
		c-0.1-0.2-0.3-0.4-0.5-0.5c-0.2-0.1-0.5-0.2-0.9-0.2c-0.3,0-0.6,0.1-0.8,0.2c-0.3,0.2-0.5,0.4-0.7,0.8h-1.6V8.9z"/>
</g>
<path fill="#898989" d="M459.6,26.6c3.3-2.8,5.5-6.9,5.5-11.6c0-8.3-6.7-15-15-15s-15,6.7-15,15c0,4.7,2.1,8.8,5.5,11.6
	c0.6,0.5,0.6,0.5,0,0c-0.4-0.3-0.7-0.6-1.1-1l10.6,10.6l10.6-10.6C460.4,25.9,460,26.3,459.6,26.6C459.1,27,459.1,27,459.6,26.6z"/>
<g>
	<path fill="#FFFFFF" d="M442.8,12.3c0-1.1,0.4-2,1-2.6c0.6-0.6,1.4-0.9,2.3-0.9c0.9,0,1.7,0.3,2.3,0.9c0.7,0.6,1,1.5,1,2.6v5.4
		c0,1.1-0.4,2-1,2.6c-0.6,0.6-1.4,0.9-2.3,0.9c-0.9,0-1.7-0.3-2.3-0.9c-0.7-0.6-1-1.5-1-2.6V12.3z M447.8,12.4
		c0-1.2-0.6-1.8-1.7-1.9c-1.1,0-1.6,0.6-1.7,1.9v5.2c0,1.2,0.6,1.9,1.7,1.9c1.1,0,1.6-0.6,1.7-1.9V12.4z"/>
	<path fill="#FFFFFF" d="M451,12.3c0-1.1,0.4-2,1-2.6c0.6-0.6,1.4-0.9,2.3-0.9c0.8,0,1.5,0.2,2.1,0.7c0.6,0.5,1,1.2,1.2,2.1h-1.7
		c-0.3-0.7-0.8-1-1.5-1c-1.1,0-1.6,0.6-1.7,1.9v1.1c0.8-0.3,1.6-0.4,2.3-0.4c0.8,0,1.4,0.3,2,0.8c0.5,0.5,0.8,1.4,0.8,2.6v1.1
		c0,1.1-0.4,2-1,2.6c-0.6,0.6-1.4,0.9-2.3,0.9c-0.9,0-1.7-0.3-2.3-0.9c-0.7-0.6-1-1.5-1-2.6V12.3z M452.7,17.5
		c0,1.2,0.6,1.9,1.7,1.9c1.1,0,1.6-0.6,1.7-1.9v-1c0-1.2-0.6-1.8-1.7-1.9c-1.1,0-1.6,0.6-1.7,1.9V17.5z"/>
</g>
<path fill="#898989" d="M546.6,26.6c3.3-2.8,5.5-6.9,5.5-11.6c0-8.3-6.7-15-15-15c-8.3,0-15,6.7-15,15c0,4.7,2.1,8.8,5.5,11.6
	c0.6,0.5,0.6,0.5,0,0c-0.4-0.3-0.7-0.6-1.1-1l10.6,10.6l10.6-10.6C547.4,25.9,547,26.3,546.6,26.6C546.1,27,546.1,27,546.6,26.6z"/>
<g>
	<path fill="#FFFFFF" d="M529.7,12.3c0-1.1,0.4-2,1-2.6c0.6-0.6,1.4-0.9,2.3-0.9c0.9,0,1.7,0.3,2.3,0.9c0.7,0.6,1,1.5,1,2.6v5.4
		c0,1.1-0.4,2-1,2.6c-0.6,0.6-1.4,0.9-2.3,0.9c-0.9,0-1.7-0.3-2.3-0.9c-0.7-0.6-1-1.5-1-2.6V12.3z M534.7,12.4
		c0-1.2-0.6-1.8-1.7-1.9c-1.1,0-1.6,0.6-1.7,1.9v5.2c0,1.2,0.6,1.9,1.7,1.9c1.1,0,1.6-0.6,1.7-1.9V12.4z"/>
	<path fill="#FFFFFF" d="M538.1,8.9h6.7v1.7l-4,10.4H539l4-10.4h-3.1v1.8h-1.7V8.9z"/>
</g>
<path fill="#898989" d="M633.7,26.6c3.3-2.8,5.5-6.9,5.5-11.6c0-8.3-6.7-15-15-15c-8.3,0-15,6.7-15,15c0,4.7,2.1,8.8,5.5,11.6
	c0.6,0.5,0.6,0.5,0,0c-0.4-0.3-0.7-0.6-1.1-1l10.6,10.6l10.6-10.6C634.4,25.9,634,26.3,633.7,26.6C633.1,27,633.1,27,633.7,26.6z"/>
<g>
	<path fill="#FFFFFF" d="M616.5,12.3c0-1.1,0.4-2,1-2.6c0.6-0.6,1.4-0.9,2.3-0.9c0.9,0,1.7,0.3,2.3,0.9c0.7,0.6,1,1.5,1,2.6v5.4
		c0,1.1-0.4,2-1,2.6c-0.6,0.6-1.4,0.9-2.3,0.9c-0.9,0-1.7-0.3-2.3-0.9c-0.7-0.6-1-1.5-1-2.6V12.3z M621.6,12.4
		c0-1.2-0.6-1.8-1.7-1.9c-1.1,0-1.6,0.6-1.7,1.9v5.2c0,1.2,0.6,1.9,1.7,1.9c1.1,0,1.6-0.6,1.7-1.9V12.4z"/>
	<path fill="#FFFFFF" d="M624.5,17.5c0-1.2,0.5-2.1,1.4-2.7c-0.4-0.3-0.6-0.7-0.9-1.1c-0.2-0.4-0.4-0.8-0.4-1.4c0-1,0.3-1.9,1-2.5
		c0.6-0.7,1.4-1,2.4-1c1,0,1.8,0.3,2.4,1c0.6,0.7,1,1.5,1,2.5c0,0.5-0.1,1-0.3,1.4c-0.2,0.4-0.5,0.8-0.9,1.1
		c0.9,0.7,1.4,1.6,1.4,2.7c0,1.1-0.4,2-1,2.6c-0.7,0.7-1.6,1-2.6,1c-1,0-1.8-0.4-2.5-1C624.9,19.5,624.5,18.6,624.5,17.5z
		 M626.2,17.5c0,0.6,0.2,1,0.6,1.4c0.4,0.4,0.8,0.6,1.3,0.6c0.5,0,1-0.2,1.4-0.6c0.4-0.4,0.6-0.8,0.6-1.4c0-0.6-0.2-1-0.6-1.4
		c-0.4-0.4-0.8-0.5-1.4-0.5c-0.5,0-1,0.2-1.3,0.5C626.4,16.4,626.2,16.9,626.2,17.5z M626.4,12.2c0,0.6,0.2,1,0.5,1.3
		c0.3,0.3,0.7,0.5,1.2,0.5c0.5,0,0.9-0.2,1.2-0.5c0.3-0.3,0.5-0.7,0.5-1.3c0-0.6-0.2-1-0.5-1.3c-0.3-0.3-0.7-0.4-1.2-0.4
		c-0.4,0-0.8,0.1-1.2,0.4C626.6,11.2,626.4,11.7,626.4,12.2z"/>
</g>
<path fill="#898989" d="M720.7,26.6c3.3-2.8,5.5-6.9,5.5-11.6c0-8.3-6.7-15-15-15c-8.3,0-15,6.7-15,15c0,4.7,2.1,8.8,5.5,11.6
	c0.6,0.5,0.6,0.5,0,0c-0.4-0.3-0.7-0.6-1.1-1l10.6,10.6l10.6-10.6C721.4,25.9,721.1,26.3,720.7,26.6C720.1,27,720.1,27,720.7,26.6z"
	/>
<g>
	<path fill="#FFFFFF" d="M703.6,12.3c0-1.1,0.4-2,1-2.6c0.6-0.6,1.4-0.9,2.3-0.9c0.9,0,1.7,0.3,2.3,0.9c0.7,0.6,1,1.5,1,2.6v5.4
		c0,1.1-0.4,2-1,2.6c-0.6,0.6-1.4,0.9-2.3,0.9c-0.9,0-1.7-0.3-2.3-0.9c-0.7-0.6-1-1.5-1-2.6V12.3z M708.6,12.4
		c0-1.2-0.6-1.8-1.7-1.9c-1.1,0-1.6,0.6-1.7,1.9v5.2c0,1.2,0.6,1.9,1.7,1.9c1.1,0,1.6-0.6,1.7-1.9V12.4z"/>
	<path fill="#FFFFFF" d="M711.8,12.3c0-1.1,0.4-2,1-2.6c0.6-0.6,1.4-0.9,2.3-0.9c0.9,0,1.7,0.3,2.3,0.9c0.7,0.6,1,1.5,1,2.6v5.4
		c0,1.1-0.4,2-1,2.6c-0.6,0.6-1.4,0.9-2.3,0.9c-0.8,0-1.5-0.3-2.1-0.7c-0.6-0.5-1-1.1-1.2-2h1.7c0.3,0.7,0.8,1,1.5,1
		c1.1,0,1.6-0.6,1.7-1.9v-1.1c-0.8,0.3-1.6,0.4-2.3,0.4c-0.8,0-1.4-0.3-2-0.8c-0.5-0.5-0.8-1.4-0.8-2.6V12.3z M713.5,13.4
		c0,1.2,0.6,1.9,1.7,1.9c1.1,0,1.6-0.6,1.7-1.9v-1c0-1.2-0.6-1.8-1.7-1.9c-1.1,0-1.6,0.6-1.7,1.9V13.4z"/>
</g>
<g>
	<path fill="#FFFFFF" d="M867.8,15.5c0-1.9,0.6-3.3,1.7-4.3c1.1-1,2.3-1.5,3.8-1.5c1.5,0,2.8,0.5,3.9,1.5c1.1,1,1.7,2.5,1.7,4.3v9
		c0,1.9-0.6,3.3-1.7,4.3c-1.1,1-2.4,1.5-3.9,1.5c-1.5,0-2.8-0.5-3.8-1.5c-1.1-1-1.7-2.4-1.7-4.3V15.5z M876.2,15.7
		c-0.1-2-1-3.1-2.8-3.1c-1.8,0-2.7,1.1-2.8,3.1v8.6c0,2.1,1,3.1,2.8,3.1c1.8,0,2.7-1.1,2.8-3.1V15.7z"/>
	<path fill="#FFFFFF" d="M881.3,27.4l7.7-9.9c0.3-0.4,0.5-0.8,0.6-1.1c0.1-0.3,0.1-0.6,0.1-0.9c0-0.8-0.2-1.4-0.7-2
		c-0.5-0.6-1.2-0.9-2-0.9c-0.8,0-1.4,0.3-1.9,0.8c-0.5,0.5-0.8,1.2-0.9,2.2h-2.8c0.1-1.7,0.6-3.1,1.6-4.2c1-1.1,2.3-1.6,3.8-1.6
		c1.7,0,3.1,0.6,4.1,1.7c1.1,1.1,1.6,2.5,1.6,4.1c0,1.3-0.4,2.5-1.2,3.6l-6.3,8.2h7.5v2.9h-11.2V27.4z"/>
</g>
<g>
	<path fill="#FFFFFF" d="M944.9,15.4c0-1.9,0.6-3.3,1.7-4.3c1.1-1,2.3-1.5,3.8-1.5c1.5,0,2.8,0.5,3.9,1.5c1.1,1,1.7,2.5,1.7,4.3v9
		c0,1.9-0.6,3.3-1.7,4.3c-1.1,1-2.4,1.5-3.9,1.5c-1.5,0-2.8-0.5-3.8-1.5c-1.1-1-1.7-2.4-1.7-4.3V15.4z M953.3,15.6
		c-0.1-2-1-3.1-2.8-3.1c-1.8,0-2.7,1.1-2.8,3.1v8.6c0,2.1,1,3.1,2.8,3.1c1.8,0,2.7-1.1,2.8-3.1V15.6z"/>
	<path fill="#FFFFFF" d="M962.4,18.3h1c1,0,1.7-0.3,2.2-0.8c0.5-0.5,0.8-1.2,0.8-2.1c0-0.9-0.3-1.6-0.8-2.1
		c-0.5-0.5-1.2-0.8-2.1-0.8c-0.6,0-1.2,0.2-1.6,0.6c-0.5,0.4-0.9,1-1.1,1.9H958c0.1-1.5,0.7-2.8,1.8-3.8c1-1,2.2-1.5,3.6-1.6
		c1.8,0,3.2,0.6,4.3,1.8c1,1.1,1.5,2.5,1.5,4c0,0.8-0.1,1.5-0.4,2.3c-0.3,0.7-0.9,1.4-1.7,1.9c0.9,0.6,1.5,1.2,1.9,2
		c0.4,0.8,0.5,1.6,0.5,2.5c0,1.9-0.6,3.4-1.7,4.5c-1.1,1.1-2.5,1.7-4.3,1.7c-1.3,0-2.5-0.4-3.6-1.3c-1-0.9-1.7-2.2-2-3.9h2.8
		c0.3,0.7,0.6,1.2,1.1,1.6c0.5,0.4,1.1,0.7,1.9,0.7c0.8,0,1.5-0.3,2.1-0.9c0.6-0.5,0.9-1.3,0.9-2.3c0-1-0.3-1.8-0.9-2.4
		c-0.6-0.5-1.3-0.8-2.2-0.8h-1.2V18.3z"/>
</g>
<g>
	<path fill="#FFFFFF" d="M1021.4,15.4c0-1.9,0.6-3.3,1.7-4.3c1.1-1,2.3-1.5,3.8-1.5c1.5,0,2.8,0.5,3.9,1.5c1.1,1,1.7,2.5,1.7,4.3v9
		c0,1.9-0.6,3.3-1.7,4.3c-1.1,1-2.4,1.5-3.9,1.5c-1.5,0-2.8-0.5-3.8-1.5c-1.1-1-1.7-2.4-1.7-4.3V15.4z M1029.8,15.6
		c-0.1-2-1-3.1-2.8-3.1c-1.8,0-2.7,1.1-2.8,3.1v8.6c0,2.1,1,3.1,2.8,3.1c1.8,0,2.7-1.1,2.8-3.1V15.6z"/>
	<path fill="#FFFFFF" d="M1034.4,24.3l6.6-14.6h3.1l-6.6,14.6h5.1v-5.8h2.8v5.8h1.6V27h-1.6v3h-2.8v-3l-8.2,0V24.3z"/>
</g>
<g>
	<path fill="#FFFFFF" d="M1098.8,15.5c0-1.9,0.6-3.3,1.7-4.3c1.1-1,2.3-1.5,3.8-1.5c1.5,0,2.8,0.5,3.9,1.5c1.1,1,1.7,2.5,1.7,4.3v9
		c0,1.9-0.6,3.3-1.7,4.3c-1.1,1-2.4,1.5-3.9,1.5c-1.5,0-2.8-0.5-3.8-1.5c-1.1-1-1.7-2.4-1.7-4.3V15.5z M1107.1,15.7
		c-0.1-2-1-3.1-2.8-3.1c-1.8,0-2.7,1.1-2.8,3.1v8.6c0,2.1,1,3.1,2.8,3.1c1.8,0,2.7-1.1,2.8-3.1V15.7z"/>
	<path fill="#FFFFFF" d="M1112.8,9.8h10.5v2.9h-7.8v4.6c0.9-0.7,2-1.1,3.2-1.1c0.8,0,1.5,0.2,2.1,0.4c0.6,0.3,1.1,0.6,1.4,1.1
		c0.5,0.6,0.9,1.2,1.2,1.9c0.1,0.4,0.2,0.9,0.3,1.5c0.1,0.6,0.1,1.3,0.1,2.2c0,1.3-0.1,2.3-0.3,3c-0.2,0.7-0.5,1.3-0.9,1.9
		c-0.4,0.5-0.9,1-1.7,1.4c-0.7,0.5-1.6,0.7-2.6,0.7c-1.3,0-2.5-0.4-3.7-1.2c-1.1-0.8-1.8-2.2-2.1-4h2.8c0.3,1.6,1.2,2.4,2.8,2.4
		c0.7,0,1.2-0.1,1.6-0.4c0.4-0.3,0.7-0.6,0.8-1.1c0.2-0.4,0.3-0.9,0.3-1.4c0-0.5,0-1,0-1.5c0-1.2-0.2-2.1-0.5-2.8
		c-0.2-0.3-0.5-0.6-0.9-0.8c-0.4-0.2-0.9-0.3-1.4-0.3c-0.5,0-1,0.1-1.4,0.4c-0.4,0.3-0.8,0.7-1.1,1.3h-2.6V9.8z"/>
</g>
<g>
	<path fill="#FFFFFF" d="M1175.8,15.4c0-1.9,0.6-3.3,1.7-4.3c1.1-1,2.3-1.5,3.8-1.5c1.5,0,2.8,0.5,3.9,1.5c1.1,1,1.7,2.5,1.7,4.3v9
		c0,1.9-0.6,3.3-1.7,4.3c-1.1,1-2.4,1.5-3.9,1.5c-1.5,0-2.8-0.5-3.8-1.5c-1.1-1-1.7-2.4-1.7-4.3V15.4z M1184.2,15.6
		c-0.1-2-1-3.1-2.8-3.1c-1.8,0-2.7,1.1-2.8,3.1v8.6c0,2.1,1,3.1,2.8,3.1c1.8,0,2.7-1.1,2.8-3.1V15.6z"/>
	<path fill="#FFFFFF" d="M1189.5,15.4c0-1.9,0.6-3.3,1.7-4.3c1.1-1,2.3-1.5,3.8-1.5c1.3,0,2.5,0.4,3.6,1.2c1,0.8,1.7,1.9,1.9,3.4
		h-2.9c-0.4-1.1-1.3-1.7-2.6-1.7c-1.8,0-2.7,1.1-2.8,3.1v1.9c1.3-0.4,2.6-0.6,3.8-0.6c1.3,0,2.4,0.4,3.3,1.3
		c0.9,0.9,1.3,2.3,1.3,4.3v1.9c0,1.9-0.6,3.3-1.7,4.3c-1.1,1-2.4,1.5-3.9,1.5c-1.5,0-2.8-0.5-3.8-1.5c-1.1-1-1.7-2.4-1.7-4.3V15.4z
		 M1192.3,24.2c0,2.1,1,3.1,2.8,3.1c1.8,0,2.7-1.1,2.8-3.1v-1.7c-0.1-2-1-3.1-2.8-3.1c-1.8,0-2.7,1.1-2.8,3.1V24.2z"/>
</g>
<g>
	<path fill="#FFFFFF" d="M1252.7,15.4c0-1.9,0.6-3.3,1.7-4.3c1.1-1,2.3-1.5,3.8-1.5c1.5,0,2.8,0.5,3.9,1.5c1.1,1,1.7,2.5,1.7,4.3v9
		c0,1.9-0.6,3.3-1.7,4.3c-1.1,1-2.4,1.5-3.9,1.5c-1.5,0-2.8-0.5-3.8-1.5c-1.1-1-1.7-2.4-1.7-4.3V15.4z M1261,15.6
		c-0.1-2-1-3.1-2.8-3.1c-1.8,0-2.7,1.1-2.8,3.1v8.6c0,2.1,1,3.1,2.8,3.1c1.8,0,2.7-1.1,2.8-3.1V15.6z"/>
	<path fill="#FFFFFF" d="M1266.7,9.8h11.2v2.9l-6.7,17.4h-3.1l6.6-17.4h-5.2v2.9h-2.8V9.8z"/>
</g>
<g>
	<path fill="#FFFFFF" d="M1329.6,15.6c0-1.9,0.6-3.3,1.7-4.3c1.1-1,2.3-1.5,3.8-1.5c1.5,0,2.8,0.5,3.9,1.5c1.1,1,1.7,2.5,1.7,4.3v9
		c0,1.9-0.6,3.3-1.7,4.3c-1.1,1-2.4,1.5-3.9,1.5c-1.5,0-2.8-0.5-3.8-1.5c-1.1-1-1.7-2.4-1.7-4.3V15.6z M1338,15.8
		c-0.1-2-1-3.1-2.8-3.1c-1.8,0-2.7,1.1-2.8,3.1v8.6c0,2.1,1,3.1,2.8,3.1c1.8,0,2.7-1.1,2.8-3.1V15.8z"/>
	<path fill="#FFFFFF" d="M1342.9,24.3c0-2,0.8-3.5,2.4-4.6c-0.6-0.5-1.1-1.1-1.4-1.8c-0.4-0.6-0.6-1.4-0.6-2.3
		c0-1.7,0.6-3.1,1.7-4.2c1-1.1,2.3-1.7,4-1.7c1.6,0,3,0.6,4,1.7c1.1,1.1,1.6,2.5,1.6,4.2c0,0.9-0.2,1.6-0.5,2.3
		c-0.4,0.7-0.9,1.3-1.5,1.8c1.6,1.1,2.4,2.6,2.4,4.6c0,1.8-0.6,3.3-1.7,4.4c-1.2,1.1-2.6,1.7-4.3,1.7c-1.7,0-3.1-0.6-4.2-1.7
		C1343.5,27.6,1342.9,26.1,1342.9,24.3z M1345.7,24.3c0,0.9,0.3,1.7,1,2.3c0.6,0.6,1.3,0.9,2.2,0.9c0.9,0,1.7-0.3,2.3-0.9
		c0.6-0.6,0.9-1.4,1-2.3c0-0.9-0.3-1.7-1-2.3c-0.6-0.6-1.4-0.9-2.3-0.9c-0.9,0-1.6,0.3-2.2,0.9C1346.1,22.6,1345.7,23.3,1345.7,24.3
		z M1346.1,15.6c0,0.9,0.3,1.7,0.9,2.2c0.6,0.5,1.2,0.8,1.9,0.8c0.8,0,1.4-0.3,2-0.8c0.6-0.5,0.8-1.2,0.9-2.2c0-1-0.3-1.7-0.9-2.2
		c-0.6-0.5-1.2-0.7-2-0.7c-0.7,0-1.4,0.2-1.9,0.7C1346.4,13.9,1346.1,14.6,1346.1,15.6z"/>
</g>
<g>
	<path fill="#FFFFFF" d="M1406.7,15.4c0-1.9,0.6-3.3,1.7-4.3c1.1-1,2.3-1.5,3.8-1.5c1.5,0,2.8,0.5,3.9,1.5c1.1,1,1.7,2.5,1.7,4.3v9
		c0,1.9-0.6,3.3-1.7,4.3c-1.1,1-2.4,1.5-3.9,1.5c-1.5,0-2.8-0.5-3.8-1.5c-1.1-1-1.7-2.4-1.7-4.3V15.4z M1415,15.6
		c-0.1-2-1-3.1-2.8-3.1c-1.8,0-2.7,1.1-2.8,3.1v8.6c0,2.1,1,3.1,2.8,3.1c1.8,0,2.7-1.1,2.8-3.1V15.6z"/>
	<path fill="#FFFFFF" d="M1420.4,15.4c0-1.9,0.6-3.3,1.7-4.3c1.1-1,2.3-1.5,3.8-1.5c1.5,0,2.8,0.5,3.9,1.5c1.1,1,1.7,2.5,1.7,4.3v9
		c0,1.9-0.6,3.3-1.7,4.3c-1.1,1-2.4,1.5-3.9,1.5c-1.3,0-2.5-0.4-3.5-1.2c-1-0.8-1.7-1.9-2-3.4h2.9c0.4,1.1,1.3,1.7,2.6,1.7
		c1.8,0,2.7-1.1,2.8-3.1v-1.9c-1.3,0.4-2.6,0.6-3.8,0.6c-1.3,0-2.4-0.4-3.3-1.4c-0.9-0.9-1.3-2.3-1.3-4.3V15.4z M1423.2,17.3
		c0,2.1,1,3.1,2.8,3.1c1.8,0,2.7-1.1,2.8-3.1v-1.7c-0.1-2-1-3.1-2.8-3.1c-1.8,0-2.7,1.1-2.8,3.1V17.3z"/>
</g>
</svg>
