<?xml version="1.0" encoding="utf-8"?>
<!-- Generator: Adobe Illustrator 21.0.2, SVG Export Plug-In . SVG Version: 6.00 Build 0)  -->
<svg version="1.1" id="レイヤー_1" xmlns="http://www.w3.org/2000/svg" xmlns:xlink="http://www.w3.org/1999/xlink" x="0px"
	 y="0px" width="300px" height="70px" viewBox="0 0 300 70" style="enable-background:new 0 0 300 70;" xml:space="preserve">
<style type="text/css">
	.st0{fill:#231F20;}
	.st1{fill:#B8282F;}
</style>
<g>
	<path class="st0" d="M265.3,10.5h-2.6v5H253V18h9.6c-0.4,3-2.3,8.7-9.4,11.9l1,2.3c5.7-2.5,8.5-6.4,9.8-9.8
		c1.4,3.4,4.1,7.3,9.8,9.8l1-2.3c-7.2-3.1-9-8.8-9.4-11.9h9.9v-2.6h-10V10.5"/>
	<path class="st0" d="M300,23.4h-9c1.9-0.9,3.6-2.2,4.6-3.4l0.3-0.3v-1.9h-13.5v2.6c0,0,5.5,0,9,0c-0.8,0.5-1.6,0.9-2.5,1.2
		l-0.9,0.3c0,0,0,0.7,0,1.6h-9.7V26h9.7c0,2,0,3.7,0,3.7s0,0-0.1,0H284v2.6h3.8c1.5,0,2.7-1.2,2.7-2.6c0,0,0-1.9,0-3.7h9.5V23.4"/>
	<path class="st0" d="M298.6,13.7h-2.1c0.5-1,0.9-1.9,1.2-2.7l-2.4-0.8c-0.4,1-1,2.4-1.7,3.6h-2.7c-0.3-1.2-0.9-2.7-1.5-3.8
		l-2.3,1.2c0.4,0.8,0.8,1.7,1.1,2.6h-3.7c-0.3-1.2-0.9-2.7-1.5-3.8l-2.3,1.2c0.4,0.8,0.8,1.7,1.1,2.6h-3.6v5h2.6c0,0,0-1.4,0-2.5
		c2.1,0,14.4,0,16.4,0c0,1.1,0,2.5,0,2.5h2.6v-5L298.6,13.7"/>
	<path class="st0" d="M241.1,22.5h8.2v-2.6h-4.4c0.6-1.2,1-2.5,1.3-3.6l-2.5-0.6c-0.3,1.3-1.1,3.2-1.7,4.2h-2.1v-4.5h8.7v-2.6h-8.7
		v-2.5h-2.6v2.5h-8.7v2.6h8.7v4.5h-2.4c-0.5-1.6-1.2-3.2-1.8-4.4l-2.2,1.2c0.5,0.8,1,2,1.4,3.2h-4.6v2.6h8.3
		c-1.9,2.5-5.1,5.1-8.5,6.8l1.1,2.3c3.4-1.6,6.6-4.1,8.8-6.7v7.3h2.6V25c2.2,2.5,5.3,4.9,8.6,6.5l1.1-2.3
		C246.2,27.6,243,25,241.1,22.5"/>
	<path class="st0" d="M215.7,22.1h7.7v-2.6H214v-4.2h8.3v-2.6H214v-2.5h-2.6v2.5h-8.3v2.6h8.3v4.2h-9.7v2.6h8
		c-1.7,2.6-4.7,5.4-8.2,7.1l1.1,2.3c2.9-1.4,6.5-4.2,8.8-7.4V32h2.6v-8c2.3,3.1,5.9,6,8.8,7.4l1.1-2.3
		C220.4,27.5,217.4,24.7,215.7,22.1"/>
	<path class="st0" d="M125.2,23.5c0-0.1-0.1-5.9-0.1-6.1c0.2,0,4.3,0,4.3,0v-2.8c0,0-4.1,0-4.3,0c0-0.2-0.1-3.8-0.1-3.8h-0.1h-2.7
		c0,0,0.1,3.5,0.1,3.8c-0.2,0-7,0-7,0v2.8c0,0,6.8,0,7,0c0,0.2,0.1,4.9,0.1,5.2c-0.7-0.1-1.3-0.2-1.8-0.2c-3.8,0-5.5,2.4-5.5,4.7
		c0,2.1,1.7,4.2,5.5,4.2c1.5,0,2.7-0.4,3.6-1.3c0.8-0.8,1.2-1.9,1.2-3.2c0,0,0,0,0-0.1c0.9,0.6,1.8,1.4,2.8,2.4l0.1,0.1l2-1.8
		l-0.1-0.1C128.4,25.5,126.8,24.3,125.2,23.5 M117.7,27c0-1.3,1.1-2,2.8-2c0.6,0,1.2,0.1,1.9,0.3c0,0.2,0,1.3,0,1.3v0.1
		c0,0.6-0.1,1-0.4,1.3s-0.8,0.5-1.5,0.5C119.2,28.5,117.7,28.1,117.7,27z"/>
	<path class="st0" d="M112.7,11.9v-0.1l-2.8-0.5v0.1c-0.9,5.4-0.9,13.8,0,19.7v0.1l2.8-0.4v-0.1C111.9,25.8,111.7,17.5,112.7,11.9"
		/>
	<path class="st0" d="M140.8,16L140.8,16l1.6,2.2l0.1-0.1c1.6-1.4,6-2.9,7.9-3.1h0.1v-0.1v-2.7h-15.4V15c0,0,6.4,0,7.2,0
		C141.8,15.3,141.2,15.7,140.8,16"/>
	<path class="st0" d="M144.1,28.1c-4.9,0-6.9-0.6-7.4-2.4c-0.6-1.9,1.8-4.4,1.9-4.5l0.1-0.1l-1.9-1.9l-0.1,0.1
		c-0.1,0.1-2.7,2.8-2.7,5.8c0,0.5,0.1,0.9,0.2,1.4c1.2,4,5.6,4.3,10,4.3c3.7,0,6-0.2,6.8-0.2h0.1v-2.8H151
		C150.9,27.9,148.5,28.1,144.1,28.1"/>
	<path class="st0" d="M171.5,10.6H169v3.3c0,0-6.4,0-6.6,0c0.2-1.2,0.3-2.2,0.4-3.1v-0.1l-2.8-0.2v0.1c-0.1,0.9-0.2,2-0.4,3.3
		c-0.2,0-3.9,0-3.9,0v2.8c0,0,3.1,0,3.4,0c-1,4.7-2.7,9.9-4.2,13.3l-0.1,0.1l2.6,1.1v-0.1c1.7-3.7,3.5-9.4,4.5-14.5
		c0.2,0,9.6,0,9.6,0V10.6"/>
	<polyline class="st0" points="165.1,20.9 174.7,20.9 174.7,18.1 165.1,18.1 165.1,20.9 	"/>
	<polyline class="st0" points="172.7,10.6 172.7,16.7 175.1,16.7 175.1,10.6 172.7,10.6 	"/>
	<path class="st0" d="M175.1,28.2l-4.4,0.1c-3.9,0-4.8-0.2-5.2-1.4c-0.3-0.9,0.7-2,1-2.3l0.1-0.1l-1.7-2.1l-0.1,0.1
		c-1.1,0.9-2.6,3.1-1.9,5.3l0,0c1,3.3,4.3,3.3,7.8,3.3l4.4-0.1v-0.1L175.1,28.2"/>
	<path class="st0" d="M198.5,12.7h-19.7v2.8c0,0,9.1,0,9.9,0c-2.9,1.6-5.6,5.2-5.6,8.6c0,0.4,0,0.9,0.1,1.3
		c0.5,2.1,2.8,5.7,12.5,5.7h0.1v-2.8h-0.1c-6.2,0-9.8-1.7-9.9-4.6c-0.1-3.5,5.4-8,11.8-8.2h1v-2.8L198.5,12.7"/>
	<path class="st0" d="M104,13.5c0,0-8.5,0-8.7,0c0-0.2,0-3,0-3h-2.8c0,0,0,2.8,0,3c-0.2,0-8.7,0-8.7,0v2.8H104V13.5"/>
	<path class="st0" d="M89.1,17.1L89.1,17.1l-2.6,1v0.1c1.1,2.7,2,7.3,2.2,9.6v0.1l2.7-0.2v-0.1c-0.2-2.8-1.3-7.7-2.4-10.5H89.1"/>
	<path class="st0" d="M100.7,17.7v-0.1L98,17v0.1c-1.3,6.2-2.6,9.8-3.3,11.5c-0.2,0-11.8,0-11.8,0v2.8H105v-2.8c0,0-7,0-7.3,0
		C98.4,26.5,99.6,23,100.7,17.7"/>
	<path class="st0" d="M59.4,20.6c2.2-1.9,5.3-5.4,6.9-8.6l0.1-0.1l-2.5-1.3l-0.1,0.1c-1.4,2.7-4.2,6-6.3,7.8l-0.1,0.1L59.4,20.6
		L59.4,20.6"/>
	<path class="st0" d="M73.4,10.7l-0.1-0.1l-0.1,0.1l-2.4,1.2l0.1,0.1c1.5,2.8,4.4,6.5,6.9,8.7l0.1,0.1l1.9-2.1l-0.1-0.1
		C77.4,16.6,74.7,13.2,73.4,10.7"/>
	<path class="st0" d="M73.6,22.2L73.6,22.2l-2.3,1.6l0.4,0.5c0.7,1,1.5,1.9,2.2,3c-0.4,0-8,1-8.5,1c1.6-3.2,3.4-7.9,4-10.4v-0.1
		l-2.8-0.6v0.1c-0.6,2.9-3.1,9.1-4.7,11.4c-0.1,0-2.8,0.3-2.8,0.3l0.3,2.8c0,0,15.8-1.9,15.9-1.9c0.1,0.1,1.2,2.2,1.2,2.2l0.1-0.1
		l2.4-1.2l0-0.1C77.5,27.8,75.6,24.8,73.6,22.2"/>
	<path class="st1" d="M21.3,20.2c0.9,0.8,1.5,2,1.5,3.3c0,2.4-1.9,4.3-4.3,4.3c-1.8,0-3.4-1.1-4-2.7c-0.3-0.7-0.4-1.3-0.6-2
		c-0.8-3-3.6-5.2-6.8-5.2C3.2,17.9,0,21.1,0,25c0,3.7,2.9,6.8,6.6,7c0.9,0.1,1.5,0,2.2,0c2.1,0.1,3.8,1.8,3.8,4
		c0,0.9-0.3,1.7-0.8,2.4c-0.5,0.6-1.2,1.2-1.6,1.7c-0.8,1-1.3,2.2-1.3,3.6c0,3,2.4,5.5,5.5,5.5c1.8,0,3.5-0.9,4.4-2.3
		c0.2-0.3,0.9-1.4,1.1-1.7c0.8-1.2,2.1-2,3.7-2c1.4,0,2.5,0.7,3.4,1.6c0.3,0.4,0.7,1,1.2,1.9c1.6,2.6,4.5,4.5,7.8,4.5c5,0,9-4,9-9
		c0-2.1-0.7-4-1.9-5.5c-0.5-0.6-1.1-1.3-1.5-1.8c-0.5-0.7-0.8-1.5-0.8-2.3c0-1.8,1.2-3.3,2.8-3.8c0.6-0.2,1.2-0.2,2-0.4
		c3.2-0.6,5.6-3.5,5.6-6.9c0-3.9-3.1-7-7-7c-1.2,0-2.4,0.4-3.4,0.9c-0.5,0.3-1.4,0.9-1.7,1.1c-0.4,0.2-0.8,0.3-1.3,0.3
		c-1.6,0-2.8-1.3-2.8-2.8v-0.1c0-0.7,0.1-1.4,0.2-1.7c0.1-0.6,0.2-1.3,0.2-1.9C35.3,4.6,30.7,0,25,0S14.7,4.6,14.7,10.3
		c0,3.5,1.8,6.6,4.5,8.5C19.7,19,20.8,19.8,21.3,20.2"/>
	<path class="st0" d="M59.4,37.5v8.8h1.7c0,0,0-3.5,0-3.8c0.2,0,2.7,0,2.7,0V41c0,0-2.5,0-2.7,0c0-0.2,0-1.7,0-1.9
		c0.2,0,2.7,0,2.7,0v-1.5L59.4,37.5"/>
	<path class="st0" d="M72.5,37.5v6c0,1-0.3,1.3-1.3,1.3c-0.9,0-1.3-0.4-1.3-1.3v-6h-1.7v6.4c0,1.2,0.8,2.6,3,2.6s3-1.4,3-2.6v-6.4
		H72.5"/>
	<path class="st0" d="M78.4,37.5v1.6c0,0,1.6,0,1.8,0c0,0.2,0,7.2,0,7.2h1.7c0,0,0-6.9,0-7.2c0.2,0,1.8,0,1.8,0v-1.6H78.4"/>
	<path class="st0" d="M92.2,37.5v6c0,1-0.3,1.3-1.3,1.3c-0.9,0-1.3-0.4-1.3-1.3v-6h-1.7v6.4c0,1.2,0.8,2.6,3,2.6s3-1.4,3-2.6v-6.4
		H92.2"/>
	<path class="st0" d="M104.2,40.3c0-1.3-0.7-2.8-2.8-2.8h-2.7v8.8h1.7c0,0,0-2.9,0-3.5c0.3,0.5,2.3,3.5,2.3,3.5h2
		c0,0-2.2-3.2-2.4-3.5C103.5,42.6,104.2,41.7,104.2,40.3 M100.4,39c0.2,0,0.6,0,0.6,0c1,0,1.4,0.4,1.4,1.3c0,0.8-0.4,1.1-1.3,1.1
		c0,0-0.5,0-0.7,0C100.4,41.3,100.4,39.3,100.4,39z"/>
	<path class="st0" d="M110.5,42.5c0.2,0,3,0,3,0V41c0,0-2.7,0-3,0c0-0.2,0-1.7,0-1.9c0.2,0,2.9,0,2.9,0v-1.5h-4.6v8.8h4.7v-1.5
		c0,0-2.8,0-3,0C110.5,44.5,110.5,42.7,110.5,42.5"/>
	<path class="st0" d="M129.3,37.5v6c0,1-0.3,1.3-1.3,1.3c-0.9,0-1.3-0.4-1.3-1.3v-6H125v6.4c0,1.2,0.8,2.6,3,2.6s3-1.4,3-2.6v-6.4
		H129.3"/>
	<path class="st0" d="M140.1,37.5c0,0,0,4.4,0,5.2c-0.4-0.7-2.5-5.2-2.5-5.2h-1.8v8.8h1.5c0,0,0-4.8,0-5.6c0.4,0.7,2.8,5.6,2.8,5.6
		h1.5v-8.8H140.1"/>
	<rect x="146.9" y="37.5" class="st0" width="1.7" height="8.8"/>
	<path class="st0" d="M157.8,37.5c0,0-1.4,5.2-1.6,5.9c-0.2-0.7-1.6-5.9-1.6-5.9h-1.8l2.6,8.8h1.5l2.6-8.8H157.8"/>
	<path class="st0" d="M165.3,42.5c0.2,0,3,0,3,0V41c0,0-2.7,0-3,0c0-0.2,0-1.7,0-1.9c0.2,0,2.9,0,2.9,0v-1.5h-4.6v8.8h4.7v-1.5
		c0,0-2.8,0-3,0C165.3,44.5,165.3,42.7,165.3,42.5"/>
	<path class="st0" d="M178.7,40.3c0-1.3-0.7-2.8-2.8-2.8h-2.7v8.8h1.7c0,0,0-2.9,0-3.5c0.3,0.5,2.3,3.5,2.3,3.5h2
		c0,0-2.2-3.2-2.4-3.5C178,42.6,178.7,41.7,178.7,40.3 M174.9,39c0.2,0,0.6,0,0.6,0c1,0,1.4,0.4,1.4,1.3c0,0.8-0.4,1.1-1.3,1.1
		c0,0-0.5,0-0.7,0C174.9,41.3,174.9,39.3,174.9,39z"/>
	<path class="st0" d="M185.7,41c-0.8-0.3-1.3-0.5-1.3-1.1c0-0.5,0.2-1,0.9-1c0.8,0,1,0.8,1,1.1v0.1h1.6V40c-0.1-1.7-1-2.6-2.5-2.6
		s-2.6,1-2.6,2.4c0,1.9,1.2,2.4,2.2,2.7c0.8,0.3,1.4,0.5,1.4,1.3c0,0.6-0.4,1.1-1.1,1.1c-0.7,0-1-0.4-1.1-1.4v-0.1h-1.6v0.1
		c0,1.8,1.1,2.9,2.7,2.9c1.6,0,2.7-1.1,2.7-2.7C188,41.8,186.7,41.3,185.7,41"/>
	<rect x="192.6" y="37.5" class="st0" width="1.7" height="8.8"/>
	<path class="st0" d="M198.5,37.5v1.6c0,0,1.6,0,1.8,0c0,0.2,0,7.2,0,7.2h1.7c0,0,0-6.9,0-7.2c0.2,0,1.8,0,1.8,0v-1.6H198.5"/>
	<path class="st0" d="M211.2,37.5c0,0-1.1,2.9-1.3,3.3c-0.2-0.5-1.3-3.3-1.3-3.3h-1.8l2.3,5.3v3.5h1.7v-3.6l2.3-5.2H211.2"/>
	<path class="st0" d="M227.9,37.5c0,0,0,3.2,0,3.4c-0.2,0-2.3,0-2.5,0c0-0.2,0-3.4,0-3.4h-1.7v8.8h1.7c0,0,0-3.6,0-3.8
		c0.2,0,2.3,0,2.5,0c0,0.2,0,3.8,0,3.8h1.7v-8.8H227.9"/>
	<polyline class="st0" points="251.2,37.5 249.2,37.5 247,40.9 247,37.5 245.3,37.5 245.3,46.3 247,46.3 247,43.3 247.7,42.3 
		249.6,46.3 251.4,46.3 248.8,41 251.2,37.5 	"/>
	<path class="st0" d="M258.6,37.4c-2,0-3.3,1.8-3.3,4.5c0,2.8,1.3,4.5,3.3,4.5s3.3-1.8,3.3-4.5C261.9,39.1,260.6,37.4,258.6,37.4
		 M258.6,44.9c-1,0-1.6-1.1-1.6-3s0.6-3,1.6-3s1.6,1.1,1.6,3C260.2,43.8,259.6,44.9,258.6,44.9z"/>
	<path class="st0" d="M269.6,37.5h-3v8.8h2.6c2.2,0,3.6-1.7,3.6-4.4C272.8,39.2,271.5,37.5,269.6,37.5 M268.3,39c0.2,0,1,0,1,0
		c1.2,0,1.8,1,1.8,2.9c0,1.8-0.7,2.8-1.8,2.8c0,0-0.8,0-1,0C268.3,44.5,268.3,39.3,268.3,39z"/>
	<path class="st0" d="M286.1,37.5v1.6c0,0,1.6,0,1.8,0c0,0.2,0,7.2,0,7.2h1.7c0,0,0-6.9,0-7.2c0.2,0,1.8,0,1.8,0v-1.6H286.1"/>
	<path class="st0" d="M297,44.7c0-0.2,0-2,0-2.3c0.2,0,3,0,3,0v-1.5c0,0-2.7,0-3,0c0-0.2,0-1.7,0-1.9c0.2,0,2.9,0,2.9,0v-1.5h-4.6
		v8.8h4.7v-1.5C300,44.7,297.2,44.7,297,44.7"/>
	<path class="st0" d="M281.3,46.3h1.8l-2.7-8.8h-1.5l-2.7,8.8h1.8l0.4-1.5c0.8,0,1.8,0,2.5,0L281.3,46.3 M278.8,43.3l0.8-3l0.9,3
		C279.9,43.3,279.4,43.3,278.8,43.3z"/>
	<path class="st0" d="M239.2,46.3h1.8l-2.7-8.8h-1.5l-2.7,8.8h1.8l0.4-1.5c0.8,0,1.8,0,2.5,0L239.2,46.3 M236.6,43.3l0.8-3l0.9,3
		C237.7,43.3,237.2,43.3,236.6,43.3z"/>
</g>
<g>
	<path d="M7.9,67.9v1.3H0.8C1.9,68.1,3,67,4.2,65.5C5.7,63.8,6,63,6,62.2c0-1-0.7-1.6-1.6-1.6c-1.4,0-2.2,1.3-2.4,1.7l-0.6-1.5
		c0.8-1,1.8-1.5,3-1.5c1.4,0,3.1,0.8,3.1,2.9c0,1.4-0.6,2.4-3.6,5.7H7.9z"/>
	<path d="M10.1,64.3c0-0.9,0-5,3.4-5c3.4,0,3.4,4.1,3.4,5c0,0.9,0,5-3.4,5C10.1,69.4,10.1,65.3,10.1,64.3z M15.5,64.3
		c0-1.9-0.4-3.7-2-3.7s-2,1.9-2,3.7c0,2,0.4,3.7,2,3.7C15.1,68,15.5,66.2,15.5,64.3z"/>
	<path d="M21.8,59.5H23v9.7h-1.5v-8.1l-1.8,1.2L19.6,61L21.8,59.5z"/>
	<path d="M33.5,59.5v1.4l-4.8,8.3H27l4.9-8.4h-5.4v-1.3H33.5z"/>
	<path d="M46.3,60v1.2h-3.9v1.7h3.5v1.2h-3.5v2.2h4.4v1.2h-4.4v2.7h-1.3v-2.7h-5.8v-1.2H37v-3.4h4v-1.7h-2.8c-0.9,1.4-1.6,2-2.2,2.5
		l-0.9-1.1c1.3-1,2.2-2.3,2.7-3.9l1.4,0.3c-0.2,0.5-0.2,0.6-0.4,0.9H46.3z M41.1,64.1h-2.7v2.2h2.7V64.1z"/>
	<path d="M49.4,59.7h4.4v-0.9h1.3v0.9h4.9v1.1H58v0.9h2v1h-2v1.9h-5.7v-1.9h-1.7V65c0,1.9-0.3,3.8-1.2,5.2l-1-1
		c0.7-1.1,0.9-2.7,0.9-4.3V59.7z M53.2,66.4c0.4,0.4,1,1,2.1,1.5c1.3-0.6,1.7-1.2,2-1.5h-6.4v-1.1h7.8v1.1c-0.2,0.3-0.7,1.1-2.1,2
		c1,0.3,2,0.5,3.4,0.6l-0.6,1.2c-0.6-0.1-2.3-0.3-4.2-1.1c-1.9,0.8-3.5,1-4.5,1.1l-0.5-1.1c0.7-0.1,1.9-0.2,3.6-0.7
		c-1.1-0.7-1.5-1.2-1.7-1.4L53.2,66.4z M50.6,60.8v0.9h1.7v-0.9H50.6z M53.5,60.8v0.9h3.4v-0.9H53.5z M53.5,62.7v0.9h3.4v-0.9H53.5z
		"/>
	<path d="M85.8,59.4v10.6h-9.4V59.4H85.8z M77.7,64h6.7v-3.3h-6.7V64z M77.7,65.2v3.5h6.7v-3.5H77.7z"/>
	<path d="M88.5,60.8h5.1v-2h1.3v2h5.1v1.2h-4.5c1.2,2.4,2.9,3.8,4.7,4.9l-0.7,1.4c-1.3-0.9-3.2-2.5-4.5-5.2V67h2.5v1.2h-2.5v2h-1.3
		v-2h-2.4V67h2.4v-3.9c-1.1,2.2-2.6,3.9-4.5,5.2l-0.7-1.2c2.2-1.5,3.6-2.9,4.7-5h-4.5V60.8z"/>
	<path d="M103.3,68.8c2.5-0.9,3.3-2.3,3.4-4.6h-4.7v-1.3h10.3v1.3h-4.2c-0.1,2.2-0.6,4.4-3.9,5.7L103.3,68.8z M110,59.9v1.3h-6.6
		v-1.3H110z M110.8,58.7c0.4,0.8,0.6,1.4,0.9,2.4l-0.9,0.4c-0.2-1-0.4-1.6-0.9-2.5L110.8,58.7z M112.5,58.4c0.4,0.8,0.6,1.5,0.9,2.5
		l-0.9,0.4c-0.2-1-0.4-1.6-0.9-2.5L112.5,58.4z"/>
	<path d="M117.2,59.6h1.4V62h3.4v-2.5h1.3l0,2.5h2.2v1.3h-2.1v0.8c0,1.8-0.2,4.3-3.5,5.7l-1-1c2.8-1.1,3.1-2.7,3.1-4.7v-0.8h-3.4
		v3.1h-1.4v-3.1h-2.1V62h2.1V59.6z M124.3,58.5c0.3,0.8,0.5,1.5,0.6,2.5l-1,0.2c-0.1-1-0.2-1.5-0.5-2.5L124.3,58.5z M125.9,58.4
		c0.3,0.9,0.5,1.5,0.6,2.5l-1,0.2c-0.1-1-0.3-1.6-0.6-2.5L125.9,58.4z"/>
	<path d="M134.1,69.8h-1.4v-6c-1.9,1-3.3,1.5-4.1,1.8l-0.7-1.3c4.9-1.6,7.7-4.1,8.8-5.1l1.1,0.9c-0.9,0.9-1.9,1.6-3.6,2.8V69.8z"/>
	<path d="M144.3,63c-1.1-0.8-2.2-1.3-3.6-1.8l0.6-1.2c1.4,0.5,2.5,1,3.7,1.8L144.3,63z M150.4,63.1c-2.4,3.8-5.8,5.8-9.2,6.5
		l-0.5-1.4c1.9-0.4,6-1.5,8.8-6.3L150.4,63.1z"/>
	<path d="M162.1,62.8v1c-0.7,0.6-2.1,1.6-3.1,2v0.1h5.1v1.2H159v2.2c0,0.9-0.9,1-1,1h-2.4l-0.2-1.3h2c0.3,0,0.3-0.2,0.3-0.4v-1.5
		h-5.1v-1.2h5.1v-1h0.5c0.4-0.1,1.3-0.5,1.8-1h-5.4v-1.1H162.1z M154.5,60.8c-0.3-0.7-0.6-1.2-0.7-1.5l1.2-0.4
		c0.3,0.5,0.7,1.2,0.9,1.8l-0.3,0.1h2.4c-0.3-0.7-0.5-1.1-0.8-1.6l1.2-0.5c0.3,0.4,0.7,1.3,0.9,1.9l-0.4,0.1h2
		c0.1-0.3,0.3-0.6,0.8-2l1.4,0.4c-0.3,0.6-0.4,1-0.8,1.6h1.5v2.8h-1.2v-1.6h-8.5v1.6h-1.2v-2.8H154.5z"/>
	<path d="M168.7,62.6c-0.9,0.6-1.5,0.8-2,1l-0.7-1.2c2-0.7,4.2-2.2,5.3-3.8h1.4c0.9,1.4,2.9,2.8,5.3,3.7l-0.8,1.2
		c-0.5-0.3-1.2-0.6-2-1.1v0.7h-6.5V62.6z M175.9,70.4c-0.1-0.3-0.2-0.4-0.5-0.8c-1.7,0.2-4.4,0.4-8.7,0.5l-0.2-1.3
		c0.3,0,1.4,0,1.7,0c0.3-0.6,0.9-1.9,1.2-2.8h-3.1v-1.2h11v1.2H171c-0.4,1-0.9,2-1.3,2.8c2.3,0,2.5-0.1,5-0.2
		c-0.6-0.8-0.9-1.2-1.4-1.7l1-0.6c0.4,0.4,1.8,1.7,2.8,3.5L175.9,70.4z M174.4,62.1c-1.3-0.9-2.2-2-2.5-2.3
		c-0.5,0.6-1.1,1.3-2.5,2.3H174.4z"/>
	<path d="M181.7,60.4c-0.5,0-1,0.1-1.6,0.1l-0.2-1.1c1,0,2.5-0.1,4.2-0.6l0.5,1.1c-0.4,0.1-0.8,0.2-1.6,0.3V62h1.6v1.2h-1.6v0.1
		c0.2,0.3,0.7,1.4,1.8,2.4l-0.8,1.1c-0.6-0.7-0.8-1-1-1.4v4.9h-1.2v-4.9c-0.4,0.9-0.8,1.6-1.5,2.4l-0.6-1.4c0.3-0.4,1.2-1.3,2-3.2
		h-1.8V62h1.9V60.4z M188.5,58.8V63c0,1.5,0.5,2.9,1.1,4.2c0.5,1.1,1.4,1.7,1.8,2l-0.8,1.2c-1.7-1.4-2.3-2.8-2.8-4.3
		c-0.7,2-1.9,3.4-3.4,4.2l-0.8-1c1.3-0.7,3.6-2.2,3.6-6.1v-4.3H188.5z M185.8,60.6c0.4,1.6,0.6,2.7,0.6,3.8l-1.2,0.2
		c0-1.6-0.5-3.3-0.6-3.7L185.8,60.6z M191.4,60.7c-0.3,1.5-0.5,2.6-1,3.9l-1.2-0.3c0.4-1.1,0.7-2.6,0.9-3.8L191.4,60.7z"/>
	<path d="M195.5,64.2c-0.8,0.4-1.2,0.5-1.6,0.7l-0.5-1.2c2.2-0.6,3.3-1.4,3.6-1.6h-3.5v-1.1h5.1v-0.6c-0.6,0-3.5,0.1-4.1,0.1
		l-0.2-1.1c3.7,0.1,7.2,0,9.4-0.6l0.5,1.1c-1.5,0.3-3.3,0.4-4.3,0.5v0.6h5.1V62h-3.7c1.2,0.9,2.3,1.3,3.9,1.6l-0.6,1.2
		c-0.4-0.1-0.9-0.3-1.7-0.7V65c-0.7,0.5-1.7,1-2.9,1.5h5v1.2h-5.1v1.4c0,0.5-0.2,1.2-1.3,1.2h-1.7l-0.2-1.3h1.6
		c0.3,0,0.3-0.1,0.3-0.3v-1h-5v-1.2h5v-0.7h0.5c0.5-0.2,1.4-0.6,1.7-0.8h-5.3V64.2z M198.6,63.9v-1.9c-1,1-2,1.6-2.6,1.9H198.6z
		 M202.2,63.9c-0.2-0.1-1.5-0.7-2.5-1.8v1.8H202.2z"/>
	<path d="M217.9,63.8c-2.9-1.1-4.7-3.2-5.3-3.9c-1.3,1.6-3.2,3.1-5.4,3.9l-0.6-1.2c2.4-0.8,4.4-2.4,5.3-3.8h1.4
		c0.7,0.9,1.9,2.5,5.2,3.8L217.9,63.8z M217.3,64.4v1.2h-3.9v3.1h4.6v1.2h-10.9v-1.2h1.5v-4.9h1.3v4.9h2.2V62h1.3v2.4H217.3z"/>
	<path d="M231.8,60.4h-5.1v1.1h2.7v6.4h-6.5v-6.4h2.6v-1.1h-5.2v-1.1h11.5V60.4z M222.1,61.2v7.6h8.1v-7.6h1.3V70h-10.5v-8.7H222.1z
		 M225.5,62.5H224v1.6h1.5V62.5z M225.5,65.1H224v1.7h1.5V65.1z M228.2,62.5h-1.5v1.6h1.5V62.5z M228.2,65.1h-1.5v1.7h1.5V65.1z"/>
	<path d="M233.6,68.9c3.6-1.4,4.8-4.4,5.1-5.9h-4.8v-1.3h5v-2.9h1.4v2.9h5.1V63h-4.8c0.5,2.6,2,5,5.1,5.9l-0.9,1.3
		c-3.7-1.6-4.7-4-5.1-5.5c-0.8,2.2-2.6,4.5-5.1,5.4L233.6,68.9z"/>
	<path d="M250,62.6c-0.9,0.6-1.5,0.8-2,1l-0.7-1.2c2-0.7,4.2-2.2,5.3-3.8h1.4c0.9,1.4,2.9,2.8,5.3,3.7l-0.8,1.2
		c-0.5-0.3-1.2-0.6-2-1.1v0.7H250V62.6z M257.2,70.4c-0.1-0.3-0.2-0.4-0.5-0.8c-1.7,0.2-4.4,0.4-8.7,0.5l-0.2-1.3c0.3,0,1.4,0,1.7,0
		c0.3-0.6,0.9-1.9,1.2-2.8h-3.1v-1.2h11v1.2h-6.4c-0.4,1-0.9,2-1.3,2.8c2.3,0,2.5-0.1,5-0.2c-0.6-0.8-0.9-1.2-1.4-1.7l1-0.6
		c0.4,0.4,1.8,1.7,2.8,3.5L257.2,70.4z M255.8,62.1c-1.3-0.9-2.2-2-2.5-2.3c-0.5,0.6-1.1,1.3-2.5,2.3H255.8z"/>
	<path d="M266.3,60.8h-2v0.8h1.8v4.5h-1.8V67h2.2v1.1h-2.2v2.2h-1.2v-2.2H261V67h2.1v-0.9h-1.8v-4.5h1.8v-0.8h-2v-1.1h2v-0.9h1.2
		v0.9h2V60.8z M262.4,62.5v0.8h2.6v-0.8H262.4z M262.4,64.2v0.9h2.6v-0.9H262.4z M272.1,62.4c-0.6-0.4-2.2-1.7-2.6-2.8
		c-0.4,0.9-1.5,2-2.6,2.8l-0.7-1.1c0.9-0.5,2.1-1.6,2.7-2.6h1.3c0.8,1.4,2.1,2.3,2.5,2.5L272.1,62.4z M272.5,65.3v1.2H270v3.8h-1.2
		v-3.8h-2.3v-1.2h2.3v-1.7H267v-1.2h4.7v1.2H270v1.7H272.5z"/>
	<path d="M286,60.6h-5.1v0.6h4.1v2.4h-4.1v0.5h4.3v1.5h0.8v1h-0.8v1.5h-4.3V69c0,0.6-0.3,1.2-1.1,1.2h-2.2l-0.2-1.2h1.8
		c0.3,0,0.4-0.1,0.4-0.4v-0.5h-4.4v-0.9h4.4v-0.6h-5.1v-0.9h5.1v-0.6h-4.4v-0.9h4.4v-0.5h-4v-2.4h4v-0.6h-5v-1h5v-0.8h1.2v0.8h5.1
		V60.6z M279.7,62.1h-2.7v0.7h2.7V62.1z M283.7,62.1h-2.8v0.7h2.8V62.1z M283.9,65.1h-3v0.6h3V65.1z M283.9,66.6h-3.1v0.6h3.1V66.6z
		"/>
	<path d="M288.1,65.9c0.8-1.2,1.2-2.1,1.6-3.6h-1.5v-1.2h1.7v-2.3h1.2v2.3h1.3v1.2H291V63c0.6,1.1,1.2,1.8,1.7,2.3l-0.6,1.2
		c-0.5-0.7-0.7-0.9-1.1-1.7v5.5h-1.2v-5.7c-0.4,1.3-0.7,1.9-1.3,2.9L288.1,65.9z M298.5,64.4c-0.2,0.6-0.7,1.9-1.7,3.1
		c1.1,0.9,2.3,1.3,3.1,1.5l-0.6,1.2c-0.7-0.2-2.1-0.7-3.5-1.9c-1,0.9-2.1,1.4-3.3,1.9l-0.6-1.1c0.8-0.3,2-0.7,3.1-1.6
		c-1-1.2-1.4-2.4-1.6-3.1l1.1-0.3c0.2,0.5,0.5,1.5,1.4,2.6c0.5-0.6,1-1.4,1.4-2.6L298.5,64.4z M295.3,62c-0.6,0.9-1.4,1.7-2.3,2.3
		l-0.9-0.9c1.3-0.8,1.9-1.5,2.1-2L295.3,62z M295.3,58.8h1.2V60h3.1v1.2h-7.3V60h3V58.8z M297.7,61.4c0.7,0.9,1.3,1.3,2.2,1.9
		l-0.8,1c-0.7-0.4-1.5-1-2.4-2.3L297.7,61.4z"/>
</g>
</svg>
