<?xml version="1.0" encoding="utf-8"?>
<!-- Generator: Adobe Illustrator 21.0.2, SVG Export Plug-In . SVG Version: 6.00 Build 0)  -->
<svg version="1.1" id="レイヤー_1" xmlns="http://www.w3.org/2000/svg" xmlns:xlink="http://www.w3.org/1999/xlink" x="0px"
	 y="0px" width="40px" height="40px" viewBox="0 0 40 40" enable-background="new 0 0 40 40" xml:space="preserve">
<rect fill="#727171" width="40" height="40"/>
<g>
	<path fill="#FFFFFF" d="M7.7,15.4c0-1.9,0.6-3.3,1.7-4.3c1.1-1,2.3-1.5,3.8-1.5c1.5,0,2.8,0.5,3.9,1.5c1.1,1,1.7,2.5,1.7,4.3v9
		c0,1.9-0.6,3.3-1.7,4.3c-1.1,1-2.4,1.5-3.9,1.5c-1.5,0-2.8-0.5-3.8-1.5c-1.1-1-1.7-2.4-1.7-4.3V15.4z M16.1,15.6
		c-0.1-2-1-3.1-2.8-3.1c-1.8,0-2.7,1.1-2.8,3.1v8.6c0,2.1,1,3.1,2.8,3.1c1.8,0,2.7-1.1,2.8-3.1V15.6z"/>
	<path fill="#FFFFFF" d="M25.2,18.3h1c1,0,1.7-0.3,2.2-0.8c0.5-0.5,0.8-1.2,0.8-2.1c0-0.9-0.3-1.6-0.8-2.1c-0.5-0.5-1.2-0.8-2.1-0.8
		c-0.6,0-1.2,0.2-1.6,0.6c-0.5,0.4-0.9,1-1.1,1.9h-2.8c0.1-1.5,0.7-2.8,1.8-3.8c1-1,2.2-1.5,3.6-1.6c1.8,0,3.2,0.6,4.3,1.8
		c1,1.1,1.5,2.5,1.5,4c0,0.8-0.1,1.5-0.4,2.3c-0.3,0.7-0.9,1.4-1.7,1.9c0.9,0.6,1.5,1.2,1.9,2c0.4,0.8,0.5,1.6,0.5,2.5
		c0,1.9-0.6,3.4-1.7,4.5c-1.1,1.1-2.5,1.7-4.3,1.7c-1.3,0-2.5-0.4-3.6-1.3c-1-0.9-1.7-2.2-2-3.9h2.8c0.3,0.7,0.6,1.2,1.1,1.6
		c0.5,0.4,1.1,0.7,1.9,0.7c0.8,0,1.5-0.3,2.1-0.9c0.6-0.5,0.9-1.3,0.9-2.3c0-1-0.3-1.8-0.9-2.4c-0.6-0.5-1.3-0.8-2.2-0.8h-1.2V18.3z
		"/>
</g>
</svg>
