<?xml version="1.0" encoding="utf-8"?>
<!-- Generator: Adobe Illustrator 21.0.2, SVG Export Plug-In . SVG Version: 6.00 Build 0)  -->
<svg version="1.1" id="レイヤー_1" xmlns="http://www.w3.org/2000/svg" xmlns:xlink="http://www.w3.org/1999/xlink" x="0px"
	 y="0px" width="40px" height="40px" viewBox="0 0 40 40" enable-background="new 0 0 40 40" xml:space="preserve">
<rect fill="#727171" width="40" height="40"/>
<g>
	<path fill="#FFFFFF" d="M7.4,15.4c0-1.9,0.6-3.3,1.7-4.3c1.1-1,2.3-1.5,3.8-1.5c1.5,0,2.8,0.5,3.9,1.5c1.1,1,1.7,2.5,1.7,4.3v9
		c0,1.9-0.6,3.3-1.7,4.3c-1.1,1-2.4,1.5-3.9,1.5c-1.5,0-2.8-0.5-3.8-1.5c-1.1-1-1.7-2.4-1.7-4.3V15.4z M15.7,15.6
		c-0.1-2-1-3.1-2.8-3.1c-1.8,0-2.7,1.1-2.8,3.1v8.6c0,2.1,1,3.1,2.8,3.1c1.8,0,2.7-1.1,2.8-3.1V15.6z"/>
	<path fill="#FFFFFF" d="M21.1,15.4c0-1.9,0.6-3.3,1.7-4.3c1.1-1,2.3-1.5,3.8-1.5c1.5,0,2.8,0.5,3.9,1.5c1.1,1,1.7,2.5,1.7,4.3v9
		c0,1.9-0.6,3.3-1.7,4.3c-1.1,1-2.4,1.5-3.9,1.5c-1.3,0-2.5-0.4-3.5-1.2c-1-0.8-1.7-1.9-2-3.4h2.9c0.4,1.1,1.3,1.7,2.6,1.7
		c1.8,0,2.7-1.1,2.8-3.1v-1.9c-1.3,0.4-2.6,0.6-3.8,0.6c-1.3,0-2.4-0.4-3.3-1.4c-0.9-0.9-1.3-2.3-1.3-4.3V15.4z M23.9,17.3
		c0,2.1,1,3.1,2.8,3.1c1.8,0,2.7-1.1,2.8-3.1v-1.7c-0.1-2-1-3.1-2.8-3.1c-1.8,0-2.7,1.1-2.8,3.1V17.3z"/>
</g>
</svg>
