<?xml version="1.0" encoding="utf-8"?>
<!-- Generator: Adobe Illustrator 21.0.2, SVG Export Plug-In . SVG Version: 6.00 Build 0)  -->
<svg version="1.1" id="レイヤー_1" xmlns="http://www.w3.org/2000/svg" xmlns:xlink="http://www.w3.org/1999/xlink" x="0px"
	 y="0px" width="30px" height="37px" viewBox="0 0 30 37" enable-background="new 0 0 30 37" xml:space="preserve">
<path fill="#727171" d="M24.5,26.6C27.9,23.8,30,19.7,30,15c0-8.3-6.7-15-15-15S0,6.7,0,15c0,4.7,2.1,8.8,5.5,11.6
	C6,27,6,27,5.5,26.6c-0.4-0.3-0.7-0.6-1.1-1L15,36.2l10.6-10.6C25.3,25.9,24.9,26.3,24.5,26.6C24,27,24,27,24.5,26.6z"/>
<g>
	<path fill="#FFFFFF" d="M7.4,12.3c0-1.1,0.4-2,1-2.6c0.6-0.6,1.4-0.9,2.3-0.9c0.9,0,1.7,0.3,2.3,0.9c0.7,0.6,1,1.5,1,2.6v5.4
		c0,1.1-0.4,2-1,2.6c-0.6,0.6-1.4,0.9-2.3,0.9c-0.9,0-1.7-0.3-2.3-0.9c-0.7-0.6-1-1.5-1-2.6V12.3z M12.4,12.4c0-1.2-0.6-1.8-1.7-1.9
		c-1.1,0-1.6,0.6-1.7,1.9v5.2c0,1.2,0.6,1.9,1.7,1.9c1.1,0,1.6-0.6,1.7-1.9V12.4z"/>
	<path fill="#FFFFFF" d="M15.4,17.5c0-1.2,0.5-2.1,1.4-2.7c-0.4-0.3-0.6-0.7-0.9-1.1c-0.2-0.4-0.4-0.8-0.4-1.4c0-1,0.3-1.9,1-2.5
		c0.6-0.7,1.4-1,2.4-1c1,0,1.8,0.3,2.4,1c0.6,0.7,1,1.5,1,2.5c0,0.5-0.1,1-0.3,1.4c-0.2,0.4-0.5,0.8-0.9,1.1
		c0.9,0.7,1.4,1.6,1.4,2.7c0,1.1-0.4,2-1,2.6c-0.7,0.7-1.6,1-2.6,1c-1,0-1.8-0.4-2.5-1C15.7,19.5,15.4,18.6,15.4,17.5z M17.1,17.5
		c0,0.6,0.2,1,0.6,1.4c0.4,0.4,0.8,0.6,1.3,0.6c0.5,0,1-0.2,1.4-0.6c0.4-0.4,0.6-0.8,0.6-1.4c0-0.6-0.2-1-0.6-1.4
		c-0.4-0.4-0.8-0.5-1.4-0.5c-0.5,0-1,0.2-1.3,0.5C17.3,16.4,17.1,16.9,17.1,17.5z M17.3,12.2c0,0.6,0.2,1,0.5,1.3
		c0.3,0.3,0.7,0.5,1.2,0.5c0.5,0,0.9-0.2,1.2-0.5c0.3-0.3,0.5-0.7,0.5-1.3c0-0.6-0.2-1-0.5-1.3c-0.3-0.3-0.7-0.4-1.2-0.4
		c-0.4,0-0.8,0.1-1.2,0.4C17.5,11.2,17.3,11.7,17.3,12.2z"/>
</g>
</svg>
