<?xml version="1.0" encoding="utf-8"?>
<!-- Generator: Adobe Illustrator 21.0.2, SVG Export Plug-In . SVG Version: 6.00 Build 0)  -->
<svg version="1.1" id="レイヤー_1" xmlns="http://www.w3.org/2000/svg" xmlns:xlink="http://www.w3.org/1999/xlink" x="0px"
	 y="0px" width="40px" height="40px" viewBox="0 0 40 40" enable-background="new 0 0 40 40" xml:space="preserve">
<rect fill="#727171" width="40" height="40"/>
<g>
	<path fill="#FFFFFF" d="M7.6,15.5c0-1.9,0.6-3.3,1.7-4.3c1.1-1,2.3-1.5,3.8-1.5c1.5,0,2.8,0.5,3.9,1.5c1.1,1,1.7,2.5,1.7,4.3v9
		c0,1.9-0.6,3.3-1.7,4.3c-1.1,1-2.4,1.5-3.9,1.5c-1.5,0-2.8-0.5-3.8-1.5c-1.1-1-1.7-2.4-1.7-4.3V15.5z M16,15.7
		c-0.1-2-1-3.1-2.8-3.1c-1.8,0-2.7,1.1-2.8,3.1v8.6c0,2.1,1,3.1,2.8,3.1c1.8,0,2.7-1.1,2.8-3.1V15.7z"/>
	<path fill="#FFFFFF" d="M21.1,27.4l7.7-9.9c0.3-0.4,0.5-0.8,0.6-1.1c0.1-0.3,0.1-0.6,0.1-0.9c0-0.8-0.2-1.4-0.7-2
		c-0.5-0.6-1.2-0.9-2-0.9c-0.8,0-1.4,0.3-1.9,0.8c-0.5,0.5-0.8,1.2-0.9,2.2h-2.8c0.1-1.7,0.6-3.1,1.6-4.2c1-1.1,2.3-1.6,3.8-1.6
		c1.7,0,3.1,0.6,4.1,1.7c1.1,1.1,1.6,2.5,1.6,4.1c0,1.3-0.4,2.5-1.2,3.6l-6.3,8.2h7.5v2.9H21.1V27.4z"/>
</g>
</svg>
