<?xml version="1.0" encoding="utf-8"?>
<!-- Generator: Adobe Illustrator 21.0.2, SVG Export Plug-In . SVG Version: 6.00 Build 0)  -->
<svg version="1.1" id="レイヤー_1" xmlns="http://www.w3.org/2000/svg" xmlns:xlink="http://www.w3.org/1999/xlink" x="0px"
	 y="0px" width="357.9px" height="82.1px" viewBox="0 0 357.9 82.1" style="enable-background:new 0 0 357.9 82.1;"
	 xml:space="preserve">
<style type="text/css">
	.st0{fill:#928178;}
	.st1{fill:#F39800;}
	.st2{fill:#8FC31F;}
	.st3{fill:#B08BBE;}
</style>
<g>
	<path class="st0" d="M32.3,23.8V2.3H39v53.4h-6.7V30H6.8v25.7H0.2V2.3h6.7v21.5H32.3z"/>
	<path class="st0" d="M54.5,42.3l-6.1,13.4h-7.2L66.8,0l25.5,55.7h-7.2L79,42.3C79,42.3,54.5,42.3,54.5,42.3z M66.8,14.6l-9.5,21.6
		h19L66.8,14.6z"/>
	<path class="st0" d="M212.7,2.3h11.1c16.4,0,30,8.6,30,26.4c0,18.2-13.3,27-30.2,27h-10.8V2.3H212.7z M219.4,49.6h2.3
		c13.6,0,25.4-5.1,25.4-20.6c0-15.6-11.8-20.6-25.4-20.6h-2.3V49.6z"/>
	<path class="st0" d="M263.3,42.3l-6.1,13.4H250L275.5,0L301,55.7h-7.2l-6.1-13.4C287.7,42.3,263.3,42.3,263.3,42.3z M275.5,14.6
		L266,36.2h19L275.5,14.6z"/>
	<path class="st0" d="M313.7,55.7H307V8.4h-12.7V2.3h32v6.1h-12.7v47.3H313.7z"/>
	<path class="st0" d="M329.2,2.3h28.7v6.1h-22v15h21.4v6.1h-21.4v20.2h22v6.1h-28.7V2.3z"/>
</g>
<g>
	<path class="st1" d="M189.5,32.7c-0.2,1.4-0.4,2.9-0.8,4.3h18.4v-4.3H189.5z"/>
	<path class="st2" d="M127.9,35c-2.1,4.1-6.4,6.9-11.3,6.9c-7,0-12.8-5.7-12.8-12.8c0-7,5.7-12.8,12.8-12.8c4.9,0,9.2,2.8,11.3,6.9
		c0.3-1.8,0.9-3.6,1.5-5.3c-3.1-3.6-7.7-5.9-12.8-5.9c-9.4,0-17,7.6-17,17s7.6,17,17,17c5.1,0,9.7-2.3,12.8-5.9
		C128.8,38.6,128.2,36.9,127.9,35z"/>
	<path class="st1" d="M130,41.8c-3.4,3.6-8.1,5.8-13.4,5.8c-10.2,0-18.4-8.2-18.4-18.4s8.2-18.4,18.4-18.4c5.3,0,10.1,2.2,13.4,5.8
		c0.6-1.4,1.3-2.7,2.1-3.9c-4.1-3.8-9.5-6.1-15.5-6.1c-12.5,0-22.7,10.2-22.7,22.7S104.1,52,116.6,52c6,0,11.5-2.3,15.5-6.1
		C131.3,44.5,130.6,43.1,130,41.8z"/>
	<path class="st3" d="M132.9,46.9c-4.3,3.9-10,6.4-16.3,6.4c-13.3,0-24.1-10.8-24.1-24.1s10.8-24.1,24.1-24.1c6.3,0,12,2.4,16.3,6.4
		c0.8-1.2,1.7-2.3,2.7-3.3c-5-4.5-11.7-7.3-19-7.3c-15.7,0-28.3,12.7-28.3,28.3c0,15.7,12.7,28.3,28.3,28.3c7.3,0,13.9-2.8,19-7.3
		C134.6,49.2,133.7,48.1,132.9,46.9z"/>
	<path class="st3" d="M186.7,15.7c0.7,1.4,1.2,2.8,1.7,4.3h18.8v-4.3H186.7z"/>
	<path class="st1" d="M188.7,21.4c0.4,1.4,0.6,2.8,0.8,4.3h17.6v-4.3C207.1,21.4,188.7,21.4,188.7,21.4z"/>
	<path class="st2" d="M189.6,27c0,0.7,0.1,1.4,0.1,2.1s0,1.4-0.1,2.1H207V27H189.6z"/>
	<path class="st3" d="M158.5,0.8c-15.7,0-28.3,12.7-28.3,28.3c0,15.7,12.7,28.3,28.3,28.3c15.7,0,28.3-12.7,28.3-28.3
		C186.9,13.5,174.2,0.8,158.5,0.8z M158.5,53.3c-13.3,0-24.1-10.8-24.1-24.1s10.8-24.1,24.1-24.1s24.1,10.8,24.1,24.1
		S171.8,53.3,158.5,53.3z"/>
	<path class="st1" d="M158.5,6.5c-12.5,0-22.7,10.2-22.7,22.7s10.2,22.7,22.7,22.7s22.7-10.2,22.7-22.7
		C181.2,16.6,171,6.5,158.5,6.5z M158.5,47.6c-10.2,0-18.4-8.2-18.4-18.4s8.2-18.4,18.4-18.4s18.4,8.2,18.4,18.4
		C176.9,39.3,168.7,47.6,158.5,47.6z"/>
	<path class="st2" d="M158.5,12.2c-9.4,0-17,7.6-17,17s7.6,17,17,17s17-7.6,17-17S167.9,12.2,158.5,12.2z M158.5,41.9
		c-7,0-12.8-5.7-12.8-12.8c0-7,5.7-12.8,12.8-12.8s12.8,5.7,12.8,12.8S165.6,41.9,158.5,41.9z"/>
	<path class="st3" d="M188.3,38.4c-0.5,1.5-1,2.9-1.7,4.3H207v-4.3H188.3z"/>
</g>
<g>
	<path d="M10.8,78.4v1.7H0c1.2-1.2,3.3-3.2,5.3-5.5c2.3-2.7,3.1-3.9,3.1-5.5c0-1.8-1.4-2.8-2.8-2.8c-2.4,0-3.5,2-3.8,2.6L0.9,67
		c1.1-1.5,2.7-2.3,4.6-2.3c1.9,0,4.6,1.1,4.6,4.4c0,1.5-0.4,2.7-2,4.6c-0.8,1-2,2.5-4.2,4.7H10.8z"/>
	<path d="M12.9,72.5c0-1.5,0-7.9,5.2-7.9c5.2,0,5.2,6.4,5.2,7.9c0,1.5,0,7.9-5.2,7.9C12.9,80.4,12.9,74,12.9,72.5z M21.6,72.5
		c0-2.5-0.4-6.2-3.4-6.2c-3,0-3.4,3.6-3.4,6.2c0,2.7,0.5,6.2,3.4,6.2C21.2,78.7,21.6,75.1,21.6,72.5z"/>
	<path d="M30.6,64.9h1.6v15.1h-1.8V67l-2.9,2l-0.2-1.7L30.6,64.9z"/>
	<path d="M48.9,64.9v1.7L41,80.1H39l8-13.5h-8.8v-1.7H48.9z"/>
	<path d="M67.6,65.8v1.5h-6.3v3.1H67v1.5h-5.7v3.9h7.1v1.5h-7.1v4.5h-1.6v-4.5h-9.2v-1.5h2.7v-5.4h6.4v-3.1H55
		c-1.2,1.9-2.1,3-3.6,4.1L50.3,70c2.3-1.7,3.7-4,4.5-6.3l1.7,0.4c-0.2,0.5-0.3,0.8-0.7,1.7H67.6z M59.7,71.8h-4.8v3.9h4.8V71.8z"/>
	<path d="M78.1,65.4v-1.5h1.6v1.5h7.8v1.4h-3.2v1.7h3.3v1.3h-3.3v3.1h-8.5v-3.1h-3v3.4c0,1.2,0,5.5-1.9,8.4l-1.3-1.2
		c1.4-2,1.6-4.6,1.6-7.3v-7.7H78.1z M87,81.7c-0.9-0.2-4-0.6-6.9-1.8c-3.2,1.4-5.8,1.7-7,1.8l-0.6-1.5c1-0.1,2.9-0.3,5.8-1.2
		c-2-1.1-2.8-2.1-3.2-2.5l1.3-0.8c0.5,0.6,1.6,1.6,3.7,2.6c2.3-1.1,3.1-2.3,3.5-2.8H73.3v-1.4h12.2v1.4c-0.3,0.6-1.3,2.1-3.6,3.5
		c2.6,0.8,4.7,1,5.9,1.2L87,81.7z M75.7,66.8h-3v1.7h3V66.8z M82.7,66.8h-5.6v1.7h5.6V66.8z M82.7,69.8h-5.6v1.8h5.6V69.8z"/>
	<path d="M111.3,64.8v16.5H96.7V64.8H111.3z M98.3,72.1h11.2v-5.8H98.3V72.1z M98.3,73.7v6.1h11.2v-6.1H98.3z"/>
	<path d="M122,67.3v-3.5h1.6v3.5h8.1v1.5h-7.3c1.9,3.9,4.7,6.5,7.5,8.1l-0.9,1.6c-4.1-3-5.9-5.5-7.4-8.6v6.9h4.1v1.5h-4.1v3.4H122
		v-3.4h-4v-1.5h4V70c-0.7,1.4-2.5,5.1-7.4,8.6l-1-1.5c3.5-2.2,5.8-4.7,7.5-8.2H114v-1.5H122z"/>
	<path d="M135.6,79.7c4.9-1.7,5.4-4.6,5.6-7.7h-7.6v-1.7h16.1V72h-6.7c-0.1,2.9-0.5,7-6.1,9.1L135.6,79.7z M145.9,65.5v1.7h-10.3
		v-1.7H145.9z M147.3,63.6c0.7,1.3,1,2.2,1.4,3.9l-1.4,0.6c-0.3-1.6-0.7-2.5-1.3-3.9L147.3,63.6z M150,63c0.6,1.2,1,2.3,1.4,3.9
		l-1.4,0.6c-0.4-1.6-0.6-2.5-1.3-3.9L150,63z"/>
	<path d="M155.8,65.1h1.7V69h6v-4h1.6l0.1,4h3.5v1.7h-3.4v1.5c0,2.8-0.3,6.7-5.4,8.9l-1.2-1.3c4.5-1.8,4.9-4.6,4.9-7.6v-1.5h-6v5
		h-1.7v-5h-3.4V69h3.4V65.1z M166.8,63.4c0.5,1.3,0.7,2.4,1,4l-1.5,0.3c-0.2-1.7-0.3-2.4-0.8-4L166.8,63.4z M169.5,63
		c0.6,1.4,0.7,2.4,1,4l-1.5,0.3c-0.2-1.7-0.4-2.5-0.9-4L169.5,63z"/>
	<path d="M180.4,81h-1.8v-9.9c-3,1.7-5.8,2.6-6.8,3l-0.9-1.6c7.8-2.6,12.4-6.7,13.9-8l1.4,1.1c-2.2,2-3.5,2.9-5.8,4.4V81z"/>
	<path d="M194.5,70.1c-1.8-1.2-3.4-2-5.6-2.8l0.8-1.5c2.2,0.8,3.9,1.6,5.8,2.8L194.5,70.1z M203.9,70.5c-3.9,6.1-9.4,9.1-14.4,10.2
		l-0.6-1.8c6.1-1.2,10.8-4.7,13.9-10L203.9,70.5z"/>
	<path d="M220,71.4c-1.5,1.4-3.3,2.3-4.9,3.1v0.4h8v1.5h-8v3.8c0,1.3-1,1.5-1.6,1.5h-3.5l-0.3-1.7l3.1,0c0.6,0,0.6-0.2,0.6-0.6v-3
		h-8.2v-1.5h8.2v-1.6h0.8c0.4-0.2,2-0.8,3.1-1.8h-9v-1.4H220V71.4z M218.1,67c0.6-1,1.3-2.8,1.4-3.2l1.7,0.6
		c-0.4,0.9-0.9,1.8-1.4,2.6h2.8v4.2h-1.6v-2.8h-13.7v2.8h-1.6V67h2.8c-0.4-1.1-1-2.1-1.3-2.5l1.4-0.6c0.8,1,1.2,2,1.5,2.7l-1,0.4
		H218.1z M213.9,66.9c-0.3-0.8-0.9-1.9-1.5-2.7l1.5-0.6c0.8,1.2,1.3,2.5,1.5,2.8L213.9,66.9z"/>
	<path d="M238.5,70.6h-10.2v-1.1c-1.7,1.1-2.8,1.5-3.4,1.8l-0.8-1.6c5.7-2.2,7.9-5.4,8.4-6.1h1.7c2,2.7,5.1,5,8.4,6.2l-0.8,1.5
		c-0.8-0.4-1.9-0.9-3.3-1.8V70.6z M236.9,75.2c2.1,2,3.2,3.4,4.7,5.7l-1.4,0.9c-0.3-0.5-0.5-0.9-0.9-1.5c-3.2,0.5-11,0.8-14,0.8
		l-0.2-1.6h2.7c1.2-2.1,1.9-3.9,2.4-5h-5.3v-1.5H242v1.5h-10c-0.5,1.1-1.2,2.7-2.5,4.9c0.5,0,2.6-0.1,3-0.1c2.3-0.1,4.3-0.3,5.7-0.4
		c-0.2-0.2-1.2-1.5-2.7-3L236.9,75.2z M237.9,69.2c-2.7-1.9-3.8-3.3-4.5-4.1c-1.2,1.7-2.8,3-4.5,4.1H237.9z"/>
	<path d="M248.4,69h2.6v1.4h-2.6v0.4c0.4,0.7,1.4,2.4,2.7,3.7l-1,1.3c-0.9-1.2-1.3-1.9-1.7-2.7v8.5h-1.5v-8.5
		c-0.8,1.9-1.6,3.2-2.7,4.6l-0.7-1.7c1.6-1.7,2.8-4.2,3.3-5.6h-3V69h3.1v-2.8c-1.5,0.2-2.2,0.2-2.8,0.2l-0.3-1.4
		c2.5-0.1,4.4-0.4,6.5-1l0.6,1.3c-0.6,0.2-1.3,0.4-2.5,0.6V69z M257,70.6c0,2.7,0.9,7.1,4.8,9.9l-1,1.3c-0.9-0.7-3.5-2.6-4.5-7
		c-0.4,1.5-1.4,4.8-5.6,6.9l-1-1.3c0.8-0.4,2.9-1.4,4-3.2c0.7-1.2,1.7-3.4,1.7-6.6v-6.7h1.6V70.6z M252.3,72.8
		c-0.1-1.9-0.8-4.4-1.2-5.7l1.4-0.4c0.3,0.9,1.1,3.4,1.3,5.8L252.3,72.8z M258.6,72.4c1-2.5,1.3-5.2,1.4-5.9l1.6,0.4
		c-0.1,0.8-0.5,3.3-1.5,6L258.6,72.4z"/>
	<path d="M277.2,73.3c-1.2,0.9-3.3,2-4.6,2.5v0.2h8.1v1.4h-8.1v2.6c0,1.1-0.5,1.6-1.7,1.6h-2.9l-0.3-1.6l2.7,0
		c0.5,0,0.6-0.2,0.6-0.6v-2H263v-1.4h8.1v-1.3h0.8c1.1-0.4,2.3-1.1,2.7-1.4h-8.3v-1.2c-1.3,0.7-2.2,1-2.8,1.2l-0.7-1.5
		c3.3-0.9,5.4-2.3,6.6-3.3h-6.3v-1.4h8v-1.2c-1,0-5.6,0.1-6.6,0.1l-0.3-1.4c9.5,0.2,12.8-0.6,14.2-0.9l0.7,1.4
		c-1,0.2-2.9,0.6-6.5,0.8v1.3h8.1v1.4h-6.5c2,1.8,3.9,2.7,6.7,3.4l-0.7,1.5c-0.8-0.3-1.8-0.6-3-1.3V73.3z M271.2,72v-3.3
		c-1.4,1.5-3,2.4-4.5,3.3H271.2z M277,72c-1.2-0.7-2.9-1.7-4.3-3.3V72H277z"/>
	<path d="M281.8,70c4.2-1.6,7.1-4.1,8.4-6.1h1.7c2.9,4,7.2,5.7,8.4,6.1l-0.8,1.6c-2.5-1.1-5.6-2.8-8.5-6.3c-1.8,2.3-4.9,4.9-8.5,6.3
		L281.8,70z M298.4,74.5h-6.2v5.2h7.5v1.5h-17.2v-1.5h2.6v-7.9h1.6v7.9h3.8V68.9h1.6v4h6.2V74.5z"/>
	<path d="M319.2,66H311v2h4.3v10h-10.1v-10h4.3v-2h-8.2v-1.5h17.9V66z M303.6,67.7v12.2H317V67.7h1.6v13.6H302V67.7H303.6z
		 M309.5,69.2h-2.8v2.9h2.8V69.2z M309.5,73.5h-2.8v3.2h2.8V73.5z M313.8,69.2H311v2.9h2.8V69.2z M313.8,73.5H311v3.2h2.8V73.5z"/>
	<path d="M328.5,63.9h1.7v4.7h8.2v1.6h-7.9c1.2,5,3.4,7.8,8.2,9.8l-1.1,1.6c-4-1.9-6.8-4.6-8-9.2c-1.7,6-6.2,8.3-8.2,9.2l-0.9-1.7
		c2.9-1.1,7-3.5,8-9.7h-7.8v-1.6h7.9V63.9z"/>
	<path d="M353.8,70.6h-10.2v-1.1c-1.7,1.1-2.8,1.5-3.4,1.8l-0.8-1.6c5.7-2.2,7.9-5.4,8.4-6.1h1.7c2,2.7,5.1,5,8.4,6.2l-0.8,1.5
		c-0.8-0.4-1.9-0.9-3.3-1.8V70.6z M352.1,75.2c2.1,2,3.2,3.4,4.7,5.7l-1.4,0.9c-0.3-0.5-0.5-0.9-0.9-1.5c-3.2,0.5-11,0.8-14,0.8
		l-0.2-1.6h2.7c1.2-2.1,1.9-3.9,2.4-5H340v-1.5h17.2v1.5h-10c-0.5,1.1-1.2,2.7-2.5,4.9c0.5,0,2.6-0.1,3-0.1c2.3-0.1,4.3-0.3,5.7-0.4
		c-0.2-0.2-1.2-1.5-2.7-3L352.1,75.2z M353.2,69.2c-2.7-1.9-3.8-3.3-4.5-4.1c-1.2,1.7-2.8,3-4.5,4.1H353.2z"/>
</g>
</svg>
