<?xml version="1.0" encoding="utf-8"?>
<!-- Generator: Adobe Illustrator 21.0.2, SVG Export Plug-In . SVG Version: 6.00 Build 0)  -->
<svg version="1.1" id="レイヤー_1" xmlns="http://www.w3.org/2000/svg" xmlns:xlink="http://www.w3.org/1999/xlink" x="0px"
	 y="0px" width="16.7px" height="16.8px" viewBox="0 0 16.7 16.8" enable-background="new 0 0 16.7 16.8" xml:space="preserve">
<path fill="#FFFFFF" d="M6.9,7.6l-1.7,4.2L8,11.3v1.5l-3,0.5v3.5H2.4v-1.4h1v-1.8l-3.1,0.6v-1.5l3.1-0.5v-2h0.8L4.7,9H3l-1.4,2.1H0
	l3.1-4.5H0V5.1H3V3.2H0.6V1.8H3V0h1.4v1.8h1.9L6.8,1h1.6L5.7,5.1h2.2v1.4H4.7L4,7.6H6.9z M5.3,3.2h-1v1.4L5.3,3.2z M16.6,16.4h-1.8
	l-2.2-4.3l-2.5,4.3H8.5l3.4-6l-2-3.9L9.5,8.2H7.9l1.6-7.6h1.7l-0.5,2.2h6v1.6h-1l-2,5.9L16.6,16.4z M12.6,8.4l1.4-4h-3.4L12.6,8.4z"
	/>
</svg>
